<svg xmlns="http://www.w3.org/2000/svg" xmlns:xlink="http://www.w3.org/1999/xlink" viewBox="0 0 162.34 198.4"><defs><style>.cls-1,.cls-15,.cls-17,.cls-2,.cls-3,.cls-4,.cls-5,.cls-6,.cls-7{fill:none;}.cls-2,.cls-3,.cls-5,.cls-6,.cls-7{clip-rule:evenodd;}.cls-3{clip-path:url(#clip-path);}.cls-16,.cls-18,.cls-4{fill-rule:evenodd;}.cls-5{clip-path:url(#clip-path-2);}.cls-6{clip-path:url(#clip-path-3);}.cls-7{clip-path:url(#clip-path-4);}.cls-8{clip-path:url(#clip-path-5);}.cls-27,.cls-9{font-size:14.04px;}.cls-14,.cls-19,.cls-27,.cls-9{font-family:MicrosoftYaHei-Bold, Microsoft YaHei;font-weight:700;}.cls-28,.cls-9{letter-spacing:0em;}.cls-10{letter-spacing:0em;}.cls-11{letter-spacing:0em;}.cls-12{letter-spacing:0em;}.cls-13{clip-path:url(#clip-path-6);}.cls-14,.cls-19{font-size:11.04px;}.cls-15{stroke:#000;stroke-width:2.04px;}.cls-15,.cls-17{stroke-miterlimit:8;}.cls-17{stroke:#fdb813;stroke-width:3px;}.cls-18{fill:#fdb813;}.cls-19{letter-spacing:0em;}.cls-20{letter-spacing:0em;}.cls-21{letter-spacing:0em;}.cls-22{letter-spacing:0em;}.cls-23{clip-path:url(#clip-path-15);}.cls-24{clip-path:url(#clip-path-16);}.cls-25{clip-path:url(#clip-path-17);}.cls-26{clip-path:url(#clip-path-21);}.cls-29{letter-spacing:-0.01em;}.cls-30{clip-path:url(#clip-path-25);}.cls-31{clip-path:url(#clip-path-26);}.cls-32{clip-path:url(#clip-path-27);}.cls-33{clip-path:url(#clip-path-31);}.cls-34{clip-path:url(#clip-path-35);}.cls-35{clip-path:url(#clip-path-36);}.cls-36{clip-path:url(#clip-path-37);}.cls-37{clip-path:url(#clip-path-41);}.cls-38{clip-path:url(#clip-path-45);}.cls-39{clip-path:url(#clip-path-46);}</style><clipPath id="clip-path"><polygon class="cls-2" points="0.72 59.28 176.4 59.28 176.4 0 0.72 0 0.72 59.28 0.72 59.28"/></clipPath><clipPath id="clip-path-2"><polygon class="cls-2" points="0.06 113.51 177.06 113.51 177.06 53.75 0.06 53.75 0.06 113.51 0.06 113.51"/></clipPath><clipPath id="clip-path-3"><polygon class="cls-2" points="0 167.25 177.12 167.25 177.12 107.97 0 107.97 0 167.25 0 167.25"/></clipPath><clipPath id="clip-path-4"><polygon class="cls-2" points="0 215.35 177.12 215.35 177.12 156.19 0 156.19 0 215.35 0 215.35"/></clipPath><clipPath id="clip-path-5" transform="translate(-8.51 -8.84)"><rect class="cls-1" x="0.72" width="175.68" height="59.28"/></clipPath><clipPath id="clip-path-6" transform="translate(-8.51 -8.84)"><polygon class="cls-2" points="0.72 59.28 176.4 59.28 176.4 0 0.72 0 0.72 59.28 0.72 59.28"/></clipPath><clipPath id="clip-path-15" transform="translate(-8.51 -8.84)"><polygon class="cls-3" points="20.16 7.8 35.76 7.8 35.76 28.68 20.16 28.68 20.16 7.8 20.16 7.8"/></clipPath><clipPath id="clip-path-16" transform="translate(-8.51 -8.84)"><polygon class="cls-1" points="20.16 28.68 35.76 28.68 35.76 7.8 20.16 7.8 20.16 28.68 20.16 28.68"/></clipPath><clipPath id="clip-path-17" transform="translate(-8.51 -8.84)"><polygon class="cls-2" points="0.06 113.51 177.06 113.51 177.06 53.75 0.06 53.75 0.06 113.51 0.06 113.51"/></clipPath><clipPath id="clip-path-21" transform="translate(-8.51 -8.84)"><rect class="cls-1" x="0.06" y="53.75" width="177" height="59.76"/></clipPath><clipPath id="clip-path-25" transform="translate(-8.51 -8.84)"><polygon class="cls-5" points="20.94 61.91 36.54 61.91 36.54 82.79 20.94 82.79 20.94 61.91 20.94 61.91"/></clipPath><clipPath id="clip-path-26" transform="translate(-8.51 -8.84)"><polygon class="cls-1" points="20.94 82.79 36.54 82.79 36.54 61.91 20.94 61.91 20.94 82.79 20.94 82.79"/></clipPath><clipPath id="clip-path-27" transform="translate(-8.51 -8.84)"><polygon class="cls-2" points="0 167.25 177.12 167.25 177.12 107.97 0 107.97 0 167.25 0 167.25"/></clipPath><clipPath id="clip-path-31" transform="translate(-8.51 -8.84)"><rect class="cls-1" y="107.97" width="177.12" height="59.28"/></clipPath><clipPath id="clip-path-35" transform="translate(-8.51 -8.84)"><polygon class="cls-6" points="20.88 115.77 36.48 115.77 36.48 136.65 20.88 136.65 20.88 115.77 20.88 115.77"/></clipPath><clipPath id="clip-path-36" transform="translate(-8.51 -8.84)"><polygon class="cls-1" points="20.88 136.65 36.48 136.65 36.48 115.77 20.88 115.77 20.88 136.65 20.88 136.65"/></clipPath><clipPath id="clip-path-37" transform="translate(-8.51 -8.84)"><polygon class="cls-2" points="0 215.35 177.12 215.35 177.12 156.19 0 156.19 0 215.35 0 215.35"/></clipPath><clipPath id="clip-path-41" transform="translate(-8.51 -8.84)"><rect class="cls-1" y="156.19" width="177.12" height="59.16"/></clipPath><clipPath id="clip-path-45" transform="translate(-8.51 -8.84)"><polygon class="cls-7" points="20.88 163.87 36.48 163.87 36.48 184.75 20.88 184.75 20.88 163.87 20.88 163.87"/></clipPath><clipPath id="clip-path-46" transform="translate(-8.51 -8.84)"><polygon class="cls-1" points="20.88 184.75 36.48 184.75 36.48 163.87 20.88 163.87 20.88 184.75 20.88 184.75"/></clipPath></defs><g id="图层_2" data-name="图层 2"><g id="图层_1-2" data-name="图层 1"><g class="cls-8"><text class="cls-9" transform="translate(0.67 38.61)">M<tspan class="cls-10" x="14.41" y="0">i</tspan><tspan class="cls-11" x="18.61" y="0">c.</tspan><tspan class="cls-12" x="29.79" y="0"> </tspan></text></g><g class="cls-13"><g class="cls-8"><text class="cls-14" transform="translate(34.5 38.61)">1</text></g><g class="cls-13"><line class="cls-15" x1="56.11" y1="21.22" x2="156.52" y2="21.22"/><polygon class="cls-16" points="155.5 18.16 161.62 21.22 155.5 24.28 155.5 18.16 155.5 18.16"/><g class="cls-13"><line class="cls-17" x1="81.19" y1="21.6" x2="81.19" y2="7.72"/><polygon class="cls-18" points="85.69 9.22 81.19 0.22 76.69 9.22 85.69 9.22 85.69 9.22"/><g class="cls-13"><path class="cls-16" d="M88.84,35.55h1.65l-.4,1.71h1.67l-.19.86H89.89l-.66,2.74c-.12.47-.2.83-.24,1.07a4,4,0,0,0-.06.62A.74.74,0,0,0,89,43a.41.41,0,0,0,.35.15A1.12,1.12,0,0,0,90,43a3.36,3.36,0,0,0,.7-.68l.53.54A4.85,4.85,0,0,1,90,43.87a2.94,2.94,0,0,1-1.37.3,1.66,1.66,0,0,1-1.2-.4A1.47,1.47,0,0,1,87,42.66a4,4,0,0,1,.05-.61c0-.2.1-.52.2-1l.71-3H86.88l.13-.56a2.17,2.17,0,0,0,.72-.09,1,1,0,0,0,.42-.27,1.74,1.74,0,0,0,.32-.54,8.27,8.27,0,0,0,.37-1.11Z" transform="translate(-8.51 -8.84)"/><g class="cls-13"><path class="cls-16" d="M95.37,40.06H96c0,.32,0,.76,0,1.33v4.16A2.44,2.44,0,0,0,96,46a.55.55,0,0,0,.12.24.56.56,0,0,0,.23.14,2.39,2.39,0,0,0,.39.08l.62,0v.45h-4.3v-.45a7.08,7.08,0,0,0,.79-.07.88.88,0,0,0,.36-.13.45.45,0,0,0,.18-.24,1.49,1.49,0,0,0,.06-.5V42a.44.44,0,0,0-.08-.29.26.26,0,0,0-.21-.09.79.79,0,0,0-.35.11,8.48,8.48,0,0,0-.75.47l-.3-.53,2.6-1.56Z" transform="translate(-8.51 -8.84)"/><g class="cls-13"><g class="cls-8"><text class="cls-19" transform="translate(128.97 35.49)">T<tspan class="cls-20" x="6.95" y="0">i</tspan><tspan class="cls-21" x="10.19" y="0">m</tspan><tspan class="cls-22" x="21" y="0">e</tspan></text></g><g class="cls-13"><g class="cls-23"><g class="cls-24"><path class="cls-16" d="M28.52,22.49a3.89,3.89,0,0,0,2.76-1.13,3.52,3.52,0,0,0,1.1-2.67V12.63A3.48,3.48,0,0,0,31.28,10a3.94,3.94,0,0,0-5.52,0,3.48,3.48,0,0,0-1.1,2.66v6.06a3.81,3.81,0,0,0,3.86,3.8Z" transform="translate(-8.51 -8.84)"/><path class="cls-16" d="M35.36,16.64a.83.83,0,0,0-1.1,0,.73.73,0,0,0-.22.51v1.54a5.23,5.23,0,0,1-1.66,3.8,5.61,5.61,0,0,1-7.72,0A5,5,0,0,1,23,18.69V17.15a.74.74,0,0,0-.23-.51.84.84,0,0,0-.55-.21,1.14,1.14,0,0,0-.55.21c-.11.2-.22.3-.22.51v1.54a6.17,6.17,0,0,0,1.77,4.51,6.68,6.68,0,0,0,4.41,2.26V27H24.55a.84.84,0,0,0-.55.21.73.73,0,0,0-.22.51.75.75,0,0,0,.22.51.84.84,0,0,0,.55.21h7.83a.84.84,0,0,0,.55-.21.75.75,0,0,0,.22-.51.73.73,0,0,0-.22-.51.84.84,0,0,0-.55-.21H29.29V25.46a6.73,6.73,0,0,0,4.42-2.26,6.36,6.36,0,0,0,1.76-4.51V17.15c.11-.21,0-.31-.11-.51Z" transform="translate(-8.51 -8.84)"/></g></g></g></g></g></g></g></g></g><line class="cls-15" x1="56.77" y1="75.45" x2="157.18" y2="75.45"/><polygon class="cls-16" points="156.16 72.39 162.28 75.45 156.16 78.51 156.16 72.39 156.16 72.39"/><g class="cls-25"><line class="cls-17" x1="100.93" y1="75.35" x2="100.93" y2="61.47"/><polygon class="cls-18" points="105.43 62.97 100.93 53.97 96.43 62.97 105.43 62.97 105.43 62.97"/><g class="cls-25"><path class="cls-16" d="M108.59,89.31h1.65l-.4,1.72h1.66l-.18.86h-1.68L109,94.63c-.11.47-.19.83-.23,1.07a3.08,3.08,0,0,0-.07.62.74.74,0,0,0,.12.47.41.41,0,0,0,.34.15,1.2,1.2,0,0,0,.64-.22,3.63,3.63,0,0,0,.7-.68l.53.54a4.87,4.87,0,0,1-1.28,1.06,2.9,2.9,0,0,1-1.36.3,1.66,1.66,0,0,1-1.2-.4,1.47,1.47,0,0,1-.42-1.11,4,4,0,0,1,.05-.61c0-.2.1-.52.2-1l.7-3h-1.07l.13-.56a2.24,2.24,0,0,0,.73-.09,1,1,0,0,0,.41-.27,1.87,1.87,0,0,0,.33-.54,8,8,0,0,0,.37-1.12Z" transform="translate(-8.51 -8.84)"/><g class="cls-25"><path class="cls-16" d="M114.73,93.83a3,3,0,0,1,1.19.2,1.36,1.36,0,0,1,.67.53,1.46,1.46,0,0,1,.21.79,1.8,1.8,0,0,1-.15.73,3.18,3.18,0,0,1-.5.77c-.25.29-.65.7-1.22,1.24-.18.17-.39.38-.63.65a8.09,8.09,0,0,0-.58.7v0h1.77a1.9,1.9,0,0,0,.48,0,.44.44,0,0,0,.25-.16,1,1,0,0,0,.15-.35h.57l-.11,1.78h-4.56v-.33a9.92,9.92,0,0,1,1.57-2.27c.36-.42.63-.77.82-1a4.59,4.59,0,0,0,.42-.77,2.22,2.22,0,0,0,.14-.76,1.29,1.29,0,0,0-.25-.85.79.79,0,0,0-.66-.32c-.55,0-.89.39-1,1.17h-.89V94.37a8.09,8.09,0,0,1,1.31-.43,5,5,0,0,1,1-.11Z" transform="translate(-8.51 -8.84)"/><g class="cls-25"><g class="cls-26"><text class="cls-27" transform="translate(0 92.79)"><tspan class="cls-28">M</tspan><tspan class="cls-10" x="14.41" y="0">i</tspan><tspan class="cls-11" x="18.61" y="0">c.</tspan><tspan class="cls-29" x="29.79" y="0"> </tspan><tspan x="33.87" y="0">2</tspan></text></g><g class="cls-25"><g class="cls-26"><text class="cls-19" transform="translate(129.69 89.66)">T<tspan class="cls-20" x="6.95" y="0">i</tspan><tspan class="cls-21" x="10.19" y="0">m</tspan><tspan class="cls-22" x="21" y="0">e</tspan></text></g><g class="cls-25"><g class="cls-30"><g class="cls-31"><path class="cls-16" d="M29.3,76.59a3.89,3.89,0,0,0,2.76-1.13,3.48,3.48,0,0,0,1.1-2.66V66.74a3.5,3.5,0,0,0-1.1-2.67,3.94,3.94,0,0,0-5.52,0,3.5,3.5,0,0,0-1.1,2.67V72.8a3.48,3.48,0,0,0,1.1,2.66,3.53,3.53,0,0,0,2.76,1.13Z" transform="translate(-8.51 -8.84)"/><path class="cls-16" d="M36.14,70.74a.86.86,0,0,0-1.1,0,.78.78,0,0,0-.22.52V72.8a5.23,5.23,0,0,1-1.66,3.79,5.61,5.61,0,0,1-7.72,0,4.91,4.91,0,0,1-1.65-3.79V71.26a.79.79,0,0,0-.23-.52.89.89,0,0,0-.55-.2,1.23,1.23,0,0,0-.55.2c-.11.21-.22.31-.22.52V72.8A6.17,6.17,0,0,0,24,77.31a6.73,6.73,0,0,0,4.41,2.26v1.54H25.33a.89.89,0,0,0-.55.2.78.78,0,0,0-.22.52.75.75,0,0,0,.22.51.89.89,0,0,0,.55.2h7.83a.89.89,0,0,0,.55-.2.75.75,0,0,0,.22-.51.78.78,0,0,0-.22-.52.89.89,0,0,0-.55-.2H30.07V79.57a6.77,6.77,0,0,0,4.42-2.26,6.36,6.36,0,0,0,1.76-4.51V71.26c.11-.21,0-.31-.11-.52Z" transform="translate(-8.51 -8.84)"/></g></g></g></g></g></g></g></g><line class="cls-15" x1="56.83" y1="129.2" x2="157.24" y2="129.2"/><polygon class="cls-16" points="156.22 126.14 162.34 129.2 156.22 132.26 156.22 126.14 156.22 126.14"/><g class="cls-32"><line class="cls-17" x1="86.83" y1="129.58" x2="86.83" y2="115.7"/><polygon class="cls-18" points="91.33 117.2 86.83 108.2 82.33 117.2 91.33 117.2 91.33 117.2"/><g class="cls-32"><path class="cls-16" d="M94.56,143.54h1.65l-.4,1.72h1.67l-.19.85H95.61L95,148.85c-.12.47-.19.83-.24,1.08a3.89,3.89,0,0,0-.06.62.83.83,0,0,0,.11.47.42.42,0,0,0,.35.14,1.18,1.18,0,0,0,.63-.21,3.64,3.64,0,0,0,.7-.68l.53.54a4.7,4.7,0,0,1-1.27,1.06,2.94,2.94,0,0,1-1.37.3,1.66,1.66,0,0,1-1.2-.41,1.43,1.43,0,0,1-.42-1.1,4.1,4.1,0,0,1,.05-.62c0-.19.1-.51.2-.95l.71-3H92.6l.13-.55a2.17,2.17,0,0,0,.72-.09,1,1,0,0,0,.42-.27,1.87,1.87,0,0,0,.32-.54,8.52,8.52,0,0,0,.37-1.12Z" transform="translate(-8.51 -8.84)"/><g class="cls-32"><path class="cls-16" d="M100.72,148.06a2.64,2.64,0,0,1,1.5.38,1.22,1.22,0,0,1,.57,1.07,1.57,1.57,0,0,1-.34,1,2.9,2.9,0,0,1-1.1.77v.05a2,2,0,0,1,1.14.58,1.57,1.57,0,0,1,.42,1.11,1.87,1.87,0,0,1-.28,1,1.83,1.83,0,0,1-.85.71,3.41,3.41,0,0,1-1.39.26,5.88,5.88,0,0,1-1.11-.11,3.86,3.86,0,0,1-.94-.28v-1.25h.89a1.79,1.79,0,0,0,.41.82,1,1,0,0,0,.69.26c.71,0,1.06-.44,1.06-1.31a1.33,1.33,0,0,0-.37-1,1.61,1.61,0,0,0-1.13-.35H99.5v-.56a2.17,2.17,0,0,0,1.31-.41,1.32,1.32,0,0,0,.45-1.07,1.34,1.34,0,0,0-.22-.84.79.79,0,0,0-.66-.28.88.88,0,0,0-.68.3,1.75,1.75,0,0,0-.37.88h-.9V148.6a5.87,5.87,0,0,1,2.29-.54Z" transform="translate(-8.51 -8.84)"/><g class="cls-32"><g class="cls-33"><text class="cls-27" transform="translate(0 146.6)"><tspan class="cls-28">M</tspan><tspan class="cls-10" x="14.41" y="0">i</tspan><tspan class="cls-11" x="18.61" y="0">c.</tspan><tspan class="cls-29" x="29.79" y="0"> </tspan><tspan x="33.87" y="0">3</tspan></text></g><g class="cls-32"><g class="cls-33"><text class="cls-19" transform="translate(129.69 143.48)">T<tspan class="cls-20" x="6.95" y="0">i</tspan><tspan class="cls-21" x="10.19" y="0">m</tspan><tspan class="cls-22" x="21" y="0">e</tspan></text></g><g class="cls-32"><g class="cls-34"><g class="cls-35"><path class="cls-16" d="M29.24,130.46A3.89,3.89,0,0,0,32,129.33a3.5,3.5,0,0,0,1.1-2.67v-6a3.5,3.5,0,0,0-1.1-2.67,3.94,3.94,0,0,0-5.52,0,3.5,3.5,0,0,0-1.1,2.67v6a3.81,3.81,0,0,0,3.86,3.8Z" transform="translate(-8.51 -8.84)"/><path class="cls-16" d="M36.08,124.61a.86.86,0,0,0-1.1,0,.75.75,0,0,0-.22.51v1.54a5.23,5.23,0,0,1-1.66,3.8,5.61,5.61,0,0,1-7.72,0,5,5,0,0,1-1.65-3.8v-1.54a.76.76,0,0,0-.23-.51.89.89,0,0,0-.55-.2,1.23,1.23,0,0,0-.55.2c-.11.21-.22.31-.22.51v1.54A6.17,6.17,0,0,0,24,131.18a6.77,6.77,0,0,0,4.41,2.26V135H25.27a.89.89,0,0,0-.55.2.75.75,0,0,0-.22.51.78.78,0,0,0,.22.52.89.89,0,0,0,.55.2H33.1a.89.89,0,0,0,.55-.2.78.78,0,0,0,.22-.52.75.75,0,0,0-.22-.51.89.89,0,0,0-.55-.2H30v-1.54a6.82,6.82,0,0,0,4.42-2.26,6.38,6.38,0,0,0,1.76-4.52v-1.54c.11-.2,0-.3-.11-.51Z" transform="translate(-8.51 -8.84)"/></g></g></g></g></g></g></g></g><line class="cls-15" x1="56.83" y1="177.29" x2="157.24" y2="177.29"/><polygon class="cls-16" points="156.22 174.23 162.34 177.29 156.22 180.35 156.22 174.23 156.22 174.23"/><g class="cls-36"><line class="cls-17" x1="116.35" y1="177.79" x2="116.35" y2="163.91"/><polygon class="cls-18" points="120.85 165.41 116.35 156.41 111.85 165.41 120.85 165.41 120.85 165.41"/><g class="cls-36"><path class="cls-16" d="M124.06,191.66h1.64l-.4,1.72H127l-.19.85H125.1l-.66,2.75c-.11.47-.19.82-.24,1.07a3.89,3.89,0,0,0-.06.62.83.83,0,0,0,.11.47.43.43,0,0,0,.35.15,1.2,1.2,0,0,0,.63-.22,3.64,3.64,0,0,0,.7-.68l.53.54a4.7,4.7,0,0,1-1.27,1.06,2.94,2.94,0,0,1-1.37.3,1.7,1.7,0,0,1-1.2-.4,1.47,1.47,0,0,1-.42-1.11,4.1,4.1,0,0,1,0-.62c0-.19.1-.51.2-.95l.71-3h-1.07l.13-.55a2.17,2.17,0,0,0,.72-.09,1,1,0,0,0,.42-.27,2.11,2.11,0,0,0,.33-.54c.1-.24.22-.61.37-1.12Z" transform="translate(-8.51 -8.84)"/><g class="cls-36"><path class="cls-16" d="M130.12,197.81l-1.7,2.56v.09h1.7v-1.14c0-.48,0-1,0-1.51Zm.36-1.59h1.12v4.24h.15a1,1,0,0,0,.35,0,.38.38,0,0,0,.17-.12,1,1,0,0,0,.14-.32h.52l-.06,1.1H131.6v.75a2.1,2.1,0,0,0,0,.52.48.48,0,0,0,.14.23,1.06,1.06,0,0,0,.36.15v.33h-2.55v-.33a.87.87,0,0,0,.36-.16.45.45,0,0,0,.14-.23,3,3,0,0,0,0-.51v-.75h-2.67v-.53l3-4.33Z" transform="translate(-8.51 -8.84)"/><g class="cls-36"><g class="cls-37"><text class="cls-27" transform="translate(0 194.73)"><tspan class="cls-28">M</tspan><tspan class="cls-10" x="14.41" y="0">i</tspan><tspan class="cls-11" x="18.61" y="0">c.</tspan><tspan class="cls-29" x="29.79" y="0"> </tspan><tspan x="33.87" y="0">4</tspan></text></g><g class="cls-36"><g class="cls-37"><text class="cls-19" transform="translate(129.69 191.6)">T<tspan class="cls-20" x="6.95" y="0">i</tspan><tspan class="cls-21" x="10.19" y="0">m</tspan><tspan class="cls-22" x="21" y="0">e</tspan></text></g><g class="cls-36"><g class="cls-38"><g class="cls-39"><path class="cls-16" d="M29.24,178.55A3.93,3.93,0,0,0,32,177.43a3.52,3.52,0,0,0,1.1-2.67V168.7A3.52,3.52,0,0,0,32,166a4,4,0,0,0-5.52,0,3.52,3.52,0,0,0-1.1,2.67v6.06a3.79,3.79,0,0,0,3.86,3.79Z" transform="translate(-8.51 -8.84)"/><path class="cls-16" d="M36.08,172.7a.86.86,0,0,0-1.1,0,.78.78,0,0,0-.22.52v1.54a5.21,5.21,0,0,1-1.66,3.79,5.61,5.61,0,0,1-7.72,0,4.91,4.91,0,0,1-1.65-3.79v-1.54a.79.79,0,0,0-.23-.52.89.89,0,0,0-.55-.2,1.23,1.23,0,0,0-.55.2c-.11.21-.22.31-.22.52v1.54A6.17,6.17,0,0,0,24,179.27a6.73,6.73,0,0,0,4.41,2.26v1.54H25.27a.89.89,0,0,0-.55.2.78.78,0,0,0-.22.52.75.75,0,0,0,.22.51.89.89,0,0,0,.55.21H33.1a.89.89,0,0,0,.55-.21.75.75,0,0,0,.22-.51.78.78,0,0,0-.22-.52.89.89,0,0,0-.55-.2H30v-1.54a6.77,6.77,0,0,0,4.42-2.26,6.36,6.36,0,0,0,1.76-4.51v-1.54c.11-.21,0-.31-.11-.52Z" transform="translate(-8.51 -8.84)"/></g></g></g></g></g></g></g></g></g></g></svg>