<svg xmlns="http://www.w3.org/2000/svg" xmlns:xlink="http://www.w3.org/1999/xlink" viewBox="0 0 387.37 363.08"><defs><style>.cls-1{fill:none;stroke:#00000a;stroke-width:2px;}.cls-1,.cls-2,.cls-3{stroke-miterlimit:10;}.cls-17,.cls-2,.cls-3{fill:#7f7f7f;}.cls-2,.cls-3{stroke:#000;stroke-width:0.1px;}.cls-17,.cls-18,.cls-19,.cls-20,.cls-21,.cls-22,.cls-23,.cls-24,.cls-25,.cls-26,.cls-27,.cls-28,.cls-29,.cls-3,.cls-30,.cls-31{fill-rule:evenodd;}.cls-23,.cls-4{fill:#363634;}.cls-22,.cls-5{fill:#666;}.cls-6{fill:#deb068;}.cls-7{fill:#f1c989;}.cls-8{fill:#ebbe73;}.cls-9{fill:#fff;}.cls-10{fill:#998376;}.cls-11{fill:#8a766a;}.cls-12{fill:#6d5041;}.cls-13{fill:#7f6d62;}.cls-14{fill:#f7e8d5;}.cls-15{fill:#474646;}.cls-16{fill:#292623;}.cls-18{fill:#f1ece6;}.cls-19{fill:#bcb5ad;}.cls-20{fill:#a39a8f;}.cls-21{fill:#e39400;}.cls-24{fill:#575756;}.cls-25{fill:#fc0;}.cls-26{fill:url(#GradientFill_1);}.cls-27{fill:url(#GradientFill_1-2);}.cls-28{fill:#4c4c4c;}.cls-29{fill:url(#GradientFill_1-3);}.cls-30{fill:url(#GradientFill_1-4);}.cls-31{fill:url(#GradientFill_1-5);}</style><linearGradient id="GradientFill_1" x1="1179.93" y1="124.27" x2="1185.41" y2="133.04" gradientTransform="translate(-826.78 102.8)" gradientUnits="userSpaceOnUse"><stop offset="0" stop-color="#fbc800"/><stop offset="1" stop-color="#fff"/></linearGradient><linearGradient id="GradientFill_1-2" x1="1057.88" y1="124.27" x2="1063.36" y2="133.04" xlink:href="#GradientFill_1"/><linearGradient id="GradientFill_1-3" x1="1179.25" y1="194.03" x2="1184.73" y2="202.8" xlink:href="#GradientFill_1"/><linearGradient id="GradientFill_1-4" x1="1058.2" y1="194.03" x2="1063.68" y2="202.8" xlink:href="#GradientFill_1"/><linearGradient id="GradientFill_1-5" x1="1109.93" y1="148.88" x2="1132.4" y2="184.83" xlink:href="#GradientFill_1"/></defs><title>资源 5</title><g id="图层_2" data-name="图层 2"><g id="图层_1-2" data-name="图层 1"><path class="cls-1" d="M18.65,13C120.78,60.15,263.74,148.9,308.11,300.09q3.48,11.82,6.15,24.29"/><path class="cls-2" d="M24.32,23.91a1.63,1.63,0,0,1-.81-.24L16.7,19.75a2.89,2.89,0,0,1-1.41-2.25V8.28a1,1,0,0,1,1.05-1.14,1.6,1.6,0,0,1,.81.24L24,11.3a2.89,2.89,0,0,1,1.41,2.25v9.22A1.06,1.06,0,0,1,24.32,23.91Zm-8-15.85c-.06,0-.14,0-.14.22V17.5A2,2,0,0,0,17.15,19L24,22.87a.8.8,0,0,0,.35.12c.06,0,.14,0,.14-.22V13.55a2,2,0,0,0-.95-1.46L16.7,8.18A.68.68,0,0,0,16.34,8.06Z"/><path class="cls-2" d="M17.8,27.57a1.6,1.6,0,0,1-.81-.24l-6.82-3.91a2.89,2.89,0,0,1-1.41-2.25V12a1.06,1.06,0,0,1,1.06-1.14,1.63,1.63,0,0,1,.81.24L17.44,15a2.89,2.89,0,0,1,1.41,2.25v9.22A1,1,0,0,1,17.8,27.57Zm-8-15.84c-.06,0-.14,0-.14.22v9.22a2,2,0,0,0,1,1.45l6.81,3.92a.79.79,0,0,0,.36.12c.06,0,.13,0,.13-.22V17.22A2,2,0,0,0,17,15.76l-6.82-3.91A.68.68,0,0,0,9.82,11.73Z"/><path class="cls-3" d="M25.64,19.85l-6.83-1.77a6,6,0,0,0-3-.06L8.51,19.87a5.18,5.18,0,0,1-3.82-.41c-1.06-.62-1.52-1.64-.7-2.25l4.58-3.43c.63-.47.42-1.22-.1-1.79L4.19,7.37a1.34,1.34,0,0,1,.44-2.23,4.67,4.67,0,0,1,3.78-.27L15.2,7.42a4.48,4.48,0,0,0,3,.06l7.3-2.68a4.71,4.71,0,0,1,3.82.41c1.05.62,1.35,1.56.7,2.25l-4.61,4.86a1.14,1.14,0,0,0,.11,1.79l4.32,3.24c.88.67.55,1.65-.44,2.23A5.12,5.12,0,0,1,25.64,19.85Z"/><path class="cls-3" d="M25.64,19.48l-6.83-2.62a4.42,4.42,0,0,0-3-.06L8.51,19.51a4.8,4.8,0,0,1-3.82-.41c-1.06-.63-1.4-1.6-.7-2.26l4.58-4.28a1.14,1.14,0,0,0-.1-1.79L4.19,7c-.81-.7-.55-1.64.44-2.23a4.78,4.78,0,0,1,3.78-.26L15.2,6.8a4.81,4.81,0,0,0,3,.06l7.3-2.41a4.85,4.85,0,0,1,3.82.41c1.05.62,1.45,1.61.7,2.25l-4.6,4a1.15,1.15,0,0,0,.1,1.79L29.86,17c.75.71.55,1.65-.44,2.23A4.64,4.64,0,0,1,25.64,19.48Z"/><path class="cls-3" d="M25.4,17.94l-7.62-3.8a1.77,1.77,0,0,0-1.32,0L8.71,17.92A2,2,0,0,1,7,17.74c-.46-.27-.61-.7-.3-1l6.4-5c.27-.21.39,0,.12-.25L6.64,7.06c-.42-.28-.24-.72.19-1A2.09,2.09,0,0,1,8.49,6L16.2,9.73a1.85,1.85,0,0,0,1.33,0L25.45,6a2,2,0,0,1,1.68.18c.46.27.63.7.31,1l-6.75,4.48c-.3.2,4.67,3.44,6.56,5.24.33.31.24.72-.19,1A2,2,0,0,1,25.4,17.94Z"/><path class="cls-3" d="M28.28,6.15c.56,0,1-.28,1-.62s-.44-.62-1-.62-1,.28-1,.62S27.73,6.15,28.28,6.15Z"/><path class="cls-3" d="M28.28,3.77a.85.85,0,0,0-.77.36h0V5.49c0,.28.37.51.81.51s.82-.23.82-.51V4.13h0A.85.85,0,0,0,28.28,3.77Z"/><path class="cls-3" d="M28.28,3.31a1.05,1.05,0,0,0-1,.44h0v.18c0,.34.44.62,1,.62s1-.28,1-.62V3.75h0A1.06,1.06,0,0,0,28.28,3.31Z"/><path class="cls-3" d="M28.28,4.32c.56,0,1-.28,1-.62s-.44-.62-1-.62-1,.28-1,.62S27.73,4.32,28.28,4.32Z"/><path class="cls-3" d="M28.29,4c.35,0,.65-.19.65-.41s-.3-.4-.65-.4-.65.18-.65.4S27.93,4,28.29,4Z"/><path class="cls-3" d="M23.1.26c1.63,1,3.31,2.39,5.13,3.28l1.22.6c3.73.47,4.32,1.2,4.55,2.41,0,.24-.41.42-.63.29L26.74,3c-4.07-.58-4.38-1.41-4.27-2.46A.43.43,0,0,1,23.1.26Z"/><path class="cls-3" d="M23.14.11l5.13,3.28,1.16.67c3.73.46,4.38,1.13,4.61,2.33.05.25-.41.42-.62.3L26.78,2.87C22.71,2.29,22.4,1.45,22.51.4A.42.42,0,0,1,23.14.11Z"/><path class="cls-3" d="M28.3,2.84c.59,0,1.07.3,1.07.67s-.48.67-1.07.67-1.08-.3-1.08-.67S27.7,2.84,28.3,2.84Z"/><path class="cls-3" d="M28.3,2.2c-.6,0-1.08.8-1.08,1.17S27.7,4,28.3,4s1.07-.3,1.07-.67S28.89,2.2,28.3,2.2Z"/><path class="cls-3" d="M5.81,6.15c.55,0,1-.28,1-.62s-.45-.62-1-.62-1,.28-1,.62S5.26,6.15,5.81,6.15Z"/><path class="cls-3" d="M5.81,3.77a.85.85,0,0,1,.78.36h0c0,.16,0,1.29,0,1.36,0,.28-.37.51-.82.51S5,5.77,5,5.49V4.13H5A.87.87,0,0,1,5.81,3.77Z"/><path class="cls-3" d="M5.81,3.31a1.06,1.06,0,0,1,1,.44h0v.18c0,.34-.45.62-1,.62s-1-.28-1-.62V3.75h.05A1,1,0,0,1,5.81,3.31Z"/><path class="cls-3" d="M5.81,4.32c.55,0,1-.28,1-.62s-.45-.62-1-.62-1,.28-1,.62S5.26,4.32,5.81,4.32Z"/><path class="cls-3" d="M5.81,4c.36,0,.65-.19.65-.41s-.29-.4-.65-.4-.65.18-.65.4S5.45,4,5.81,4Z"/><path class="cls-3" d="M11,.26c-1.63,1-3.32,2.39-5.13,3.28l-1.23.6C.92,4.61.33,5.34.09,6.55c0,.24.42.42.63.29L7.36,3c4.07-.58,4.37-1.41,4.26-2.46A.42.42,0,0,0,11,.26Z"/><path class="cls-3" d="M11,.11,5.82,3.39l-1.16.67C.94,4.52.28,5.19.05,6.39c0,.25.42.42.63.3L7.32,2.87c4.07-.58,4.37-1.42,4.26-2.47A.42.42,0,0,0,11,.11Z"/><path class="cls-3" d="M5.8,2.84c-.6,0-1.08.3-1.08.67s.48.67,1.08.67,1.08-.3,1.08-.67S6.39,2.84,5.8,2.84Z"/><path class="cls-3" d="M5.8,2.2c-.6,0-1.08.8-1.08,1.17S5.2,4,5.8,4s1.08-.3,1.08-.67S6.39,2.2,5.8,2.2Z"/><path class="cls-3" d="M6.6,17.26a.43.43,0,0,1,.13-.19l6.4-4.51c.29-.21.22-.55-.05-.79h0l.07,0c.28-.2.39,0,.12-.25L6.64,7.06a.58.58,0,0,1-.2-.22.85.85,0,0,1,.39-.44,2.09,2.09,0,0,1,1.66-.11l7.71,4.27a1.74,1.74,0,0,0,1.33,0l7.92-4.31a1.93,1.93,0,0,1,1.68.18,1,1,0,0,1,.44.48.46.46,0,0,1-.13.19l-6.75,4.48c-.07.05.11.23.45.5l-.45.34c-.28.21,4.67,2.92,6.56,4.72a.66.66,0,0,1,.17.25.76.76,0,0,1-.36.4,2,2,0,0,1-1.66.12l-7.62-3.8a1.77,1.77,0,0,0-1.32,0L8.71,17.92A2,2,0,0,1,7,17.74.93.93,0,0,1,6.6,17.26Z"/><path class="cls-3" d="M28.25,19.09c.55,0,1-.28,1-.62s-.45-.62-1-.62-1,.28-1,.62S27.7,19.09,28.25,19.09Z"/><path class="cls-3" d="M28.25,16.71a.85.85,0,0,1,.78.36h0c0,.16,0,1.29,0,1.36,0,.28-.37.51-.82.51s-.81-.23-.81-.51V17.07h0A.87.87,0,0,1,28.25,16.71Z"/><path class="cls-3" d="M28.25,16.25a1.06,1.06,0,0,1,1,.44h0v.18c0,.34-.45.62-1,.62s-1-.28-1-.62v-.18h.05A1,1,0,0,1,28.25,16.25Z"/><path class="cls-3" d="M28.25,17.26c.55,0,1-.28,1-.62s-.45-.62-1-.62-1,.28-1,.62S27.7,17.26,28.25,17.26Z"/><path class="cls-3" d="M28.25,17c.36,0,.65-.19.65-.41s-.29-.4-.65-.4-.65.18-.65.4S27.89,17,28.25,17Z"/><path class="cls-3" d="M33.44,13.2c-1.63,1-3.32,2.39-5.13,3.28l-1.23.6c-3.72.47-4.31,1.2-4.55,2.41,0,.24.42.42.63.29L29.8,16c4.07-.58,4.37-1.41,4.26-2.46A.42.42,0,0,0,33.44,13.2Z"/><path class="cls-3" d="M33.4,13.05l-5.14,3.28L27.1,17c-3.72.46-4.38,1.13-4.61,2.33,0,.25.42.42.63.3l6.64-3.82c4.07-.58,4.37-1.42,4.26-2.47A.42.42,0,0,0,33.4,13.05Z"/><path class="cls-3" d="M28.24,15.78c-.6,0-1.08.3-1.08.67s.48.67,1.08.67,1.08-.3,1.08-.67S28.83,15.78,28.24,15.78Z"/><path class="cls-3" d="M28.24,15.14c-.6,0-1.08.8-1.08,1.17s.48.67,1.08.67,1.08-.3,1.08-.67S28.83,15.14,28.24,15.14Z"/><path class="cls-3" d="M5.91,19.09c.55,0,1-.28,1-.62s-.45-.62-1-.62-1,.28-1,.62S5.36,19.09,5.91,19.09Z"/><path class="cls-3" d="M5.91,16.71a.85.85,0,0,0-.77.36h0v1.36c0,.28.36.51.81.51s.82-.23.82-.51V17.07h0A.85.85,0,0,0,5.91,16.71Z"/><path class="cls-3" d="M5.91,16.25a1,1,0,0,0-1,.44h0v.13s0,0,0,.05c0,.34.45.62,1,.62s1-.28,1-.62v-.18h0A1.06,1.06,0,0,0,5.91,16.25Z"/><path class="cls-3" d="M5.91,17.26c.55,0,1-.28,1-.62s-.45-.62-1-.62-1,.28-1,.62S5.36,17.26,5.91,17.26Z"/><path class="cls-3" d="M5.92,17c.35,0,.65-.19.65-.41s-.3-.4-.65-.4-.65.18-.65.4S5.56,17,5.92,17Z"/><path class="cls-3" d="M.73,13.2c1.63,1,3.31,2.39,5.13,3.28l1.22.6c3.73.47,4.32,1.2,4.55,2.41,0,.24-.41.42-.63.29L4.37,16C.3,15.38,0,14.55.1,13.5A.43.43,0,0,1,.73,13.2Z"/><path class="cls-3" d="M.77,13.05,5.9,16.33,7.06,17c3.73.46,4.38,1.13,4.61,2.33.05.25-.41.42-.63.3L4.41,15.81C.34,15.23,0,14.39.14,13.34A.42.42,0,0,1,.77,13.05Z"/><path class="cls-3" d="M5.93,15.78c.59,0,1.07.3,1.07.67s-.48.67-1.07.67-1.08-.3-1.08-.67S5.33,15.78,5.93,15.78Z"/><path class="cls-3" d="M5.93,15.14c-.6,0-1.08.8-1.08,1.17s.48.67,1.08.67S7,16.68,7,16.31,6.52,15.14,5.93,15.14Z"/><path class="cls-3" d="M13,8.14a6.84,6.84,0,0,0-2.39,1.53l2.69,1.8c.27.24.35.62.05.78l-2.78,1.49v.65a8.07,8.07,0,0,0,2.32,1.5l3.62-1.78a1.77,1.77,0,0,1,1.32,0l3.43,1.71a6.78,6.78,0,0,0,2.2-1.47v-.56c-1.56-1.14-2.88-2.1-2.72-2.21l2.78-1.85a6.69,6.69,0,0,0-2.53-1.64L17.53,9.75a1.85,1.85,0,0,1-1.33,0Z"/><path class="cls-3" d="M17,6.85c-4.11,0-7.45,2.07-7.45,4.63s3.34,4.63,7.45,4.63,7.46-2.07,7.46-4.63S21.09,6.85,17,6.85Z"/><path class="cls-3" d="M17,7.49c-2.75,0-5,1.39-5,3.1s2.23,3.09,5,3.09,5-1.38,5-3.09S19.73,7.49,17,7.49Z"/><path class="cls-3" d="M17,7.9c-2.64,0-4.8,1.28-5,2.89.17,1.62,2.33,2.89,5,2.89s4.81-1.27,5-2.89C21.78,9.18,19.62,7.9,17,7.9Z"/><path class="cls-3" d="M17,8.07c-2.28,0-4.13,1.15-4.13,2.57S14.69,13.2,17,13.2s4.14-1.15,4.14-2.56S19.26,8.07,17,8.07Z"/><path class="cls-3" d="M17,7.79c-2.28,0-4.13,1.15-4.13,2.56s1.85,2.57,4.13,2.57,4.14-1.15,4.14-2.57S19.26,7.79,17,7.79Z"/><path class="cls-2" d="M81.65,56.48a2.63,2.63,0,0,1-1.31-.39L69.42,49.81a4.64,4.64,0,0,1-2.26-3.61V31.42a1.68,1.68,0,0,1,1.69-1.83,2.59,2.59,0,0,1,1.3.39l10.93,6.28a4.66,4.66,0,0,1,2.26,3.61V54.65A1.69,1.69,0,0,1,81.65,56.48ZM68.85,31.06c-.09,0-.22,0-.22.36V46.2a3.21,3.21,0,0,0,1.52,2.34l10.93,6.28a1.26,1.26,0,0,0,.57.19c.09,0,.22,0,.22-.36V39.87a3.23,3.23,0,0,0-1.53-2.34L69.42,31.25A1.26,1.26,0,0,0,68.85,31.06Z"/><path class="cls-2" d="M71.18,62.36a2.59,2.59,0,0,1-1.3-.39L59,55.7a4.68,4.68,0,0,1-2.26-3.62V37.3a1.69,1.69,0,0,1,1.69-1.82,2.71,2.71,0,0,1,1.31.38l10.92,6.28a4.66,4.66,0,0,1,2.26,3.62V60.53A1.68,1.68,0,0,1,71.18,62.36ZM58.38,37c-.09,0-.22,0-.22.35V52.08a3.2,3.2,0,0,0,1.53,2.34L70.61,60.7a1.26,1.26,0,0,0,.57.19c.1,0,.22,0,.22-.36V45.76a3.18,3.18,0,0,0-1.52-2.34L59,37.14A1.14,1.14,0,0,0,58.38,37Z"/><path class="cls-3" d="M83.76,50l-11-2.83A9.4,9.4,0,0,0,68,47L56.28,50a8.34,8.34,0,0,1-6.12-.65c-1.69-1-2.43-2.64-1.13-3.61l7.36-5.5c1-.75.67-2-.17-2.87L49.36,30c-1.1-1.18-.88-2.64.7-3.57A7.43,7.43,0,0,1,56.12,26L67,30a7.19,7.19,0,0,0,4.86.09l11.7-4.3a7.59,7.59,0,0,1,6.12.66c1.69,1,2.16,2.51,1.13,3.61l-7.39,7.8a1.81,1.81,0,0,0,.17,2.86L90.52,46c1.42,1.06.88,2.64-.7,3.58A8.3,8.3,0,0,1,83.76,50Z"/><path class="cls-3" d="M83.76,49.38l-11-4.2a7.16,7.16,0,0,0-4.85-.1L56.28,49.42a7.65,7.65,0,0,1-6.12-.66c-1.69-1-2.25-2.56-1.13-3.61l7.36-6.87a1.84,1.84,0,0,0-.17-2.87l-6.86-6c-1.3-1.13-.88-2.64.7-3.57a7.65,7.65,0,0,1,6.06-.42L67,29a7.64,7.64,0,0,0,4.86.09l11.7-3.85a7.76,7.76,0,0,1,6.12.66c1.69,1,2.33,2.57,1.13,3.61l-7.39,6.39a1.83,1.83,0,0,0,.17,2.86l6.92,6.59c1.2,1.13.88,2.64-.7,3.57A7.44,7.44,0,0,1,83.76,49.38Z"/><path class="cls-3" d="M83.37,46.91l-12.21-6.1a2.9,2.9,0,0,0-2.13,0L56.61,46.88a3.17,3.17,0,0,1-2.69-.29c-.74-.44-1-1.12-.49-1.58l10.26-8.07c.44-.35.64,0,.2-.41l-10.6-7.07c-.67-.45-.38-1.16.31-1.57a3.35,3.35,0,0,1,2.66-.18l12.36,6a2.9,2.9,0,0,0,2.13,0L83.46,27.7a3.11,3.11,0,0,1,2.68.29c.75.43,1,1.12.5,1.58l-10.83,7.2c-.47.31,7.5,5.51,10.53,8.38.52.5.38,1.16-.31,1.57A3.29,3.29,0,0,1,83.37,46.91Z"/><path class="cls-3" d="M88,28c.88,0,1.6-.45,1.6-1s-.72-1-1.6-1-1.6.45-1.6,1S87.12,28,88,28Z"/><path class="cls-3" d="M88,24.19a1.39,1.39,0,0,0-1.25.57h0c0,.26,0,2.07,0,2.19,0,.44.59.81,1.31.81s1.31-.36,1.31-.81V24.76h-.06A1.39,1.39,0,0,0,88,24.19Z"/><path class="cls-3" d="M88,23.45a1.69,1.69,0,0,0-1.53.7H86.4v.29c0,.55.72,1,1.6,1s1.6-.45,1.6-1v-.29h-.07A1.69,1.69,0,0,0,88,23.45Z"/><path class="cls-3" d="M88,25.07c.88,0,1.6-.45,1.6-1s-.72-1-1.6-1-1.6.45-1.6,1S87.12,25.07,88,25.07Z"/><path class="cls-3" d="M88,24.56c.58,0,1-.29,1-.64s-.46-.65-1-.65-1,.29-1,.65S87.43,24.56,88,24.56Z"/><path class="cls-3" d="M79.69,18.56c2.6,1.58,5.31,3.84,8.22,5.26l2,1c6,.75,6.93,1.93,7.3,3.86.07.39-.66.67-1,.47L85.52,23c-6.52-.92-7-2.26-6.84-3.95A.69.69,0,0,1,79.69,18.56Z"/><path class="cls-3" d="M79.75,18.31,88,23.58l1.86,1.07c6,.75,7,1.82,7.39,3.74.08.4-.66.68-1,.48L85.58,22.74c-6.52-.92-7-2.27-6.83-3.95A.68.68,0,0,1,79.75,18.31Z"/><path class="cls-3" d="M88,22.69c1,0,1.73.48,1.73,1.08S89,24.84,88,24.84s-1.73-.48-1.73-1.07S87.07,22.69,88,22.69Z"/><path class="cls-3" d="M88,21.68c-1,0-1.73,1.28-1.73,1.87s.78,1.07,1.73,1.07,1.73-.48,1.73-1.07S89,21.68,88,21.68Z"/><path class="cls-3" d="M52,28c.88,0,1.6-.45,1.6-1s-.72-1-1.6-1-1.6.45-1.6,1S51.08,28,52,28Z"/><path class="cls-3" d="M52,24.19a1.39,1.39,0,0,1,1.25.57h0c0,.26,0,2.07,0,2.19,0,.44-.59.81-1.31.81s-1.3-.36-1.3-.81V24.76h.05A1.39,1.39,0,0,1,52,24.19Z"/><path class="cls-3" d="M52,23.45a1.69,1.69,0,0,1,1.53.7h.07v.29c0,.55-.71,1-1.6,1s-1.6-.45-1.6-1v-.29h.07A1.69,1.69,0,0,1,52,23.45Z"/><path class="cls-3" d="M52,25.07c.88,0,1.6-.45,1.6-1s-.72-1-1.6-1-1.6.45-1.6,1S51.08,25.07,52,25.07Z"/><path class="cls-3" d="M52,24.56c.57,0,1-.29,1-.64s-.47-.65-1-.65-1,.29-1,.65S51.38,24.56,52,24.56Z"/><path class="cls-3" d="M60.28,18.56c-2.61,1.58-5.32,3.84-8.23,5.26l-2,1c-6,.75-6.93,1.93-7.3,3.86-.07.39.66.67,1,.47L54.44,23c6.53-.92,7-2.26,6.84-3.95A.69.69,0,0,0,60.28,18.56Z"/><path class="cls-3" d="M60.21,18.31,52,23.58l-1.86,1.07c-6,.75-7,1.82-7.39,3.74-.08.4.66.68,1,.48l10.65-6.13c6.52-.92,7-2.27,6.84-3.95A.7.7,0,0,0,60.21,18.31Z"/><path class="cls-3" d="M51.94,22.69c-.95,0-1.73.48-1.73,1.08s.78,1.07,1.73,1.07,1.73-.48,1.73-1.07S52.9,22.69,51.94,22.69Z"/><path class="cls-3" d="M51.94,21.68c-.95,0-1.73,1.28-1.73,1.87s.78,1.07,1.73,1.07,1.73-.48,1.73-1.07S52.9,21.68,51.94,21.68Z"/><path class="cls-3" d="M53.22,45.82a.82.82,0,0,1,.21-.3l10.26-7.24c.47-.33.36-.88-.07-1.26l0,0,.1-.06c.46-.32.64,0,.2-.41l-10.6-7.07a.94.94,0,0,1-.32-.35,1.39,1.39,0,0,1,.63-.7,3.35,3.35,0,0,1,2.66-.19l12.36,6.86a2.84,2.84,0,0,0,2.13,0l12.71-6.91a3.05,3.05,0,0,1,2.68.29,1.59,1.59,0,0,1,.72.77.78.78,0,0,1-.22.3l-10.83,7.2c-.1.06.19.35.73.8l-.73.54c-.44.33,7.5,4.68,10.53,7.56a1,1,0,0,1,.27.41,1.25,1.25,0,0,1-.58.64,3.29,3.29,0,0,1-2.66.19l-12.21-6.1a2.9,2.9,0,0,0-2.13,0L56.61,46.88a3.17,3.17,0,0,1-2.69-.29A1.54,1.54,0,0,1,53.22,45.82Z"/><path class="cls-3" d="M88,48.76c.88,0,1.6-.45,1.6-1s-.72-1-1.6-1-1.61.45-1.61,1S87.06,48.76,88,48.76Z"/><path class="cls-3" d="M88,44.94a1.38,1.38,0,0,1,1.24.57h.06c0,.26,0,2.07,0,2.19,0,.44-.58.81-1.3.81s-1.31-.36-1.31-.81V45.51h.06A1.38,1.38,0,0,1,88,44.94Z"/><path class="cls-3" d="M88,44.2a1.69,1.69,0,0,1,1.53.7h.06v.22a.17.17,0,0,1,0,.07c0,.55-.72,1-1.6,1s-1.61-.45-1.61-1V44.9h.07A1.72,1.72,0,0,1,88,44.2Z"/><path class="cls-3" d="M88,45.82c.88,0,1.6-.45,1.6-1s-.72-1-1.6-1-1.61.45-1.61,1S87.06,45.82,88,45.82Z"/><path class="cls-3" d="M87.94,45.32c.58,0,1-.3,1-.65s-.47-.65-1-.65-1,.29-1,.65S87.37,45.32,87.94,45.32Z"/><path class="cls-3" d="M96.26,39.31C93.65,40.89,91,43.15,88,44.57l-2,1c-6,.75-6.92,1.93-7.29,3.86-.08.39.66.67,1,.47l10.65-6.13c6.52-.92,7-2.26,6.84-3.95A.69.69,0,0,0,96.26,39.31Z"/><path class="cls-3" d="M96.2,39.07,88,44.33,86.1,45.4c-6,.75-7,1.82-7.39,3.74-.07.4.66.68,1,.48l10.64-6.13c6.53-.92,7-2.27,6.84-4A.68.68,0,0,0,96.2,39.07Z"/><path class="cls-3" d="M87.93,43.44c-1,0-1.73.48-1.73,1.08s.77,1.07,1.73,1.07,1.72-.48,1.72-1.07S88.88,43.44,87.93,43.44Z"/><path class="cls-3" d="M87.93,42.43c-1,0-1.73,1.28-1.73,1.87s.77,1.07,1.73,1.07,1.72-.48,1.72-1.07S88.88,42.43,87.93,42.43Z"/><path class="cls-3" d="M52.13,48.76c.88,0,1.6-.45,1.6-1s-.72-1-1.6-1-1.61.45-1.61,1S51.24,48.76,52.13,48.76Z"/><path class="cls-3" d="M52.13,44.94a1.38,1.38,0,0,0-1.25.57h-.06c0,.26,0,2.07,0,2.19,0,.44.58.81,1.31.81s1.3-.36,1.3-.81V45.51h-.06A1.38,1.38,0,0,0,52.13,44.94Z"/><path class="cls-3" d="M52.13,44.2a1.69,1.69,0,0,0-1.53.7h-.07v.22s0,.05,0,.07c0,.55.72,1,1.61,1s1.6-.45,1.6-1V44.9h-.07A1.69,1.69,0,0,0,52.13,44.2Z"/><path class="cls-3" d="M52.13,45.82c.88,0,1.6-.45,1.6-1s-.72-1-1.6-1-1.61.45-1.61,1S51.24,45.82,52.13,45.82Z"/><path class="cls-3" d="M52.13,45.32c.57,0,1-.3,1-.65s-.47-.65-1-.65-1,.29-1,.65S51.55,45.32,52.13,45.32Z"/><path class="cls-3" d="M43.81,39.31c2.61,1.58,5.31,3.84,8.23,5.26l2,1c6,.75,6.92,1.93,7.29,3.86.08.39-.66.67-1,.47L49.64,43.73c-6.52-.92-7-2.26-6.83-3.95A.68.68,0,0,1,43.81,39.31Z"/><path class="cls-3" d="M43.88,39.07l8.22,5.26L54,45.4c6,.75,7,1.82,7.39,3.74.07.4-.66.68-1,.48L49.71,43.49c-6.52-.92-7-2.27-6.84-4A.68.68,0,0,1,43.88,39.07Z"/><path class="cls-3" d="M52.15,43.44c1,0,1.72.48,1.72,1.08s-.77,1.07-1.72,1.07-1.73-.48-1.73-1.07S51.19,43.44,52.15,43.44Z"/><path class="cls-3" d="M52.15,42.43c-1,0-1.73,1.28-1.73,1.87s.77,1.07,1.73,1.07,1.72-.48,1.72-1.07S53.1,42.43,52.15,42.43Z"/><path class="cls-3" d="M63.4,31.2a10.69,10.69,0,0,0-3.82,2.46l4.31,2.87c.44.39.56,1,.07,1.26l-4.45,2.39v1a12.44,12.44,0,0,0,3.72,2.41L69,40.77a2.9,2.9,0,0,1,2.13,0l5.5,2.75a10.7,10.7,0,0,0,3.52-2.36v-.89c-2.5-1.84-4.62-3.38-4.37-3.54l4.47-3a10.72,10.72,0,0,0-4-2.64l-5.48,2.62a2.9,2.9,0,0,1-2.13,0Z"/><path class="cls-3" d="M69.86,29.13c-6.6,0-12,3.32-12,7.42S63.26,44,69.86,44s12-3.33,12-7.43S76.47,29.13,69.86,29.13Z"/><path class="cls-3" d="M69.86,30.16c-4.41,0-8,2.22-8,5s3.58,5,8,5,8-2.23,8-5S74.28,30.16,69.86,30.16Z"/><path class="cls-3" d="M69.86,30.81c-4.23,0-7.7,2.05-8,4.64.27,2.59,3.74,4.64,8,4.64s7.71-2.05,8-4.64C77.57,32.86,74.1,30.81,69.86,30.81Z"/><path class="cls-3" d="M69.86,31.09c-3.66,0-6.62,1.84-6.62,4.11s3,4.11,6.62,4.11,6.63-1.84,6.63-4.11S73.52,31.09,69.86,31.09Z"/><path class="cls-3" d="M69.86,30.63c-3.66,0-6.62,1.84-6.62,4.11s3,4.12,6.62,4.12,6.63-1.85,6.63-4.12S73.52,30.63,69.86,30.63Z"/><path class="cls-2" d="M256.87,196.61a5.41,5.41,0,0,1-2.67-.79l-22.47-12.91c-2.6-1.5-4.64-4.76-4.64-7.43V145.1a3.47,3.47,0,0,1,3.47-3.76,5.39,5.39,0,0,1,2.68.8L255.7,155c2.61,1.5,4.65,4.76,4.65,7.43v30.38A3.47,3.47,0,0,1,256.87,196.61Zm-26.31-52.24c-.19,0-.45,0-.45.73v30.38a6.59,6.59,0,0,0,3.13,4.81l22.46,12.9a2.52,2.52,0,0,0,1.17.4c.19,0,.45,0,.45-.74V162.47a6.57,6.57,0,0,0-3.12-4.8l-22.47-12.91A2.43,2.43,0,0,0,230.56,144.37Z"/><path class="cls-2" d="M235.36,208.7a5.37,5.37,0,0,1-2.68-.79L210.22,195a9.56,9.56,0,0,1-4.64-7.43V157.2a3.46,3.46,0,0,1,3.47-3.76,5.37,5.37,0,0,1,2.68.79l22.46,12.91a9.56,9.56,0,0,1,4.64,7.43V205A3.46,3.46,0,0,1,235.36,208.7Zm-26.31-52.24c-.19,0-.45,0-.45.74v30.37a6.57,6.57,0,0,0,3.13,4.81l22.46,12.91a2.43,2.43,0,0,0,1.17.39c.19,0,.45,0,.45-.73V174.57a6.57,6.57,0,0,0-3.13-4.81l-22.46-12.91A2.43,2.43,0,0,0,209.05,156.46Z"/><path class="cls-3" d="M261.22,183.22l-22.51-5.81a19.44,19.44,0,0,0-10-.19l-24,6.08c-4.36,1.11-9.11.7-12.59-1.35s-5-5.42-2.31-7.42L205,163.22c2-1.53,1.38-4-.35-5.88L190.5,142.08c-2.26-2.44-1.8-5.43,1.45-7.35a15.27,15.27,0,0,1,12.45-.86l22.39,8.38a14.59,14.59,0,0,0,10,.2l24-8.84A15.64,15.64,0,0,1,273.41,135c3.48,2,4.45,5.17,2.31,7.42l-15.18,16c-1.63,1.73-1.88,4.21.35,5.89L275.12,175c2.91,2.19,1.8,5.43-1.44,7.35S265.73,184.39,261.22,183.22Z"/><path class="cls-3" d="M261.22,182l-22.51-8.64a14.71,14.71,0,0,0-10-.19l-24,8.91a15.73,15.73,0,0,1-12.59-1.35c-3.48-2.05-4.61-5.27-2.31-7.42L205,159.19c1.76-1.64,1.69-4.1-.35-5.88L190.5,141c-2.66-2.33-1.8-5.43,1.45-7.35s8.11-2.31,12.45-.86l22.39,7.47a15.8,15.8,0,0,0,10,.19l24-7.92a16,16,0,0,1,12.59,1.35c3.48,2,4.78,5.29,2.31,7.42l-15.18,13.14c-1.89,1.64-1.54,4.1.35,5.89l14.23,13.53c2.46,2.34,1.8,5.43-1.44,7.35A15.25,15.25,0,0,1,261.22,182Z"/><path class="cls-3" d="M260.42,176.93l-25.11-12.52a5.89,5.89,0,0,0-4.37-.09L205.4,176.88c-1.57.76-4,.3-5.52-.6s-2-2.31-1-3.25L220,156.44c.9-.71,1.3,0,.41-.83l-21.78-14.54c-1.39-.93-.79-2.38.63-3.22a6.88,6.88,0,0,1,5.46-.38l25.41,12.4a6.09,6.09,0,0,0,4.37.09l26.14-12.51a6.43,6.43,0,0,1,5.52.59c1.52.9,2.09,2.31,1,3.25l-22.25,14.8c-1,.65,15.42,11.33,21.64,17.24,1.08,1,.79,2.38-.64,3.22A6.67,6.67,0,0,1,260.42,176.93Z"/><path class="cls-3" d="M269.93,138.09c1.82,0,3.3-.92,3.3-2.05s-1.48-2-3.3-2-3.29.92-3.29,2S268.12,138.09,269.93,138.09Z"/><path class="cls-3" d="M269.93,130.23a2.85,2.85,0,0,0-2.56,1.17h-.11c0,.54,0,4.26,0,4.51-.05.91,1.2,1.67,2.68,1.67s2.69-.75,2.69-1.67V131.4h-.12A2.85,2.85,0,0,0,269.93,130.23Z"/><path class="cls-3" d="M269.93,128.71a3.49,3.49,0,0,0-3.14,1.44h-.14v.45a.81.81,0,0,0,0,.16c0,1.13,1.48,2,3.29,2s3.3-.91,3.3-2v-.61h-.15A3.5,3.5,0,0,0,269.93,128.71Z"/><path class="cls-3" d="M269.93,132c1.82,0,3.3-.92,3.3-2s-1.48-2-3.3-2-3.29.92-3.29,2S268.12,132,269.93,132Z"/><path class="cls-3" d="M269.94,131c1.18,0,2.14-.6,2.14-1.33s-1-1.33-2.14-1.33-2.14.59-2.14,1.33S268.76,131,269.94,131Z"/><path class="cls-3" d="M252.84,118.66c5.36,3.24,10.92,7.89,16.91,10.82l4,2c12.28,1.53,14.23,4,15,7.92.16.81-1.36,1.38-2.07,1l-21.88-12.6c-13.41-1.89-14.42-4.65-14.06-8.12A1.42,1.42,0,0,1,252.84,118.66Z"/><path class="cls-3" d="M253,118.16,269.89,129l3.83,2.2c12.28,1.54,14.43,3.74,15.19,7.7.16.81-1.36,1.38-2.06,1L265,127.25c-13.41-1.89-14.42-4.65-14.06-8.12A1.4,1.4,0,0,1,253,118.16Z"/><path class="cls-3" d="M270,127.16c2,0,3.56,1,3.56,2.2s-1.6,2.21-3.56,2.21-3.55-1-3.55-2.21S268,127.16,270,127.16Z"/><path class="cls-3" d="M270,125.07c-2,0-3.55,2.63-3.55,3.85s1.59,2.21,3.55,2.21,3.56-1,3.56-2.21S271.93,125.07,270,125.07Z"/><path class="cls-3" d="M195.85,138.09c1.81,0,3.29-.92,3.29-2.05s-1.48-2-3.29-2-3.3.92-3.3,2S194,138.09,195.85,138.09Z"/><path class="cls-3" d="M195.85,130.23a2.84,2.84,0,0,1,2.56,1.17h.11c0,.54,0,4.26,0,4.51.05.91-1.2,1.67-2.68,1.67s-2.69-.75-2.69-1.67V131.4h.12A2.85,2.85,0,0,1,195.85,130.23Z"/><path class="cls-3" d="M195.85,128.71a3.52,3.52,0,0,1,3.15,1.44h.13v.45a.81.81,0,0,1,0,.16c0,1.13-1.47,2-3.29,2s-3.3-.91-3.3-2v-.61h.15A3.5,3.5,0,0,1,195.85,128.71Z"/><path class="cls-3" d="M195.85,132c1.81,0,3.29-.92,3.29-2s-1.48-2-3.29-2-3.3.92-3.3,2S194,132,195.85,132Z"/><path class="cls-3" d="M195.84,131c1.18,0,2.14-.6,2.14-1.33s-1-1.33-2.14-1.33-2.14.59-2.14,1.33S194.66,131,195.84,131Z"/><path class="cls-3" d="M212.94,118.66c-5.36,3.24-10.92,7.89-16.91,10.82l-4,2c-12.28,1.53-14.23,4-15,7.92-.16.81,1.36,1.38,2.07,1L201,127.75c13.41-1.89,14.42-4.65,14.06-8.12A1.42,1.42,0,0,0,212.94,118.66Z"/><path class="cls-3" d="M212.81,118.16,195.89,129l-3.83,2.2c-12.28,1.54-14.43,3.74-15.19,7.7-.16.81,1.36,1.38,2.06,1l21.89-12.6c13.4-1.89,14.41-4.65,14.05-8.12A1.4,1.4,0,0,0,212.81,118.16Z"/><path class="cls-3" d="M195.81,127.16c-2,0-3.55,1-3.55,2.2s1.59,2.21,3.55,2.21,3.55-1,3.55-2.21S197.77,127.16,195.81,127.16Z"/><path class="cls-3" d="M195.81,125.07c-2,0-3.55,2.63-3.55,3.85s1.59,2.21,3.55,2.21,3.55-1,3.55-2.21S197.77,125.07,195.81,125.07Z"/><path class="cls-3" d="M198.43,174.71a1.69,1.69,0,0,1,.44-.62L220,159.19c1-.68.74-1.8-.15-2.58l-.05,0,.2-.14c.94-.65,1.3,0,.41-.83l-21.78-14.54a1.82,1.82,0,0,1-.67-.73,2.84,2.84,0,0,1,1.3-1.43,6.88,6.88,0,0,1,5.46-.38l25.41,14.09a5.78,5.78,0,0,0,4.37.09l26.14-14.2c1.54-.84,4-.31,5.52.59a3.23,3.23,0,0,1,1.47,1.58,1.62,1.62,0,0,1-.46.61l-22.25,14.8c-.21.14.38.74,1.49,1.65l-1.49,1.1c-.91.68,15.42,9.64,21.64,15.55a2.17,2.17,0,0,1,.56.84,2.54,2.54,0,0,1-1.2,1.32,6.67,6.67,0,0,1-5.46.38l-25.11-12.52a5.89,5.89,0,0,0-4.37-.09L205.4,176.88c-1.57.76-4,.3-5.52-.6A3.16,3.16,0,0,1,198.43,174.71Z"/><path class="cls-3" d="M269.82,180.74c1.82,0,3.3-.91,3.3-2s-1.48-2-3.3-2-3.29.92-3.29,2S268,180.74,269.82,180.74Z"/><path class="cls-3" d="M269.82,172.89a2.85,2.85,0,0,1,2.57,1.17h.11c0,.54,0,4.26,0,4.51.05.9-1.21,1.67-2.69,1.67s-2.68-.75-2.68-1.67v-4.51h.12A2.84,2.84,0,0,1,269.82,172.89Z"/><path class="cls-3" d="M269.82,171.37a3.5,3.5,0,0,1,3.15,1.44h.14v.45c0,.05,0,.1,0,.15,0,1.13-1.48,2.05-3.3,2.05s-3.29-.92-3.29-2.05v-.6h.14A3.52,3.52,0,0,1,269.82,171.37Z"/><path class="cls-3" d="M269.82,174.7c1.82,0,3.3-.92,3.3-2s-1.48-2-3.3-2-3.29.92-3.29,2S268,174.7,269.82,174.7Z"/><path class="cls-3" d="M269.82,173.66c1.18,0,2.14-.59,2.14-1.33s-1-1.33-2.14-1.33-2.14.6-2.14,1.33S268.64,173.66,269.82,173.66Z"/><path class="cls-3" d="M286.92,161.32c-5.37,3.24-10.92,7.89-16.92,10.82l-4,2c-12.28,1.54-14.23,4-15,7.93-.16.81,1.36,1.38,2.06,1l21.88-12.6c13.41-1.9,14.42-4.66,14.06-8.12A1.41,1.41,0,0,0,286.92,161.32Z"/><path class="cls-3" d="M286.78,160.82l-16.91,10.82-3.83,2.2c-12.29,1.53-14.43,3.74-15.2,7.7-.15.81,1.36,1.38,2.07,1l21.88-12.6c13.41-1.9,14.42-4.66,14.06-8.12A1.41,1.41,0,0,0,286.78,160.82Z"/><path class="cls-3" d="M269.78,169.82c-2,0-3.55,1-3.55,2.2s1.59,2.21,3.55,2.21,3.55-1,3.55-2.21S271.74,169.82,269.78,169.82Z"/><path class="cls-3" d="M269.78,167.73c-2,0-3.55,2.63-3.55,3.85s1.59,2.2,3.55,2.2,3.55-1,3.55-2.2S271.74,167.73,269.78,167.73Z"/><path class="cls-3" d="M196.19,180.74c1.81,0,3.29-.91,3.29-2s-1.48-2-3.29-2-3.3.92-3.3,2S194.37,180.74,196.19,180.74Z"/><path class="cls-3" d="M196.19,172.89a2.85,2.85,0,0,0-2.57,1.17h-.11c0,.54,0,4.26,0,4.51-.05.9,1.2,1.67,2.69,1.67s2.68-.75,2.68-1.67v-4.51h-.12A2.85,2.85,0,0,0,196.19,172.89Z"/><path class="cls-3" d="M196.19,171.37a3.5,3.5,0,0,0-3.15,1.44h-.14v.45c0,.05,0,.1,0,.15,0,1.13,1.48,2.05,3.3,2.05s3.29-.92,3.29-2.05v-.6h-.15A3.49,3.49,0,0,0,196.19,171.37Z"/><path class="cls-3" d="M196.19,174.7c1.81,0,3.29-.92,3.29-2s-1.48-2-3.29-2-3.3.92-3.3,2S194.37,174.7,196.19,174.7Z"/><path class="cls-3" d="M196.19,173.66c1.18,0,2.14-.59,2.14-1.33s-1-1.33-2.14-1.33-2.14.6-2.14,1.33S195,173.66,196.19,173.66Z"/><path class="cls-3" d="M179.09,161.32c5.37,3.24,10.92,7.89,16.92,10.82l4,2c12.28,1.54,14.23,4,15,7.93.16.81-1.36,1.38-2.06,1l-21.89-12.6c-13.4-1.9-14.41-4.66-14.05-8.12A1.41,1.41,0,0,1,179.09,161.32Z"/><path class="cls-3" d="M179.23,160.82l16.91,10.82,3.83,2.2c12.29,1.53,14.43,3.74,15.2,7.7.15.81-1.36,1.38-2.07,1l-21.88-12.6c-13.41-1.9-14.42-4.66-14.06-8.12A1.41,1.41,0,0,1,179.23,160.82Z"/><path class="cls-3" d="M196.23,169.82c2,0,3.55,1,3.55,2.2s-1.59,2.21-3.55,2.21-3.55-1-3.55-2.21S194.27,169.82,196.23,169.82Z"/><path class="cls-3" d="M196.23,167.73c-2,0-3.55,2.63-3.55,3.85s1.59,2.2,3.55,2.2,3.55-1,3.55-2.2S198.19,167.73,196.23,167.73Z"/><path class="cls-3" d="M219.37,144.64a22.22,22.22,0,0,0-7.86,5.05l8.86,5.92c.89.79,1.16,2,.15,2.58l-9.15,4.92v2.12a25.85,25.85,0,0,0,7.64,5l11.93-5.87a5.89,5.89,0,0,1,4.37.09l11.3,5.64a21.87,21.87,0,0,0,7.25-4.85v-1.83c-5.14-3.78-9.49-6.94-9-7.28l9.18-6.1a22.13,22.13,0,0,0-8.32-5.43L234.46,150a6.09,6.09,0,0,1-4.37-.09Z"/><path class="cls-3" d="M232.65,140.39c-13.58,0-24.58,6.83-24.58,15.26s11,15.27,24.58,15.27,24.58-6.84,24.58-15.27S246.22,140.39,232.65,140.39Z"/><path class="cls-3" d="M232.65,142.5c-9.08,0-16.43,4.57-16.43,10.21s7.35,10.2,16.43,10.2,16.43-4.57,16.43-10.2S241.72,142.5,232.65,142.5Z"/><path class="cls-3" d="M232.65,143.85c-8.71,0-15.84,4.21-16.4,9.53.56,5.32,7.69,9.53,16.4,9.53s15.83-4.21,16.39-9.53C248.48,148.06,241.36,143.85,232.65,143.85Z"/><path class="cls-3" d="M232.65,144.41c-7.52,0-13.62,3.79-13.62,8.46s6.1,8.46,13.62,8.46,13.62-3.79,13.62-8.46S240.17,144.41,232.65,144.41Z"/><path class="cls-3" d="M232.65,143.47c-7.52,0-13.62,3.79-13.62,8.46s6.1,8.46,13.62,8.46,13.62-3.79,13.62-8.46S240.17,143.47,232.65,143.47Z"/><path class="cls-4" d="M334.26,343.18a8.85,8.85,0,0,1-4.41-1.31l-37-21.24c-4.28-2.47-7.64-7.84-7.64-12.23v-50c0-3.64,2.35-6.18,5.72-6.18a8.83,8.83,0,0,1,4.4,1.3l37,21.24c4.28,2.46,7.64,7.84,7.64,12.23v50C340,340.63,337.62,343.18,334.26,343.18Zm-43.3-86c-.32,0-.75,0-.75,1.21v50c0,2.64,2.41,6.34,5.15,7.92l37,21.24a4,4,0,0,0,1.93.64c.31,0,.74,0,.74-1.21V287c0-2.64-2.41-6.34-5.15-7.91l-37-21.25A4,4,0,0,0,291,257.2Z"/><path class="cls-5" d="M298.86,363.08a8.85,8.85,0,0,1-4.41-1.31l-37-21.24c-4.29-2.46-7.64-7.83-7.64-12.22v-50c0-3.64,2.35-6.18,5.71-6.18a8.85,8.85,0,0,1,4.41,1.31l37,21.24c4.28,2.46,7.64,7.83,7.64,12.22v50C304.57,360.54,302.22,363.08,298.86,363.08Zm-43.31-86c-.31,0-.74,0-.74,1.2v50c0,2.64,2.41,6.33,5.15,7.91l37,21.24a4,4,0,0,0,1.93.64c.31,0,.74,0,.74-1.2v-50c0-2.64-2.41-6.33-5.15-7.91l-37-21.24A4,4,0,0,0,255.55,277.11Z"/><polygon class="cls-6" points="330.42 322.21 330.37 338.48 295 359.04 295.05 342.76 330.42 322.21"/><polygon class="cls-7" points="295.05 342.76 295 359.04 259.38 338.47 259.42 322.19 295.05 342.76"/><polygon class="cls-8" points="330.42 322.21 295.05 342.76 259.42 322.19 294.79 301.64 330.42 322.21"/><polygon class="cls-5" points="300.36 339.9 300.36 356.15 305.34 353.26 305.34 337.01 300.36 339.9"/><path class="cls-5" d="M300.36,306.68V339.9l5-2.89V307.07l-5.74-3.32A7.29,7.29,0,0,1,300.36,306.68Z"/><polyline class="cls-9" points="316.12 340.64 309.98 344.18 309.98 339.8 316.12 336.25"/><polygon class="cls-10" points="314.39 338.17 310.68 340.31 310.68 340.07 314.39 337.93 314.39 338.17"/><polygon class="cls-10" points="315.3 339.06 311.59 341.2 311.59 340.96 315.3 338.82 315.3 339.06"/><polygon class="cls-11" points="312.98 339.66 310.68 340.99 310.68 340.75 312.98 339.42 312.98 339.66"/><polygon class="cls-12" points="314.38 338.85 313.43 339.4 313.43 339.16 314.38 338.62 314.38 338.85"/><polygon class="cls-13" points="314.38 338.85 313.43 339.4 313.43 339.16 314.38 338.62 314.38 338.85"/><polygon class="cls-13" points="312.98 341.13 310.68 342.46 310.68 342.22 312.98 340.89 312.98 341.13"/><polygon class="cls-13" points="314.38 340.33 313.43 340.87 313.43 340.63 314.38 340.09 314.38 340.33"/><polygon class="cls-13" points="315.19 338.38 314.76 338.63 314.76 338.39 315.19 338.14 315.19 338.38"/><polygon class="cls-10" points="311.62 342.59 310.67 343.13 310.67 342.89 311.62 342.35 311.62 342.59"/><polygon class="cls-13" points="312.43 342.12 312 342.37 312 342.13 312.43 341.88 312.43 342.12"/><polygon class="cls-13" points="311.13 341.46 310.7 341.71 310.7 341.48 311.13 341.23 311.13 341.46"/><polygon class="cls-14" points="270.38 341.21 260.18 335.33 260.18 338.07 270.38 343.96 270.38 341.21"/><polygon class="cls-15" points="260.91 336.13 260.7 336.01 260.7 337.98 260.91 338.1 260.91 336.13"/><polygon class="cls-15" points="261.75 336.61 261.26 336.33 261.26 338.3 261.75 338.58 261.75 336.61"/><polygon class="cls-15" points="262.21 336.88 262.03 336.77 262.03 338.74 262.21 338.85 262.21 336.88"/><polygon class="cls-15" points="262.72 337.17 262.52 337.06 262.52 339.03 262.72 339.14 262.72 337.17"/><polygon class="cls-15" points="263.54 337.65 262.91 337.28 262.91 339.25 263.54 339.62 263.54 337.65"/><polygon class="cls-16" points="264.05 337.94 263.91 337.86 263.91 339.83 264.05 339.91 264.05 337.94"/><polygon class="cls-15" points="265.35 338.69 264.5 338.2 264.5 340.17 265.35 340.66 265.35 338.69"/><polygon class="cls-15" points="265.81 338.96 265.6 338.84 265.6 340.81 265.81 340.93 265.81 338.96"/><polygon class="cls-15" points="266.7 339.47 266.28 339.23 266.28 341.2 266.7 341.44 266.7 339.47"/><polygon class="cls-15" points="267.16 339.74 267.37 339.86 267.37 341.83 267.16 341.71 267.16 339.74"/><polygon class="cls-15" points="268.24 340.36 267.5 339.93 267.5 341.9 268.24 342.33 268.24 340.36"/><polygon class="cls-15" points="268.55 340.54 268.43 340.47 268.43 342.44 268.55 342.51 268.55 340.54"/><polygon class="cls-15" points="269.39 341.02 268.92 340.75 268.92 342.72 269.39 342.99 269.39 341.02"/><polygon class="cls-15" points="269.88 341.31 269.72 341.21 269.72 343.18 269.88 343.28 269.88 341.31"/><path class="cls-17" d="M341.41,321.15l-37.05-9.57a31.9,31.9,0,0,0-16.42-.32l-39.49,10c-7.19,1.82-15,1.14-20.72-2.23s-8.22-8.91-3.81-12.21l24.9-18.61c3.37-2.53,2.27-6.61-.58-9.69L225,253.45c-3.72-4-3-8.95,2.37-12.1s13.57-4,20.51-1.42l36.83,13.8a24.07,24.07,0,0,0,16.43.31l39.58-14.54c6.65-2.44,15-1.15,20.72,2.22s7.32,8.51,3.81,12.22l-25,26.39c-2.69,2.84-3.1,6.93.57,9.69l23.43,17.61c4.79,3.6,3,8.94-2.38,12.1S348.82,323.06,341.41,321.15Z"/><path class="cls-18" d="M341.41,319.17,304.36,305a24.22,24.22,0,0,0-16.42-.32L248.45,319.3c-6.48,2.41-15,1.15-20.72-2.22s-7.6-8.68-3.81-12.22l24.9-23.26c2.9-2.71,2.78-6.75-.58-9.68L225,251.58c-4.38-3.83-3-8.94,2.38-12.09s13.36-3.81,20.51-1.42l36.83,12.28a25.91,25.91,0,0,0,16.43.32l39.58-13a26.33,26.33,0,0,1,20.72,2.22c5.72,3.37,7.87,8.7,3.81,12.22l-25,21.62c-3.11,2.7-2.53,6.74.57,9.69l23.43,22.26c4,3.85,3,8.94-2.38,12.1S348.19,321.78,341.41,319.17Z"/><path class="cls-19" d="M340.1,310.8l-41.32-20.61a9.68,9.68,0,0,0-7.2-.14l-42,20.65c-2.57,1.27-6.57.5-9.08-1s-3.33-3.8-1.67-5.36l34.72-27.3c1.47-1.17,2.15-.07.68-1.36l-35.86-23.93c-2.28-1.53-1.29-3.92,1-5.31a11.38,11.38,0,0,1,9-.62l41.82,20.41a10,10,0,0,0,7.2.14l43-20.58c2.67-1.28,6.57-.51,9.08,1s3.45,3.81,1.67,5.35l-36.62,24.35c-1.6,1.07,25.37,18.66,35.61,28.38,1.77,1.69,1.3,3.92-1,5.3A11,11,0,0,1,340.1,310.8Z"/><path class="cls-20" d="M356.12,247.31c3,0,5.42-1.52,5.42-3.37s-2.44-3.37-5.42-3.37-5.42,1.52-5.42,3.37S353.14,247.31,356.12,247.31Z"/><path class="cls-21" d="M356.12,234.37c-2,0-3.67.82-4.22,1.94h-.19c0,.89,0,7,0,7.42-.08,1.48,2,2.74,4.42,2.74s4.42-1.23,4.42-2.74v-7.42h-.2C359.79,235.19,358.11,234.37,356.12,234.37Z"/><path class="cls-22" d="M356.12,231.88c-2.44,0-4.5,1-5.18,2.37h-.22V235a2.46,2.46,0,0,0,0,.26c0,1.86,2.43,3.37,5.42,3.37s5.42-1.51,5.42-3.37v-1h-.24C360.62,232.88,358.56,231.88,356.12,231.88Z"/><path class="cls-23" d="M356.12,237.36c3,0,5.42-1.52,5.42-3.37s-2.44-3.37-5.42-3.37-5.42,1.52-5.42,3.37S353.14,237.36,356.12,237.36Z"/><path class="cls-24" d="M356.13,235.65c1.94,0,3.52-1,3.52-2.19s-1.58-2.19-3.52-2.19-3.53,1-3.53,2.19S354.19,235.65,356.13,235.65Z"/><path class="cls-21" d="M328,215.33c8.82,5.34,18,13,27.83,17.82l6.64,3.24c20.21,2.53,23.42,6.53,24.67,13,.26,1.34-2.23,2.28-3.4,1.61l-36-20.74c-22.06-3.12-23.72-7.66-23.13-13.36A2.33,2.33,0,0,1,328,215.33Z"/><path class="cls-25" d="M328.21,214.51,356,232.32l6.31,3.62c20.22,2.53,23.75,6.15,25,12.67.26,1.34-2.23,2.28-3.4,1.6l-36-20.74c-22.06-3.11-23.72-7.66-23.13-13.36A2.32,2.32,0,0,1,328.21,214.51Z"/><path class="cls-22" d="M356.19,229.32c3.22,0,5.84,1.63,5.84,3.63s-2.62,3.63-5.84,3.63-5.85-1.63-5.85-3.63S353,229.32,356.19,229.32Z"/><path class="cls-26" d="M356.19,225.88c-3.23,0-5.85,4.33-5.85,6.34s2.62,3.63,5.85,3.63,5.84-1.63,5.84-3.63S359.41,225.88,356.19,225.88Z"/><path class="cls-20" d="M234.2,247.31c3,0,5.42-1.52,5.42-3.37s-2.44-3.37-5.42-3.37-5.42,1.52-5.42,3.37S231.21,247.31,234.2,247.31Z"/><path class="cls-21" d="M234.2,234.37c2,0,3.66.82,4.22,1.94h.18c0,.89,0,7,0,7.42.09,1.48-2,2.74-4.41,2.74s-4.42-1.23-4.42-2.74v-7.42H230C230.53,235.19,232.21,234.37,234.2,234.37Z"/><path class="cls-22" d="M234.2,231.88c2.43,0,4.49,1,5.18,2.37h.22V235a2.35,2.35,0,0,1,0,.26c0,1.86-2.42,3.37-5.41,3.37s-5.42-1.51-5.42-3.37v-1H229C229.7,232.88,231.76,231.88,234.2,231.88Z"/><path class="cls-23" d="M234.2,237.36c3,0,5.42-1.52,5.42-3.37s-2.44-3.37-5.42-3.37-5.42,1.52-5.42,3.37S231.21,237.36,234.2,237.36Z"/><path class="cls-24" d="M234.19,235.65c1.94,0,3.52-1,3.52-2.19s-1.58-2.19-3.52-2.19-3.53,1-3.53,2.19S232.25,235.65,234.19,235.65Z"/><path class="cls-21" d="M262.33,215.33c-8.83,5.34-18,13-27.84,17.82l-6.64,3.24c-20.21,2.53-23.41,6.53-24.67,13-.26,1.34,2.24,2.28,3.4,1.61l36-20.74c22.07-3.12,23.73-7.66,23.14-13.36A2.33,2.33,0,0,0,262.33,215.33Z"/><path class="cls-25" d="M262.11,214.51l-27.84,17.81L228,235.94c-20.21,2.53-23.74,6.15-25,12.67-.26,1.34,2.24,2.28,3.4,1.6l36-20.74c22.07-3.11,23.73-7.66,23.14-13.36A2.32,2.32,0,0,0,262.11,214.51Z"/><path class="cls-22" d="M234.13,229.32c-3.23,0-5.85,1.63-5.85,3.63s2.62,3.63,5.85,3.63S240,235,240,233,237.36,229.32,234.13,229.32Z"/><path class="cls-27" d="M234.13,225.88c-3.23,0-5.85,4.33-5.85,6.34s2.62,3.63,5.85,3.63,5.84-1.63,5.84-3.63S237.36,225.88,234.13,225.88Z"/><path class="cls-28" d="M238.08,307.14a2.74,2.74,0,0,1,.71-1l34.72-24.52c1.58-1.12,1.22-3-.25-4.25l-.08-.06.33-.22c1.55-1.06,2.15-.07.68-1.36l-35.86-23.93a3,3,0,0,1-1.09-1.2,4.6,4.6,0,0,1,2.14-2.36,11.33,11.33,0,0,1,9-.63l41.82,23.2c2,1.12,4.88.89,7.2.14l43-23.37c2.53-1.38,6.57-.51,9.08,1a5.4,5.4,0,0,1,2.42,2.6,2.59,2.59,0,0,1-.75,1l-36.62,24.35c-.34.23.63,1.22,2.45,2.72L314.52,281c-1.51,1.12,25.37,15.87,35.61,25.59a3.45,3.45,0,0,1,.92,1.38,4.2,4.2,0,0,1-2,2.18,11,11,0,0,1-9,.63l-41.32-20.61a9.68,9.68,0,0,0-7.2-.14l-42,20.65c-2.57,1.27-6.57.5-9.08-1A5.23,5.23,0,0,1,238.08,307.14Z"/><path class="cls-20" d="M355.57,317.07c3,0,5.42-1.51,5.42-3.37s-2.44-3.36-5.42-3.36-5.42,1.51-5.42,3.36S352.58,317.07,355.57,317.07Z"/><path class="cls-21" d="M355.57,304.13c2,0,3.66.82,4.22,1.94H360c0,.89,0,7,0,7.42.09,1.49-2,2.74-4.41,2.74s-4.42-1.22-4.42-2.74v-7.42h.19C351.9,305,353.58,304.13,355.57,304.13Z"/><path class="cls-22" d="M355.57,301.64c2.43,0,4.49,1,5.18,2.37H361v.74a2.11,2.11,0,0,1,0,.25c0,1.86-2.43,3.37-5.42,3.37s-5.42-1.51-5.42-3.37v-1h.24C351.07,302.64,353.13,301.64,355.57,301.64Z"/><path class="cls-23" d="M355.57,307.12c3,0,5.42-1.51,5.42-3.37s-2.44-3.36-5.42-3.36-5.42,1.51-5.42,3.36S352.58,307.12,355.57,307.12Z"/><path class="cls-24" d="M355.56,305.42c1.94,0,3.52-1,3.52-2.19S357.5,301,355.56,301s-3.53,1-3.53,2.19S353.62,305.42,355.56,305.42Z"/><path class="cls-21" d="M383.7,285.09c-8.83,5.34-18,13-27.84,17.82l-6.64,3.25c-20.21,2.52-23.41,6.52-24.67,13-.26,1.35,2.24,2.28,3.4,1.61l36-20.74c22.07-3.12,23.73-7.66,23.14-13.36A2.33,2.33,0,0,0,383.7,285.09Z"/><path class="cls-25" d="M383.48,284.27l-27.84,17.81-6.31,3.62c-20.21,2.53-23.74,6.16-25,12.67-.26,1.34,2.24,2.28,3.4,1.61l36-20.74c22.07-3.12,23.73-7.66,23.14-13.36A2.32,2.32,0,0,0,383.48,284.27Z"/><path class="cls-22" d="M355.5,299.08c-3.23,0-5.84,1.63-5.84,3.63s2.61,3.63,5.84,3.63,5.84-1.62,5.84-3.63S358.73,299.08,355.5,299.08Z"/><path class="cls-29" d="M355.5,295.64c-3.23,0-5.84,4.34-5.84,6.34s2.61,3.63,5.84,3.63,5.84-1.62,5.84-3.63S358.73,295.64,355.5,295.64Z"/><path class="cls-20" d="M234.38,317.07c3,0,5.42-1.51,5.42-3.37s-2.43-3.36-5.42-3.36S229,311.85,229,313.7,231.4,317.07,234.38,317.07Z"/><path class="cls-21" d="M234.38,304.13c-2,0-3.66.82-4.22,1.94H230c0,.89,0,7,0,7.42-.09,1.49,2,2.74,4.41,2.74s4.42-1.22,4.42-2.74v-7.42h-.19C238.05,305,236.37,304.13,234.38,304.13Z"/><path class="cls-22" d="M234.38,301.64c-2.43,0-4.49,1-5.18,2.37H229v.74a2.11,2.11,0,0,0,0,.25c0,1.86,2.43,3.37,5.42,3.37s5.42-1.51,5.42-3.37v-1h-.24C238.88,302.64,236.82,301.64,234.38,301.64Z"/><path class="cls-23" d="M234.38,307.12c3,0,5.42-1.51,5.42-3.37s-2.43-3.36-5.42-3.36S229,301.9,229,303.75,231.4,307.12,234.38,307.12Z"/><path class="cls-24" d="M234.39,305.42c1.94,0,3.53-1,3.53-2.19s-1.59-2.19-3.53-2.19-3.52,1-3.52,2.19S232.45,305.42,234.39,305.42Z"/><path class="cls-21" d="M206.25,285.09c8.83,5.34,18,13,27.84,17.82l6.64,3.25c20.21,2.52,23.41,6.52,24.67,13,.26,1.35-2.24,2.28-3.4,1.61l-36-20.74c-22.07-3.12-23.73-7.66-23.14-13.36A2.33,2.33,0,0,1,206.25,285.09Z"/><path class="cls-25" d="M206.47,284.27l27.84,17.81,6.31,3.62c20.21,2.53,23.74,6.16,25,12.67.26,1.34-2.24,2.28-3.4,1.61l-36-20.74c-22.07-3.12-23.73-7.66-23.14-13.36A2.32,2.32,0,0,1,206.47,284.27Z"/><path class="cls-22" d="M234.45,299.08c3.23,0,5.84,1.63,5.84,3.63s-2.61,3.63-5.84,3.63-5.84-1.62-5.84-3.63S231.22,299.08,234.45,299.08Z"/><path class="cls-30" d="M234.45,295.64c-3.23,0-5.84,4.34-5.84,6.34s2.61,3.63,5.84,3.63,5.84-1.62,5.84-3.63S237.68,295.64,234.45,295.64Z"/><path class="cls-21" d="M272.53,257.65A36.6,36.6,0,0,0,259.6,266l14.59,9.74c1.47,1.29,1.9,3.35.25,4.24l-15.06,8.1v3.49A42,42,0,0,0,272,299.69l19.63-9.64a9.68,9.68,0,0,1,7.2.14l18.59,9.27a35.78,35.78,0,0,0,11.93-8v-3c-8.46-6.21-15.63-11.41-14.78-12l15.11-10a36.33,36.33,0,0,0-13.7-8.93l-18.55,8.88a10,10,0,0,1-7.2-.14Z"/><path class="cls-25" d="M294.39,250.65c-22.34,0-40.46,11.25-40.46,25.12s18.12,25.12,40.46,25.12,40.45-11.25,40.45-25.12S316.73,250.65,294.39,250.65Z"/><path class="cls-21" d="M294.39,254.13c-14.93,0-27,7.52-27,16.8s12.11,16.79,27,16.79,27-7.52,27-16.79S309.32,254.13,294.39,254.13Z"/><path class="cls-23" d="M294.39,256.34c-14.34,0-26.06,6.94-27,15.69.92,8.76,12.64,15.69,27,15.69s26.06-6.93,27-15.69C320.45,263.28,308.72,256.34,294.39,256.34Z"/><path class="cls-21" d="M294.39,257.28c-12.38,0-22.41,6.23-22.41,13.91s10,13.92,22.41,13.92,22.41-6.23,22.41-13.92S306.76,257.28,294.39,257.28Z"/><path class="cls-31" d="M294.39,255.73C282,255.73,272,262,272,269.65s10,13.92,22.41,13.92,22.41-6.24,22.41-13.92S306.76,255.73,294.39,255.73Z"/><path class="cls-2" d="M157.32,104.62a3.34,3.34,0,0,1-1.66-.5l-14-8a6,6,0,0,1-2.88-4.63V72.58A2.15,2.15,0,0,1,141,70.24a3.42,3.42,0,0,1,1.66.49l14,8a6,6,0,0,1,2.89,4.63v18.89A2.15,2.15,0,0,1,157.32,104.62ZM141,72.12c-.12,0-.28,0-.28.46V91.47a4.13,4.13,0,0,0,1.94,3l14,8a1.48,1.48,0,0,0,.73.25c.12,0,.28,0,.28-.46V83.39a4.13,4.13,0,0,0-1.94-3l-14-8A1.43,1.43,0,0,0,141,72.12Z"/><path class="cls-2" d="M143.94,112.14a3.32,3.32,0,0,1-1.66-.49l-14-8A6,6,0,0,1,125.41,99V80.1a2.16,2.16,0,0,1,2.16-2.34,3.34,3.34,0,0,1,1.67.5l14,8a6,6,0,0,1,2.89,4.62V109.8A2.16,2.16,0,0,1,143.94,112.14ZM127.57,79.65c-.11,0-.28,0-.28.45V99a4.09,4.09,0,0,0,2,3l14,8a1.54,1.54,0,0,0,.73.24c.12,0,.28,0,.28-.46V90.91a4.09,4.09,0,0,0-1.94-3l-14-8A1.51,1.51,0,0,0,127.57,79.65Z"/><path class="cls-3" d="M160,96.29l-14-3.61a12,12,0,0,0-6.2-.12l-14.93,3.78a10.66,10.66,0,0,1-7.83-.84c-2.16-1.27-3.11-3.37-1.44-4.62l9.41-7c1.27-.95.86-2.5-.22-3.66L116,70.7c-1.41-1.52-1.12-3.38.9-4.57a9.51,9.51,0,0,1,7.75-.54l13.92,5.22a9.09,9.09,0,0,0,6.21.12l15-5.5a9.75,9.75,0,0,1,7.83.84c2.16,1.28,2.76,3.22,1.44,4.62l-9.45,10a2.33,2.33,0,0,0,.22,3.67l8.85,6.65c1.81,1.36,1.12,3.38-.89,4.57S162.83,97,160,96.29Z"/><path class="cls-3" d="M160,95.55l-14-5.38a9.12,9.12,0,0,0-6.2-.12L124.89,95.6a9.78,9.78,0,0,1-7.83-.85c-2.17-1.27-2.87-3.27-1.44-4.61l9.41-8.8a2.34,2.34,0,0,0-.22-3.66L116,70c-1.66-1.45-1.12-3.38.9-4.57a9.77,9.77,0,0,1,7.75-.54l13.92,4.64a9.79,9.79,0,0,0,6.21.12l15-4.92a10,10,0,0,1,7.83.84c2.16,1.27,3,3.29,1.44,4.62l-9.45,8.17c-1.17,1-.95,2.55.22,3.66l8.85,8.42c1.54,1.45,1.12,3.37-.89,4.57A9.54,9.54,0,0,1,160,95.55Z"/><path class="cls-3" d="M159.53,92.38l-15.62-7.79a3.65,3.65,0,0,0-2.72,0l-15.89,7.8a4.05,4.05,0,0,1-3.43-.36c-1-.56-1.26-1.44-.63-2l13.12-10.32c.56-.44.81,0,.26-.51l-13.55-9.05c-.87-.57-.49-1.48.39-2a4.33,4.33,0,0,1,3.4-.24l15.8,7.72a3.8,3.8,0,0,0,2.72,0l16.26-7.78a4,4,0,0,1,3.43.37c1,.56,1.31,1.44.64,2l-13.85,9.2c-.6.41,9.59,7,13.46,10.73.67.64.49,1.48-.39,2A4.15,4.15,0,0,1,159.53,92.38Z"/><path class="cls-3" d="M165.45,68.22c1.12,0,2.05-.58,2.05-1.28s-.93-1.27-2.05-1.27-2,.57-2,1.27S164.32,68.22,165.45,68.22Z"/><path class="cls-3" d="M165.45,63.33a1.76,1.76,0,0,0-1.6.73h-.07c0,.34,0,2.65,0,2.8,0,.57.74,1,1.67,1s1.67-.46,1.67-1v-2.8H167A1.75,1.75,0,0,0,165.45,63.33Z"/><path class="cls-3" d="M165.45,62.38a2.18,2.18,0,0,0-2,.9h-.09v.38c0,.7.92,1.27,2,1.27s2.05-.57,2.05-1.27v-.38h-.1A2.15,2.15,0,0,0,165.45,62.38Z"/><path class="cls-3" d="M165.45,64.46c1.12,0,2.05-.58,2.05-1.28s-.93-1.27-2.05-1.27-2,.57-2,1.27S164.32,64.46,165.45,64.46Z"/><path class="cls-3" d="M165.45,63.81c.73,0,1.33-.37,1.33-.83s-.6-.82-1.33-.82-1.33.37-1.33.82S164.72,63.81,165.45,63.81Z"/><path class="cls-3" d="M154.81,56.13c3.34,2,6.8,4.91,10.53,6.73l2.5,1.23c7.64,1,8.85,2.47,9.33,4.93.1.51-.85.86-1.29.61l-13.61-7.84c-8.34-1.18-9-2.9-8.74-5A.87.87,0,0,1,154.81,56.13Z"/><path class="cls-3" d="M154.9,55.82l10.52,6.73,2.38,1.37c7.64,1,9,2.33,9.45,4.79.1.51-.84.86-1.28.61l-13.61-7.84c-8.34-1.18-9-2.9-8.75-5A.88.88,0,0,1,154.9,55.82Z"/><path class="cls-3" d="M165.47,61.42c1.22,0,2.21.61,2.21,1.37s-1,1.37-2.21,1.37-2.21-.61-2.21-1.37S164.25,61.42,165.47,61.42Z"/><path class="cls-3" d="M165.47,60.12c-1.22,0-2.21,1.64-2.21,2.39s1,1.38,2.21,1.38,2.21-.62,2.21-1.38S166.69,60.12,165.47,60.12Z"/><path class="cls-3" d="M119.36,68.22c1.13,0,2-.58,2-1.28s-.92-1.27-2-1.27-2,.57-2,1.27S118.23,68.22,119.36,68.22Z"/><path class="cls-3" d="M119.36,63.33a1.76,1.76,0,0,1,1.6.73H121c0,.34,0,2.65,0,2.8,0,.57-.74,1-1.67,1s-1.67-.46-1.67-1v-2.8h.08A1.75,1.75,0,0,1,119.36,63.33Z"/><path class="cls-3" d="M119.36,62.38a2.18,2.18,0,0,1,2,.9h.09v.38c0,.7-.92,1.27-2,1.27s-2-.57-2-1.27v-.38h.1A2.15,2.15,0,0,1,119.36,62.38Z"/><path class="cls-3" d="M119.36,64.46c1.13,0,2-.58,2-1.28s-.92-1.27-2-1.27-2,.57-2,1.27S118.23,64.46,119.36,64.46Z"/><path class="cls-3" d="M119.36,63.81c.73,0,1.33-.37,1.33-.83s-.6-.82-1.33-.82S118,62.53,118,63,118.63,63.81,119.36,63.81Z"/><path class="cls-3" d="M130,56.13c-3.34,2-6.8,4.91-10.53,6.73L117,64.09c-7.64,1-8.85,2.47-9.33,4.93-.1.51.85.86,1.29.61l13.61-7.84c8.34-1.18,9-2.9,8.74-5A.87.87,0,0,0,130,56.13Z"/><path class="cls-3" d="M129.91,55.82l-10.52,6.73L117,63.92c-7.64,1-9,2.33-9.45,4.79-.1.51.84.86,1.28.61l13.61-7.84c8.34-1.18,9-2.9,8.75-5A.88.88,0,0,0,129.91,55.82Z"/><path class="cls-3" d="M119.34,61.42c-1.22,0-2.21.61-2.21,1.37s1,1.37,2.21,1.37,2.21-.61,2.21-1.37S120.56,61.42,119.34,61.42Z"/><path class="cls-3" d="M119.34,60.12c-1.22,0-2.21,1.64-2.21,2.39s1,1.38,2.21,1.38,2.21-.62,2.21-1.38S120.56,60.12,119.34,60.12Z"/><path class="cls-3" d="M121,91a1.1,1.1,0,0,1,.27-.39l13.12-9.27c.6-.42.46-1.11-.09-1.6l0,0,.12-.09c.59-.4.81,0,.26-.51l-13.55-9.05a1.11,1.11,0,0,1-.42-.45,1.75,1.75,0,0,1,.81-.89,4.29,4.29,0,0,1,3.4-.24l15.8,8.77a3.6,3.6,0,0,0,2.72,0l16.26-8.83a3.89,3.89,0,0,1,3.43.37,2,2,0,0,1,.92,1,1.2,1.2,0,0,1-.28.38l-13.85,9.2c-.13.09.24.46.93,1l-.93.69c-.57.42,9.59,6,13.46,9.67a1.29,1.29,0,0,1,.35.52,1.56,1.56,0,0,1-.74.82,4.15,4.15,0,0,1-3.4.24l-15.62-7.79a3.65,3.65,0,0,0-2.72,0l-15.89,7.8a4.05,4.05,0,0,1-3.43-.36A2.07,2.07,0,0,1,121,91Z"/><path class="cls-3" d="M165.38,94.75c1.13,0,2.05-.57,2.05-1.27s-.92-1.27-2.05-1.27-2,.57-2,1.27S164.25,94.75,165.38,94.75Z"/><path class="cls-3" d="M165.38,89.86a1.77,1.77,0,0,1,1.59.73H167c0,.34,0,2.65,0,2.81,0,.56-.75,1-1.67,1s-1.67-.46-1.67-1V90.59h.07A1.79,1.79,0,0,1,165.38,89.86Z"/><path class="cls-3" d="M165.38,88.92a2.15,2.15,0,0,1,2,.9h.09v.27s0,.07,0,.1c0,.7-.92,1.27-2.05,1.27s-2-.57-2-1.27v-.37h.09A2.18,2.18,0,0,1,165.38,88.92Z"/><path class="cls-3" d="M165.38,91c1.13,0,2.05-.57,2.05-1.27s-.92-1.27-2.05-1.27-2,.57-2,1.27S164.25,91,165.38,91Z"/><path class="cls-3" d="M165.37,90.35c.74,0,1.34-.38,1.34-.83s-.6-.83-1.34-.83-1.33.37-1.33.83S164.64,90.35,165.37,90.35Z"/><path class="cls-3" d="M176,82.67c-3.34,2-6.79,4.9-10.52,6.73L163,90.63c-7.64,1-8.85,2.46-9.33,4.92-.09.51.85.87,1.29.61l13.61-7.84c8.34-1.18,9-2.89,8.75-5A.88.88,0,0,0,176,82.67Z"/><path class="cls-3" d="M175.93,82.35l-10.52,6.74L163,90.45c-7.64,1-9,2.33-9.45,4.79-.1.51.85.86,1.29.61L168.47,88c8.34-1.18,9-2.9,8.74-5.05A.88.88,0,0,0,175.93,82.35Z"/><path class="cls-3" d="M165.35,88c-1.22,0-2.21.62-2.21,1.37s1,1.38,2.21,1.38,2.21-.62,2.21-1.38S166.57,88,165.35,88Z"/><path class="cls-3" d="M165.35,86.65c-1.22,0-2.21,1.64-2.21,2.4s1,1.37,2.21,1.37,2.21-.61,2.21-1.37S166.57,86.65,165.35,86.65Z"/><path class="cls-3" d="M119.57,94.75c1.13,0,2.05-.57,2.05-1.27s-.92-1.27-2.05-1.27-2,.57-2,1.27S118.45,94.75,119.57,94.75Z"/><path class="cls-3" d="M119.57,89.86a1.77,1.77,0,0,0-1.59.73h-.07c0,.34,0,2.65,0,2.81,0,.56.75,1,1.67,1s1.67-.46,1.67-1V90.59h-.07A1.79,1.79,0,0,0,119.57,89.86Z"/><path class="cls-3" d="M119.57,88.92a2.15,2.15,0,0,0-1.95.9h-.09v.37c0,.7.91,1.27,2,1.27s2.05-.57,2.05-1.27v-.37h-.09A2.17,2.17,0,0,0,119.57,88.92Z"/><path class="cls-3" d="M119.57,91c1.13,0,2.05-.57,2.05-1.27s-.92-1.27-2.05-1.27-2,.57-2,1.27S118.45,91,119.57,91Z"/><path class="cls-3" d="M119.58,90.35c.73,0,1.33-.38,1.33-.83s-.6-.83-1.33-.83-1.34.37-1.34.83S118.84,90.35,119.58,90.35Z"/><path class="cls-3" d="M108.94,82.67c3.34,2,6.79,4.9,10.52,6.73L122,90.63c7.64,1,8.85,2.46,9.33,4.92.09.51-.85.87-1.29.61L116.4,88.32c-8.34-1.18-9-2.89-8.74-5A.87.87,0,0,1,108.94,82.67Z"/><path class="cls-3" d="M109,82.35l10.53,6.74,2.38,1.36c7.64,1,9,2.33,9.45,4.79.1.51-.85.86-1.29.61L116.48,88c-8.34-1.18-9-2.9-8.74-5.05A.88.88,0,0,1,109,82.35Z"/><path class="cls-3" d="M119.6,88c1.22,0,2.21.62,2.21,1.37s-1,1.38-2.21,1.38-2.21-.62-2.21-1.38S118.38,88,119.6,88Z"/><path class="cls-3" d="M119.6,86.65c-1.22,0-2.21,1.64-2.21,2.4s1,1.37,2.21,1.37,2.21-.61,2.21-1.37S120.82,86.65,119.6,86.65Z"/><path class="cls-3" d="M134,72.29a14,14,0,0,0-4.89,3.15l5.52,3.68c.55.48.72,1.27.09,1.6L129,83.78V85.1a16,16,0,0,0,4.75,3.08l7.42-3.64a3.65,3.65,0,0,1,2.72,0l7,3.51a13.55,13.55,0,0,0,4.51-3V83.94c-3.2-2.35-5.91-4.31-5.59-4.53l5.71-3.79a13.64,13.64,0,0,0-5.18-3.38l-7,3.36a3.8,3.8,0,0,1-2.72,0Z"/><path class="cls-3" d="M142.25,69.65c-8.44,0-15.29,4.25-15.29,9.49s6.85,9.5,15.29,9.5,15.29-4.26,15.29-9.5S150.7,69.65,142.25,69.65Z"/><path class="cls-3" d="M142.25,71C136.61,71,132,73.81,132,77.31s4.58,6.35,10.22,6.35,10.23-2.84,10.23-6.35S147.9,71,142.25,71Z"/><path class="cls-3" d="M142.25,71.8c-5.41,0-9.85,2.62-10.19,5.93.34,3.31,4.78,5.93,10.19,5.93s9.85-2.62,10.2-5.93C152.1,74.42,147.67,71.8,142.25,71.8Z"/><path class="cls-3" d="M142.25,72.15c-4.67,0-8.47,2.36-8.47,5.26s3.8,5.26,8.47,5.26,8.47-2.35,8.47-5.26S146.93,72.15,142.25,72.15Z"/><path class="cls-3" d="M142.25,71.57c-4.67,0-8.47,2.35-8.47,5.26s3.8,5.26,8.47,5.26,8.47-2.36,8.47-5.26S146.93,71.57,142.25,71.57Z"/></g></g></svg>