<svg version="1.1" width="1712" height="1515" viewBox="0 0 1712 1515" xmlns="http://www.w3.org/2000/svg" xmlns:xlink="http://www.w3.org/1999/xlink" overflow="hidden"><defs></defs><g><path d=" M 1488 1189.7 L 1488 1210.1 L 967.5 1515 L 967.5 1494.7 Z" fill="#488099"/></g><g><path d=" M 967.5 1494.7 L 967.5 1515 L 441.4 1213.8 L 441.4 1193.4 Z" fill="#376E8D"/></g><path d=" M 1488 1189.7 L 967.5 1494.7 L 441.4 1193.4 L 961.9 888.5 Z" fill="#5D93AB"/><path d=" M 806.8 1403.2 L 927.3 1472.2 L 1450 1168.1 L 1332.8 1100.6 L 1016.6 1281.2 L 996.5 1292.8 L 990 1296.6 Z" fill="#376E8D"/><path d="" fill="#EB6767"/><path d=" M 481.2 1174.4 L 961.8 1449.5 L 968.3 1453.3 L 1002.6 1472.8 L 1117.9 1405.5 L 600.1 1105 Z" fill="#376E8D"/><g><path d=" M 871.1 1279.8 L 859.6 1286.5 L 783.1 1242.7 L 794.6 1236 Z" fill="#FFF2FB"/><path d=" M 851.4 1291.4 L 839.8 1298.1 L 763.3 1254.3 L 774.9 1247.6 Z" fill="#FFF2FB"/><path d=" M 831.8 1302.8 L 820.2 1309.5 L 743.7 1265.7 L 755.3 1259 Z" fill="#FFF2FB"/><path d=" M 811.9 1314.3 L 800.3 1321.1 L 723.8 1277.3 L 735.4 1270.5 Z" fill="#FFF2FB"/><path d=" M 792.2 1325.7 L 780.6 1332.5 L 704.1 1288.6 L 715.7 1281.9 Z" fill="#FFF2FB"/></g><g><path d=" M 844.5 1396.7 L 844.6 1396.8 L 938 1450.3 L 943.2 1447.2 L 849.8 1393.8 L 849.7 1393.7 Z" fill="#FFF2FB"/><path d=" M 971.8 1322.3 L 1065.7 1376.1 L 1071 1373.1 L 977 1319.3 Z" fill="#FFF2FB"/><path d=" M 978.8 1448.6 L 984.1 1451.6 L 1080.2 1395.6 L 1080.3 1395.5 L 1075 1392.5 L 1074.9 1392.6 Z" fill="#FFF2FB"/><path d=" M 851.6 1376.2 L 856.8 1379.2 L 953.6 1322.9 L 948.4 1319.9 Z" fill="#FFF2FB"/></g><path d=" M 1273.7 1107.7 C 1263.3 1113.7 1246.4 1113.8 1235.9 1107.8 C 1225.4 1101.8 1225.3 1092 1235.7 1086 C 1246.1 1080 1263 1079.9 1273.5 1085.9 C 1283.9 1091.9 1284 1101.6 1273.7 1107.7 Z" id="XMLID_8_" fill="#488099"/><line x1="1254.4" y1="1033.1" x2="1254.6" y2="1093.3" id="XMLID_6_" stroke="#376E8D" stroke-miterlimit="10" fill="#376E8D"/><path d=" M 1284.1 1030.2 C 1284.2 1047.9 1270.1 1062.4 1252.8 1062.4 C 1235.4 1062.5 1221.3 1048.1 1221.3 1030.4 C 1221.2 1012.7 1235.1 958.1 1252.5 958 C 1269.7 958 1284 1012.5 1284.1 1030.2 Z" id="XMLID_4_" fill="#376E8D"/><path d="" fill="#EB6767"/><g><path d=" M 827 999.9 L 961.7 999.4 C 994.9 999.3 1021.8 982 1021.7 960.8 L 1021.4 874.8 C 997.4 868.6 995.7 868.1 971.7 861.8 L 806.3 968.3 C 816.3 983.6 817 984.7 827 999.9 Z" fill="#488099"/><path d=" M 827 999.9 L 827.1 1015.1 C 817.1 999.9 816.4 998.7 806.4 983.5 L 806.3 968.3 C 810.6 974.8 820 989.3 827 999.9 Z" fill="#376E8D"/><rect x="827" y="999.7" width="134.7" height="15.2" fill="#488099" transform="matrix(1,-0.00352528,0.00352528,1,-3.5455,3.1592)"/><path d=" M 1021.7 960.8 L 1021.8 976 C 1021.9 997.2 995 1014.5 961.8 1014.6 L 961.7 999.4 C 994.9 999.4 1021.8 982.1 1021.7 960.8 Z" fill="#5D93AB"/></g><g><path d=" M 1019.8 945.6 L 1019.9 960.8 C 1020 980.8 993.9 997.2 961.7 997.4 L 961.6 982.2 C 993.8 982.1 1019.9 965.7 1019.8 945.6 Z" fill="#505A5B"/><path d=" M 827.9 982.7 L 828 997.9 C 818 982.7 819.1 984.2 809.1 969 L 809 953.8 C 813.2 960.2 820.9 972 827.9 982.7 Z" fill="#393B38"/><rect x="827.9" y="982.4" width="133.8" height="15.2" fill="#41494A" transform="matrix(1,-0.00352528,0.00352528,1,-3.4846,3.1606)"/></g><g><path d=" M 826.9 969.5 L 961.6 969 C 994.8 968.9 1021.7 951.6 1021.6 930.4 L 1021.3 844.4 C 997.3 838.2 995.6 837.7 971.6 831.4 L 806.2 937.9 C 816.2 953.2 816.9 954.3 826.9 969.5 Z" fill="#488099"/><path d=" M 826.9 969.5 L 827 984.7 C 817 969.5 816.3 968.3 806.3 953.1 L 806.2 937.9 C 810.4 944.4 819.9 958.9 826.9 969.5 Z" fill="#376E8D"/><rect x="826.9" y="969.3" width="134.7" height="15.2" fill="#488099" transform="matrix(1,-0.00352528,0.00352528,1,-3.4383,3.1586)"/><path d=" M 1021.6 930.4 L 1021.7 945.6 C 1021.8 966.8 994.9 984.1 961.7 984.2 L 961.6 969 C 994.8 968.9 1021.7 951.6 1021.6 930.4 Z" fill="#5D93AB"/></g><g><path d=" M 1019.7 915.2 L 1019.8 930.4 C 1019.9 950.4 993.8 966.8 961.6 967 L 961.5 951.8 C 993.7 951.7 1019.8 935.3 1019.7 915.2 Z" fill="#505A5B"/><path d=" M 827.8 952.3 L 827.9 967.5 C 817.9 952.3 819 953.8 809 938.6 L 808.9 923.4 C 813.1 929.8 820.8 941.6 827.8 952.3 Z" fill="#393B38"/><rect x="827.8" y="952" width="133.8" height="15.2" fill="#41494A" transform="matrix(1,-0.00352528,0.00352528,1,-3.3774,3.16)"/></g><g><path d=" M 826.8 939.1 L 961.5 938.6 C 994.7 938.5 1021.6 921.2 1021.5 900 L 1021.2 814 C 997.2 807.8 995.5 807.3 971.5 801 L 806.1 907.5 C 816.1 922.7 816.8 923.9 826.8 939.1 Z" fill="#488099"/><path d=" M 826.8 939.1 L 826.9 954.3 C 816.9 939.1 816.2 937.9 806.2 922.7 L 806.1 907.5 C 810.3 914 819.8 928.5 826.8 939.1 Z" fill="#376E8D"/><rect x="826.8" y="938.9" width="134.7" height="15.2" fill="#488099" transform="matrix(1,-0.00352528,0.00352528,1,-3.3311,3.1581)"/><path d=" M 1021.5 900 L 1021.6 915.2 C 1021.7 936.4 994.8 953.7 961.6 953.8 L 961.5 938.6 C 994.7 938.5 1021.6 921.2 1021.5 900 Z" fill="#5D93AB"/></g><g><path d=" M 1019.6 884.8 L 1019.7 900 C 1019.8 920 993.7 936.4 961.5 936.6 L 961.4 921.4 C 993.6 921.3 1019.7 904.9 1019.6 884.8 Z" fill="#505A5B"/><path d=" M 827.7 921.8 L 827.8 937 C 817.8 921.8 818.9 923.3 808.9 908.1 L 808.8 892.9 C 813 899.4 820.7 911.2 827.7 921.8 Z" fill="#393B38"/><rect x="827.7" y="921.6" width="133.8" height="15.2" fill="#41494A" transform="matrix(1,-0.00352528,0.00352528,1,-3.2702,3.1594)"/></g><g><path d=" M 826.7 908.7 L 961.4 908.2 C 994.6 908.1 1021.5 890.8 1021.4 869.6 L 1021.1 783.6 C 997.1 777.4 995.4 776.9 971.4 770.6 L 806 877.1 C 816 892.3 816.7 893.5 826.7 908.7 Z" fill="#488099"/><path d=" M 826.7 908.7 L 826.8 923.9 C 816.8 908.7 816.1 907.5 806.1 892.3 L 806 877.1 C 810.2 883.6 819.7 898.1 826.7 908.7 Z" fill="#376E8D"/><rect x="826.7" y="908.5" width="134.7" height="15.2" fill="#488099" transform="matrix(1,-0.00352528,0.00352528,1,-3.2239,3.1575)"/><path d=" M 1021.4 869.6 L 1021.5 884.8 C 1021.6 906 994.7 923.3 961.5 923.4 L 961.4 908.2 C 994.6 908.1 1021.5 890.8 1021.4 869.6 Z" fill="#5D93AB"/></g><g><path d=" M 1019.5 854.4 L 1019.6 869.6 C 1019.7 889.6 993.6 906 961.4 906.2 L 961.3 891 C 993.5 890.8 1019.6 874.4 1019.5 854.4 Z" fill="#505A5B"/><path d=" M 827.6 891.4 L 827.7 906.6 C 817.7 891.4 818.8 892.9 808.8 877.7 L 808.7 862.5 C 812.9 869 820.6 880.8 827.6 891.4 Z" fill="#393B38"/><rect x="827.6" y="891.2" width="133.8" height="15.2" fill="#41494A" transform="matrix(1,-0.00352528,0.00352528,1,-3.1629,3.1589)"/></g><g><path d=" M 826.6 878.3 L 961.3 877.8 C 994.5 877.7 1021.4 860.4 1021.3 839.2 L 1021 753.2 C 997 747 995.3 746.5 971.3 740.2 L 805.9 846.7 C 815.9 861.9 816.6 863 826.6 878.3 Z" fill="#488099"/><path d=" M 826.6 878.3 L 826.7 893.5 C 816.7 878.3 816 877.1 806 861.9 L 805.9 846.7 C 810.1 853.1 819.6 867.7 826.6 878.3 Z" fill="#376E8D"/><rect x="826.6" y="878.1" width="134.7" height="15.2" fill="#488099" transform="matrix(1,-0.00352528,0.00352528,1,-3.1166,3.1569)"/><path d=" M 1021.3 839.2 L 1021.4 854.4 C 1021.5 875.6 994.6 892.9 961.4 893 L 961.3 877.8 C 994.5 877.7 1021.4 860.4 1021.3 839.2 Z" fill="#5D93AB"/></g><g><path d=" M 1019.4 824 L 1019.5 839.2 C 1019.6 859.2 993.5 875.6 961.3 875.8 L 961.2 860.6 C 993.4 860.4 1019.5 844 1019.4 824 Z" fill="#505A5B"/><path d=" M 827.5 861 L 827.6 876.2 C 817.6 861 818.7 862.5 808.7 847.3 L 808.6 832.1 C 812.8 838.6 820.5 850.4 827.5 861 Z" fill="#393B38"/><rect x="827.5" y="860.8" width="133.8" height="15.2" fill="#41494A" transform="matrix(1,-0.00352528,0.00352528,1,-3.0557,3.1583)"/></g><g><path d=" M 826.5 847.9 L 961.2 847.4 C 994.4 847.3 1021.3 830 1021.2 808.8 L 1020.9 722.8 C 996.9 716.6 995.2 716.1 971.2 709.8 L 805.8 816.3 C 815.7 831.5 816.5 832.6 826.5 847.9 Z" fill="#488099"/><path d=" M 826.5 847.9 L 826.6 863.1 C 816.6 847.9 815.9 846.7 805.9 831.5 L 805.8 816.3 C 810 822.7 819.5 837.2 826.5 847.9 Z" fill="#376E8D"/><rect x="826.5" y="847.6" width="134.7" height="15.2" fill="#488099" transform="matrix(1,-0.00352528,0.00352528,1,-3.0094,3.1564)"/><path d=" M 1021.2 808.8 L 1021.3 824 C 1021.4 845.2 994.5 862.5 961.3 862.6 L 961.2 847.4 C 994.4 847.3 1021.3 830 1021.2 808.8 Z" fill="#5D93AB"/></g><g><path d=" M 1019.3 793.6 L 1019.4 808.8 C 1019.5 828.8 993.4 845.2 961.2 845.4 L 961.1 830.2 C 993.3 830 1019.4 813.6 1019.3 793.6 Z" fill="#505A5B"/><path d=" M 827.3 830.6 L 827.4 845.8 C 817.4 830.6 818.5 832.1 808.5 816.9 L 808.4 801.7 C 812.7 808.2 820.4 820 827.3 830.6 Z" fill="#393B38"/><rect x="827.4" y="830.4" width="133.8" height="15.2" fill="#41494A" transform="matrix(1,-0.00352528,0.00352528,1,-2.9485,3.1577)"/></g><g><path d=" M 826.3 817.5 L 961 817 C 994.2 816.9 1021.1 799.6 1021 778.4 L 1020.7 692.4 C 996.7 686.2 995 685.7 971 679.4 L 805.7 785.8 C 815.6 801.1 816.4 802.2 826.3 817.5 Z" fill="#488099"/><path d=" M 826.3 817.5 L 826.4 832.7 C 816.4 817.5 815.7 816.3 805.7 801.1 L 805.6 785.9 C 809.9 792.3 819.4 806.8 826.3 817.5 Z" fill="#376E8D"/><rect x="826.4" y="817.2" width="134.7" height="15.2" fill="#488099" transform="matrix(1,-0.00352528,0.00352528,1,-2.9022,3.1558)"/><path d=" M 1021.1 778.4 L 1021.2 793.6 C 1021.3 814.8 994.4 832.1 961.2 832.2 L 961.1 817 C 994.3 816.9 1021.2 799.6 1021.1 778.4 Z" fill="#5D93AB"/></g><g><path d=" M 1019.2 763.2 L 1019.3 778.4 C 1019.4 798.4 993.3 814.8 961.1 815 L 961 799.8 C 993.2 799.6 1019.3 783.2 1019.2 763.2 Z" fill="#505A5B"/><path d=" M 827.2 800.2 L 827.3 815.4 C 817.3 800.2 818.4 801.7 808.4 786.5 L 808.3 771.3 C 812.6 777.8 820.3 789.5 827.2 800.2 Z" fill="#393B38"/><rect x="827.3" y="799.9" width="133.8" height="15.2" fill="#41494A" transform="matrix(1,-0.00352528,0.00352528,1,-2.8413,3.1572)"/></g><g><path d=" M 826.2 787 L 960.9 786.5 C 994.1 786.4 1021 769.1 1020.9 747.9 L 1020.6 661.9 C 996.6 655.7 994.9 655.2 970.9 648.9 L 805.6 755.4 C 815.5 770.7 816.3 771.8 826.2 787 Z" fill="#488099"/><path d=" M 826.2 787 L 826.3 802.2 C 816.3 787 815.6 785.8 805.6 770.6 L 805.5 755.4 C 809.8 761.9 819.3 776.4 826.2 787 Z" fill="#376E8D"/><rect x="826.3" y="786.8" width="134.7" height="15.2" fill="#488099" transform="matrix(1,-0.00352528,0.00352528,1,-2.795,3.1552)"/><path d=" M 1021 747.9 L 1021.1 763.1 C 1021.2 784.3 994.3 801.6 961.1 801.7 L 961 786.5 C 994.2 786.5 1021.1 769.2 1021 747.9 Z" fill="#5D93AB"/></g><g><path d=" M 1019.1 732.7 L 1019.2 747.9 C 1019.3 767.9 993.2 784.3 961 784.5 L 960.9 769.3 C 993.1 769.2 1019.1 752.8 1019.1 732.7 Z" fill="#505A5B"/><path d=" M 827.1 769.8 L 827.2 785 C 817.2 769.8 818.3 771.3 808.3 756.1 L 808.2 740.9 C 812.5 747.3 820.2 759.1 827.1 769.8 Z" fill="#393B38"/><rect x="827.2" y="769.5" width="133.8" height="15.2" fill="#41494A" transform="matrix(1,-0.00352528,0.00352528,1,-2.7341,3.1566)"/></g><g><path d=" M 826.1 756.6 L 960.8 756.1 C 994 756 1020.9 738.7 1020.8 717.5 L 1020.5 631.5 C 996.5 625.3 994.8 624.8 970.8 618.5 L 805.5 725 C 815.4 740.3 816.2 741.4 826.1 756.6 Z" fill="#488099"/><path d=" M 826.1 756.6 L 826.2 771.8 C 816.2 756.6 815.5 755.4 805.5 740.2 L 805.4 725 C 809.7 731.5 819.2 746 826.1 756.6 Z" fill="#376E8D"/><rect x="826.2" y="756.4" width="134.7" height="15.2" fill="#488099" transform="matrix(1,-0.00352528,0.00352528,1,-2.6877,3.1547)"/><path d=" M 1020.9 717.5 L 1021 732.7 C 1021.1 753.9 994.2 771.2 961 771.3 L 960.9 756.1 C 994.1 756 1021 738.7 1020.9 717.5 Z" fill="#5D93AB"/></g><g><path d=" M 1019 702.3 L 1019.1 717.5 C 1019.2 737.5 993.1 753.9 960.9 754.1 L 960.8 738.9 C 992.9 738.8 1019 722.4 1019 702.3 Z" fill="#505A5B"/><path d=" M 827 739.4 L 827.1 754.6 C 817.1 739.4 818.2 740.9 808.2 725.7 L 808.1 710.5 C 812.4 716.9 820.1 728.7 827 739.4 Z" fill="#393B38"/><rect x="827.1" y="739.1" width="133.8" height="15.2" fill="#41494A" transform="matrix(1,-0.00352528,0.00352528,1,-2.6268,3.156)"/></g><g><path d=" M 826 726.2 L 960.7 725.7 C 993.9 725.6 1020.8 708.3 1020.7 687.1 L 1020.4 601.1 C 996.4 594.9 994.7 594.4 970.7 588.1 L 805.4 694.6 C 815.3 709.8 816.1 711 826 726.2 Z" fill="#488099"/><path d=" M 826 726.2 L 826.1 741.4 C 816.1 726.2 815.4 725 805.4 709.8 L 805.3 694.6 C 809.6 701.1 819.1 715.6 826 726.2 Z" fill="#376E8D"/><rect x="826" y="726" width="134.7" height="15.2" fill="#488099" transform="matrix(1,-0.00352528,0.00352528,1,-2.5805,3.1541)"/><path d=" M 1020.8 687.1 L 1020.9 702.3 C 1021 723.5 994.1 740.8 960.9 740.9 L 960.8 725.7 C 994 725.6 1020.9 708.3 1020.8 687.1 Z" fill="#5D93AB"/></g><g><path d=" M 1018.9 671.9 L 1019 687.1 C 1019.1 707.1 993 723.5 960.8 723.7 L 960.7 708.5 C 992.8 708.4 1018.9 692 1018.9 671.9 Z" fill="#505A5B"/><path d=" M 826.9 708.9 L 827 724.1 C 817 708.9 818.1 710.4 808.1 695.2 L 808 680 C 812.3 686.5 820 698.3 826.9 708.9 Z" fill="#393B38"/><rect x="826.9" y="708.7" width="133.8" height="15.2" fill="#41494A" transform="matrix(1,-0.00352528,0.00352528,1,-2.5196,3.1555)"/></g><g><path d=" M 825.9 695.8 L 960.6 695.3 C 993.8 695.2 1020.7 677.9 1020.6 656.7 L 1020.3 570.7 C 996.3 564.5 994.6 564 970.6 557.7 L 805.2 664.2 C 815.2 679.4 815.9 680.6 825.9 695.8 Z" fill="#488099"/><path d=" M 825.9 695.8 L 826 711 C 816 695.8 815.3 694.6 805.3 679.4 L 805.2 664.2 C 809.5 670.7 819 685.2 825.9 695.8 Z" fill="#376E8D"/><rect x="825.9" y="695.6" width="134.7" height="15.2" fill="#488099" transform="matrix(1,-0.00352528,0.00352528,1,-2.4733,3.1535)"/><path d=" M 1020.7 656.7 L 1020.8 671.9 C 1020.9 693.1 994 710.4 960.8 710.5 L 960.7 695.3 C 993.9 695.2 1020.8 677.9 1020.7 656.7 Z" fill="#5D93AB"/></g><g><path d=" M 1018.8 641.5 L 1018.9 656.7 C 1019 676.7 992.9 693.1 960.7 693.3 L 960.6 678.1 C 992.7 677.9 1018.8 661.5 1018.8 641.5 Z" fill="#505A5B"/><path d=" M 826.8 678.5 L 826.9 693.7 C 816.9 678.5 818 680 808 664.8 L 807.9 649.6 C 812.2 656.1 819.9 667.9 826.8 678.5 Z" fill="#393B38"/><rect x="826.8" y="678.3" width="133.8" height="15.2" fill="#41494A" transform="matrix(1,-0.00352528,0.00352528,1,-2.4124,3.1549)"/></g><g><path d=" M 825.8 665.4 L 960.5 664.9 C 993.7 664.8 1020.6 647.5 1020.5 626.3 L 1020.2 540.3 C 996.2 534.1 994.5 533.6 970.5 527.3 L 805.1 633.8 C 815.1 649 815.8 650.1 825.8 665.4 Z" fill="#488099"/><path d=" M 825.8 665.4 L 825.9 680.6 C 815.9 665.4 815.2 664.2 805.2 649 L 805.1 633.8 C 809.4 640.2 818.9 654.7 825.8 665.4 Z" fill="#376E8D"/><rect x="825.8" y="665.1" width="134.7" height="15.2" fill="#488099" transform="matrix(1,-0.00352528,0.00352528,1,-2.3661,3.153)"/><path d=" M 1020.6 626.3 L 1020.7 641.5 C 1020.8 662.7 993.9 680 960.7 680.1 L 960.6 664.9 C 993.8 664.8 1020.6 647.5 1020.6 626.3 Z" fill="#5D93AB"/></g><g><path d=" M 1018.6 611.1 L 1018.7 626.3 C 1018.8 646.3 992.7 662.7 960.5 662.9 L 960.4 647.7 C 992.6 647.5 1018.7 631.1 1018.6 611.1 Z" fill="#505A5B"/><path d=" M 826.7 648.1 L 826.8 663.3 C 816.8 648.1 817.9 649.6 807.9 634.4 L 807.8 619.2 C 812 625.7 819.8 637.5 826.7 648.1 Z" fill="#393B38"/><rect x="826.7" y="647.9" width="133.8" height="15.2" fill="#41494A" transform="matrix(1,-0.00352528,0.00352528,1,-2.3052,3.1543)"/></g><g><path d=" M 825.7 635 L 960.4 634.5 C 993.6 634.4 1020.5 617.1 1020.4 595.9 L 1020.1 509.9 C 996.1 503.7 994.4 503.2 970.4 496.9 L 805 603.3 C 815 618.6 815.7 619.7 825.7 635 Z" fill="#488099"/><path d=" M 825.7 635 L 825.8 650.2 C 815.8 635 815.1 633.8 805.1 618.6 L 805 603.4 C 809.3 609.8 818.7 624.3 825.7 635 Z" fill="#376E8D"/><rect x="825.7" y="634.7" width="134.7" height="15.2" fill="#488099" transform="matrix(1,-0.00352528,0.00352528,1,-2.2589,3.1524)"/><path d=" M 1020.5 595.9 L 1020.6 611.1 C 1020.7 632.3 993.8 649.6 960.6 649.7 L 960.5 634.5 C 993.7 634.4 1020.5 617.1 1020.5 595.9 Z" fill="#5D93AB"/></g><g><path d=" M 1018.5 580.7 L 1018.6 595.9 C 1018.7 615.9 992.6 632.3 960.4 632.5 L 960.3 617.3 C 992.5 617.1 1018.6 600.7 1018.5 580.7 Z" fill="#505A5B"/><path d=" M 826.6 617.7 L 826.7 632.9 C 816.7 617.7 817.8 619.2 807.8 604 L 807.7 588.8 C 811.9 595.3 819.6 607.1 826.6 617.7 Z" fill="#393B38"/><rect x="826.6" y="617.5" width="133.8" height="15.2" fill="#41494A" transform="matrix(1,-0.00352528,0.00352528,1,-2.198,3.1538)"/></g><g><path d=" M 825.6 604.6 L 960.3 604.1 C 993.5 604 1020.4 586.7 1020.3 565.5 L 1020 479.5 C 996 473.3 994.3 472.8 970.3 466.5 L 804.9 572.9 C 814.9 588.2 815.6 589.3 825.6 604.6 Z" fill="#488099"/><path d=" M 825.6 604.6 L 825.7 619.8 C 815.7 604.6 815 603.4 805 588.2 L 804.9 573 C 809.2 579.4 818.6 593.9 825.6 604.6 Z" fill="#376E8D"/><rect x="825.6" y="604.3" width="134.7" height="15.2" fill="#488099" transform="matrix(1,-0.00352528,0.00352528,1,-2.1516,3.1518)"/><path d=" M 1020.4 565.5 L 1020.5 580.7 C 1020.6 601.9 993.7 619.2 960.5 619.3 L 960.4 604.1 C 993.6 604 1020.4 586.7 1020.4 565.5 Z" fill="#5D93AB"/></g><g><path d=" M 1018.4 550.3 L 1018.5 565.5 C 1018.6 585.5 992.5 601.9 960.3 602.1 L 960.2 586.9 C 992.4 586.7 1018.5 570.3 1018.4 550.3 Z" fill="#505A5B"/><path d=" M 826.5 587.3 L 826.6 602.5 C 816.6 587.3 817.7 588.8 807.7 573.6 L 807.6 558.4 C 811.8 564.8 819.5 576.6 826.5 587.3 Z" fill="#393B38"/><rect x="826.5" y="587" width="133.8" height="15.2" fill="#41494A" transform="matrix(1,-0.00352528,0.00352528,1,-2.0907,3.1532)"/></g><path d=" M 825.5 574.1 L 960.2 573.6 C 993.4 573.5 1020.3 556.2 1020.2 535 L 1019.9 449 C 995.9 442.8 994.2 442.3 970.2 436 L 804.8 542.5 C 814.8 557.8 815.5 558.9 825.5 574.1 Z" fill="#5D93AB"/><g><path d=" M 971.2 442.7 L 971.2 453 L 817.8 551.7 L 813 544.4 Z" fill="#376E8D"/><path d=" M 1014.4 453.9 L 1014.4 464.3 L 971.2 453 L 971.2 442.7 Z" fill="#376E8D"/><path d=" M 960.2 567.5 L 828.3 568 L 817.7 551.8 L 971.2 453 L 1014.4 464.3 L 1014.6 535.1 C 1014.7 552.5 989.8 567.4 960.2 567.5 Z" fill="#488099"/></g><path d=" M 960.2 573.7 L 936.3 573.8 L 925.9 567.6 L 932.1 567.6 L 896.3 546.1 L 948.7 512.4 L 1003.3 512.2 Z" fill="#B9ADA5"/><path d=" M 825.5 574.1 L 825.6 589.3 C 815.6 574.1 814.9 572.9 804.9 557.7 L 804.8 542.5 C 809.1 549 818.5 563.5 825.5 574.1 Z" fill="#376E8D"/><rect x="825.5" y="573.9" width="134.7" height="15.2" fill="#488099" transform="matrix(1,-0.00352528,0.00352528,1,-2.0444,3.1513)"/><path d=" M 1020.2 535 L 1020.3 550.2 C 1020.4 571.4 993.5 588.7 960.3 588.8 L 960.2 573.6 C 993.4 573.5 1020.3 556.3 1020.2 535 Z" fill="#5D93AB"/><g><path d=" M 1020.1 489.6 L 1020.3 535.1 C 1020.4 556.3 993.5 573.6 960.3 573.7 L 960.1 528.2 C 993.3 528.1 1020.2 510.8 1020.1 489.6 Z" fill="#5D93AB"/><path d=" M 1020.1 489.6 L 1020.1 494.1 C 1020.2 515.3 993.3 532.6 960.1 532.7 L 960.1 528.2 C 993.3 528.1 1020.2 510.8 1020.1 489.6 Z" fill="#B9ADA5"/><path d=" M 960.1 528.2 L 960.2 573.7 L 950.8 567.7 L 950.7 522.3 Z" fill="#376E8D"/></g><path d=" M 960 526.1 C 992.9 526 1020 509.1 1021.8 487.7 L 1021.8 487 C 1021.8 486.4 1021.9 485.9 1021.9 485.3 L 1021.9 484.1 L 1008.8 475.8 L 1008.8 479.4 C 1008.9 499.4 982.8 515.8 950.6 516 L 943.6 516 L 959.5 526 L 960 526.1 Z" fill="#5D93AB"/><path d=" M 959.5 526.1 L 959.6 530.3 L 943.7 520.2 L 943.7 516.1 Z" fill="#376E8D"/><path d=" M 960 526.1 C 992.9 526 1020 509.1 1021.8 487.7 L 1021.8 487 C 1021.8 486.4 1021.9 485.9 1021.9 485.3 L 1021.9 488.2 L 1021.9 489.4 C 1021.9 490 1021.9 490.5 1021.8 491.1 L 1021.8 491.8 C 1020 513.2 992.9 530 960 530.2 L 959.5 530.2 L 959.5 526.1 L 960 526.1 Z" fill="#5D93AB"/><g><path d=" M 840.4 546 L 865.6 529.7 L 890.9 545.8 L 885.1 549.5 L 887.4 554.2 L 877.8 554.2 L 874.1 556.6 L 875.3 561.8 L 865.9 561.9 L 865.7 562 Z" fill="#B9ADA5"/><g><g><path d=" M 860.3 532.2 L 868.1 537.1 L 875.8 532.1 L 868 527.2 Z" fill="#5D93AB"/><path d=" M 868.1 537.1 L 868.1 542 L 860.3 537.1 L 860.3 532.2 Z" fill="#376E8D"/><path d=" M 875.8 532.1 L 875.8 537 L 868.1 542 L 868.1 537.1 Z" fill="#488099"/></g><g><path d=" M 865.3 530.6 C 866.8 529.6 869.3 529.6 870.9 530.6 C 871.6 531 872 531.6 872 532.1 C 871.9 532.7 871.5 533.2 870.9 533.7 C 869.4 534.7 866.9 534.7 865.3 533.7 C 864.6 533.3 864.2 532.7 864.2 532.2 C 864.2 531.6 864.6 531 865.3 530.6 Z" fill="#59504B"/><path d=" M 870.8 530.6 C 869.3 529.6 866.8 529.6 865.2 530.6 C 864.5 531 864.1 531.6 864.1 532.2 C 864 531.5 864.4 530.7 865.2 530.2 C 866.7 529.2 869.2 529.2 870.8 530.2 C 871.7 530.7 872 531.5 871.9 532.2 C 871.9 531.5 871.5 531 870.8 530.6 Z" fill="#376E8D"/></g></g><g><g><path d=" M 870 538.3 L 877.7 543.2 L 885.4 538.2 L 877.7 533.3 Z" fill="#5D93AB"/><path d=" M 877.7 543.2 L 877.7 548.1 L 870 543.2 L 870 538.3 Z" fill="#376E8D"/><path d=" M 885.4 538.2 L 885.4 543.1 L 877.7 548.1 L 877.7 543.2 Z" fill="#488099"/></g><g><path d=" M 874.9 536.7 C 876.4 535.7 878.9 535.7 880.5 536.7 C 881.2 537.1 881.6 537.7 881.6 538.2 C 881.5 538.8 881.1 539.3 880.5 539.8 C 879 540.8 876.5 540.8 874.9 539.8 C 874.2 539.4 873.8 538.8 873.8 538.3 C 873.8 537.7 874.2 537.1 874.9 536.7 Z" fill="#59504B"/><path d=" M 880.5 536.7 C 879 535.7 876.5 535.7 874.9 536.7 C 874.2 537.1 873.8 537.7 873.8 538.3 C 873.7 537.6 874.1 536.8 874.9 536.3 C 876.4 535.3 878.9 535.3 880.5 536.3 C 881.4 536.8 881.7 537.6 881.6 538.3 C 881.5 537.7 881.2 537.1 880.5 536.7 Z" fill="#376E8D"/></g></g><g><g><path d=" M 879.6 544.4 L 887.4 549.3 L 895.1 544.3 L 887.3 539.4 Z" fill="#5D93AB"/><path d=" M 887.4 549.3 L 887.4 554.2 L 879.6 549.3 L 879.6 544.4 Z" fill="#376E8D"/><path d=" M 895.1 544.3 L 895.1 549.3 L 887.4 554.2 L 887.4 549.3 Z" fill="#488099"/></g><g><path d=" M 884.6 542.8 C 886.1 541.8 888.6 541.8 890.2 542.8 C 890.9 543.2 891.3 543.8 891.3 544.3 C 891.2 544.9 890.8 545.4 890.2 545.9 C 888.7 546.9 886.2 546.9 884.6 545.9 C 883.9 545.5 883.5 544.9 883.5 544.4 C 883.5 543.8 883.9 543.2 884.6 542.8 Z" fill="#59504B"/><path d=" M 890.1 542.8 C 888.6 541.8 886.1 541.8 884.5 542.8 C 883.8 543.2 883.4 543.8 883.4 544.4 C 883.3 543.7 883.7 542.9 884.5 542.4 C 886 541.4 888.5 541.4 890.1 542.4 C 891 542.9 891.3 543.7 891.2 544.4 C 891.2 543.8 890.8 543.2 890.1 542.8 Z" fill="#376E8D"/></g></g><g><g><path d=" M 848.3 539.8 L 856 544.7 L 863.7 539.7 L 856 534.8 Z" fill="#5D93AB"/><path d=" M 856 544.7 L 856 549.6 L 848.3 544.7 L 848.3 539.8 Z" fill="#376E8D"/><path d=" M 863.7 539.7 L 863.7 544.7 L 856 549.6 L 856 544.7 Z" fill="#488099"/></g><g><path d=" M 853.2 538.2 C 854.7 537.2 857.2 537.2 858.8 538.2 C 859.5 538.6 859.9 539.2 859.9 539.7 C 859.8 540.3 859.4 540.8 858.8 541.3 C 857.3 542.3 854.8 542.3 853.2 541.3 C 852.5 540.9 852.1 540.3 852.1 539.8 C 852.1 539.2 852.5 538.6 853.2 538.2 Z" fill="#59504B"/><path d=" M 858.8 538.2 C 857.3 537.2 854.8 537.2 853.2 538.2 C 852.5 538.6 852.1 539.2 852.1 539.8 C 852 539.1 852.4 538.3 853.2 537.8 C 854.7 536.8 857.2 536.8 858.8 537.8 C 859.7 538.3 860 539.1 859.9 539.8 C 859.8 539.2 859.5 538.6 858.8 538.2 Z" fill="#376E8D"/></g></g><g><g><path d=" M 857.9 545.9 L 865.7 550.8 L 873.4 545.8 L 865.6 540.9 Z" fill="#5D93AB"/><path d=" M 865.7 550.8 L 865.7 555.7 L 858 550.8 L 857.9 545.9 Z" fill="#376E8D"/><path d=" M 873.4 545.8 L 873.4 550.8 L 865.7 555.7 L 865.7 550.8 Z" fill="#488099"/></g><g><path d=" M 862.9 544.3 C 864.4 543.3 866.9 543.3 868.5 544.3 C 869.2 544.7 869.6 545.3 869.6 545.8 C 869.5 546.4 869.1 546.9 868.5 547.4 C 867 548.4 864.5 548.4 862.9 547.4 C 862.2 547 861.8 546.4 861.8 545.9 C 861.8 545.3 862.2 544.7 862.9 544.3 Z" fill="#59504B"/><path d=" M 868.4 544.3 C 866.9 543.3 864.4 543.3 862.8 544.3 C 862.1 544.7 861.7 545.3 861.7 545.9 C 861.6 545.2 862 544.4 862.8 543.9 C 864.3 542.9 866.8 542.9 868.4 543.9 C 869.3 544.4 869.6 545.2 869.5 545.9 C 869.5 545.3 869.1 544.7 868.4 544.3 Z" fill="#376E8D"/></g></g><g><g><path d=" M 867.6 552 L 875.3 556.9 L 883 552 L 875.3 547.1 Z" fill="#5D93AB"/><path d=" M 875.3 556.9 L 875.3 561.8 L 867.6 556.9 L 867.6 552 Z" fill="#376E8D"/><path d=" M 883 552 L 883 556.9 L 875.3 561.8 L 875.3 556.9 Z" fill="#488099"/></g><g><path d=" M 872.5 550.4 C 874 549.4 876.5 549.4 878.1 550.4 C 878.8 550.8 879.2 551.4 879.2 551.9 C 879.1 552.5 878.7 553 878.1 553.5 C 876.6 554.5 874.1 554.5 872.5 553.5 C 871.8 553.1 871.4 552.5 871.4 552 C 871.5 551.4 871.8 550.9 872.5 550.4 Z" fill="#59504B"/><path d=" M 878.1 550.4 C 876.6 549.4 874.1 549.4 872.5 550.4 C 871.8 550.8 871.4 551.4 871.4 552 C 871.3 551.3 871.7 550.5 872.5 550 C 874 549 876.5 549 878.1 550 C 879 550.5 879.3 551.3 879.2 552 C 879.1 551.4 878.8 550.8 878.1 550.4 Z" fill="#376E8D"/></g></g></g><g><path d=" M 946.5 478.7 L 971.7 462.5 L 997.1 478.5 L 991.3 482.3 L 993.5 487 L 983.9 487 L 980.3 489.3 L 981.5 494.6 L 972.1 494.6 L 971.8 494.8 Z" fill="#B9ADA5"/><g><g><path d=" M 966.5 464.9 L 974.2 469.8 L 981.9 464.9 L 974.2 460 Z" fill="#5D93AB"/><path d=" M 974.2 469.8 L 974.2 474.7 L 966.5 469.8 L 966.5 464.9 Z" fill="#376E8D"/><path d=" M 981.9 464.9 L 981.9 469.8 L 974.2 474.7 L 974.2 469.8 Z" fill="#488099"/></g><g><path d=" M 971.4 463.3 C 972.9 462.3 975.4 462.3 977 463.3 C 977.7 463.7 978.1 464.3 978.1 464.8 C 978 465.4 977.6 465.9 977 466.4 C 975.5 467.4 973 467.4 971.4 466.4 C 970.7 466 970.3 465.4 970.3 464.9 C 970.3 464.3 970.7 463.8 971.4 463.3 Z" fill="#59504B"/><path d=" M 977 463.3 C 975.5 462.3 973 462.3 971.4 463.3 C 970.7 463.7 970.3 464.3 970.3 464.9 C 970.2 464.2 970.6 463.4 971.4 462.9 C 972.9 461.9 975.4 461.9 977 462.9 C 977.9 463.4 978.2 464.2 978.1 464.9 C 978 464.3 977.6 463.7 977 463.3 Z" fill="#376E8D"/></g></g><g><g><path d=" M 976.1 471 L 983.9 475.9 L 991.5 471 L 983.8 466.1 Z" fill="#5D93AB"/><path d=" M 983.9 475.9 L 983.9 480.8 L 976.1 475.9 L 976.1 471 Z" fill="#376E8D"/><path d=" M 991.5 471 L 991.6 475.9 L 983.9 480.8 L 983.9 475.9 Z" fill="#488099"/></g><g><path d=" M 981 469.4 C 982.5 468.4 985 468.4 986.6 469.4 C 987.3 469.8 987.7 470.4 987.7 470.9 C 987.6 471.5 987.2 472 986.6 472.5 C 985.1 473.5 982.6 473.5 981 472.5 C 980.3 472.1 979.9 471.5 979.9 471 C 980 470.4 980.4 469.9 981 469.4 Z" fill="#59504B"/><path d=" M 986.6 469.4 C 985.1 468.4 982.6 468.4 981 469.4 C 980.3 469.8 979.9 470.4 979.9 471 C 979.8 470.3 980.2 469.5 981 469 C 982.5 468 985 468 986.6 469 C 987.5 469.5 987.8 470.3 987.7 471 C 987.7 470.4 987.3 469.8 986.6 469.4 Z" fill="#376E8D"/></g></g><g><g><path d=" M 985.8 477.1 L 993.5 482 L 1001.2 477.1 L 993.5 472.2 Z" fill="#5D93AB"/><path d=" M 993.5 482 L 993.5 487 L 985.8 482.1 L 985.8 477.1 Z" fill="#376E8D"/><path d=" M 1001.2 477.1 L 1001.2 482 L 993.5 487 L 993.5 482 Z" fill="#488099"/></g><g><path d=" M 990.7 475.5 C 992.2 474.5 994.7 474.5 996.3 475.5 C 997 475.9 997.4 476.5 997.4 477 C 997.3 477.6 996.9 478.1 996.3 478.6 C 994.8 479.6 992.3 479.6 990.7 478.6 C 990 478.2 989.6 477.6 989.6 477.1 C 989.6 476.5 990 476 990.7 475.5 Z" fill="#59504B"/><path d=" M 996.3 475.5 C 994.8 474.5 992.3 474.5 990.7 475.5 C 990 475.9 989.6 476.5 989.6 477.1 C 989.5 476.4 989.9 475.6 990.7 475.1 C 992.2 474.1 994.7 474.1 996.3 475.1 C 997.2 475.6 997.5 476.4 997.4 477.1 C 997.3 476.5 996.9 476 996.3 475.5 Z" fill="#376E8D"/></g></g><g><g><path d=" M 954.4 472.5 L 962.2 477.4 L 969.8 472.5 L 962.1 467.6 Z" fill="#5D93AB"/><path d=" M 962.2 477.4 L 962.2 482.4 L 954.4 477.5 L 954.4 472.5 Z" fill="#376E8D"/><path d=" M 969.8 472.5 L 969.9 477.4 L 962.2 482.4 L 962.2 477.4 Z" fill="#488099"/></g><g><path d=" M 959.3 470.9 C 960.8 469.9 963.3 469.9 964.9 470.9 C 965.6 471.3 966 471.9 966 472.4 C 965.9 473 965.5 473.5 964.9 474 C 963.4 475 960.9 475 959.3 474 C 958.6 473.6 958.2 473 958.2 472.5 C 958.3 471.9 958.7 471.4 959.3 470.9 Z" fill="#59504B"/><path d=" M 964.9 470.9 C 963.4 469.9 960.9 469.9 959.3 470.9 C 958.6 471.3 958.2 471.9 958.2 472.5 C 958.1 471.8 958.5 471 959.3 470.5 C 960.8 469.5 963.3 469.5 964.9 470.5 C 965.8 471 966.1 471.8 966 472.5 C 966 471.9 965.6 471.3 964.9 470.9 Z" fill="#376E8D"/></g></g><g><g><path d=" M 964.1 478.6 L 971.8 483.5 L 979.5 478.6 L 971.8 473.7 Z" fill="#5D93AB"/><path d=" M 971.8 483.5 L 971.8 488.5 L 964.1 483.6 L 964.1 478.6 Z" fill="#376E8D"/><path d=" M 979.5 478.6 L 979.5 483.5 L 971.8 488.5 L 971.8 483.5 Z" fill="#488099"/></g><g><path d=" M 969 477.1 C 970.5 476.1 973 476.1 974.6 477.1 C 975.3 477.5 975.7 478.1 975.7 478.6 C 975.6 479.2 975.2 479.7 974.6 480.2 C 973.1 481.2 970.6 481.2 969 480.2 C 968.3 479.8 967.9 479.2 967.9 478.7 C 967.9 478 968.3 477.5 969 477.1 Z" fill="#59504B"/><path d=" M 974.6 477 C 973.1 476 970.6 476 969 477 C 968.3 477.4 967.9 478 967.9 478.6 C 967.8 477.9 968.2 477.1 969 476.6 C 970.5 475.6 973 475.6 974.6 476.6 C 975.5 477.1 975.8 477.9 975.7 478.6 C 975.6 478 975.2 477.5 974.6 477 Z" fill="#376E8D"/></g></g><g><g><path d=" M 973.7 484.8 L 981.5 489.7 L 989.1 484.7 L 981.4 479.8 Z" fill="#5D93AB"/><path d=" M 981.5 489.7 L 981.5 494.6 L 973.7 489.7 L 973.7 484.8 Z" fill="#376E8D"/><path d=" M 989.1 484.7 L 989.2 489.6 L 981.5 494.6 L 981.5 489.7 Z" fill="#488099"/></g><g><path d=" M 978.6 483.2 C 980.1 482.2 982.6 482.2 984.2 483.2 C 984.9 483.6 985.3 484.2 985.3 484.7 C 985.2 485.3 984.8 485.8 984.2 486.3 C 982.7 487.3 980.2 487.3 978.6 486.3 C 977.9 485.9 977.5 485.3 977.5 484.8 C 977.6 484.2 978 483.6 978.6 483.2 Z" fill="#59504B"/><path d=" M 984.2 483.1 C 982.7 482.1 980.2 482.1 978.6 483.1 C 977.9 483.5 977.5 484.1 977.5 484.7 C 977.4 484 977.8 483.2 978.6 482.7 C 980.1 481.7 982.6 481.7 984.2 482.7 C 985.1 483.2 985.4 484 985.3 484.7 C 985.3 484.1 984.9 483.6 984.2 483.1 Z" fill="#376E8D"/></g></g></g><g><path d=" M 906.2 1016.6 L 845.7 1051.8 L 846 1136.4 C 846 1143.8 850 1150.6 856.4 1154.3 L 929.5 1196.2 L 929.4 1178.5 L 989.3 1143.3 L 989 1064.8 L 906.2 1016.6 Z" fill="#EDEDED"/><path d=" M 906.2 1016.6 L 845.7 1051.8 L 846 1136.4 C 846 1143.8 850 1150.6 856.4 1154.3 L 929.5 1196.2 L 929.4 1178.5 L 989.3 1143.3 L 989 1064.8 L 906.2 1016.6 Z" fill="#EDEDED"/><path d=" M 929.3 1099.6 L 989.2 1064.7 L 989.5 1143.2 L 929.6 1178.4 L 929.3 1099.6 Z" fill="#C8C8C8"/><path d=" M 1047.2 1127.4 C 1045.7 1118.1 1040 1110 1031.7 1105.2 L 991.1 1082.2 C 989.2 1081.1 987.1 1081.4 985.6 1082.4 L 932.4 1112.8 C 930.7 1113.6 929.4 1115.3 929.5 1117.5 L 929.8 1196.1 L 991.9 1231.2 C 993.5 1232.1 995.3 1232 996.7 1231.2 L 1050.5 1200.5 C 1050.6 1200.5 1050.6 1200.4 1050.7 1200.4 L 1050.7 1200.4 C 1052.1 1199.6 1053 1198.1 1053 1196.4 L 1053 1194.2 C 1052.6 1171.8 1050.8 1149.5 1047.2 1127.4 Z" fill="#FFD169"/><path d=" M 911.4 1173.1 L 892.4 1159.8 C 889.6 1152.8 884.9 1146.7 879.6 1143.6 C 871.1 1138.7 864.2 1144 864.2 1155.3 C 864.2 1166.7 871.2 1179.9 879.8 1184.8 C 883.9 1187.1 887.5 1187.2 890.3 1185.3 L 911.4 1173.1 Z" fill="#23292E"/><path d=" M 1059.8 1193.2 C 1059.8 1191.4 1058.9 1189.8 1057.4 1188.9 L 1048.2 1183.3 L 1048.3 1192.9 L 1001.9 1220.2 C 999.5 1221.6 996.4 1221.5 994.1 1219.9 L 990.2 1222.2 L 990.2 1230.9 L 994.1 1233.2 C 996.3 1234.5 999.1 1234.5 1001.3 1233.2 L 1054.6 1202.2 C 1057.9 1200.3 1059.9 1196.9 1059.8 1193.2 Z" fill="#2E373D"/><path d=" M 977.6 1211.2 L 958.6 1197.9 C 955.8 1190.9 951.1 1184.8 945.8 1181.7 C 937.3 1176.8 930.4 1182.1 930.4 1193.4 C 930.4 1204.8 937.4 1218 946 1222.9 C 950.1 1225.2 953.7 1225.3 956.5 1223.4 L 977.6 1211.2 Z" fill="#23292E"/><path d=" M 990.3 1230.9 L 990.3 1222.2 L 994.2 1219.9 C 995.3 1220.7 996.6 1221.1 997.9 1221.2 C 997.6 1200.1 995.8 1179 992.5 1158.2 C 991 1148.9 985.4 1140.8 977.2 1136 L 937.2 1113 C 933.8 1111 929.5 1113.5 929.5 1117.5 L 929.7 1178.4 C 939.4 1184 946.8 1192.9 950.5 1203.4 L 950.7 1203.8 C 951.9 1207.2 954.3 1210.1 957.5 1211.9 L 990.3 1230.9 Z" fill="#FCB915"/><path d=" M 1050.1 1169.8 L 1045.7 1178.2 C 1044.2 1181.1 1041.9 1183.5 1039.1 1185.1 L 1017.9 1197.3 C 1014.7 1199.1 1011.1 1200.1 1007.4 1200 L 997 1199.8 L 997 1199.8 L 997 1199.8 L 995.3 1198.8 C 993.8 1198 992 1199 992 1200.7 L 992 1212.1 C 992 1215.3 993.2 1218.3 995.4 1220.5 C 996.1 1220.8 996.8 1221 997.5 1221.1 C 997.5 1221.1 997.5 1221.1 997.5 1221.1 C 998.8 1221.2 1000.1 1221 1001.3 1220.5 L 1050.9 1191.3 C 1050.8 1184.1 1050.5 1177 1050.1 1169.8 Z" fill="#CECECE"/><path d=" M 994.3 1153.7 L 998.2 1182.4 C 998.7 1186.2 1002.9 1188.3 1006.3 1186.4 L 1042.3 1165.5 C 1045.1 1163.9 1046.6 1160.8 1046.1 1157.6 L 1041.6 1125.2 C 1041.4 1123.7 1039.8 1122.9 1038.5 1123.7 L 997 1148 C 995.1 1149.2 994 1151.5 994.3 1153.7 Z" fill="#2E373D"/><path d=" M 1005.3 1178.9 L 1041.3 1158 C 1043.8 1156.5 1045.3 1153.8 1045.2 1151 L 1041.6 1125.3 C 1041.4 1123.8 1039.8 1123 1038.5 1123.8 L 997 1148.1 C 995.2 1149.2 994.1 1151.2 994.2 1153.3 L 997.1 1175 C 997.7 1178.8 1001.9 1180.9 1005.3 1178.9 Z" fill="#304E75"/><path d=" M 989.6 1180.5 L 987.7 1161.7 C 987 1154.5 982.8 1148.1 976.5 1144.5 L 940.7 1124.1 C 938.9 1123.1 936.6 1124.4 936.6 1126.5 L 936.7 1141.3 C 936.7 1145.6 938.8 1149.6 942.2 1152.1 L 984.7 1183.3 C 986.9 1184.8 989.8 1183.1 989.6 1180.5 Z" fill="#243B58"/><path d=" M 1038.2 1123.9 L 1015.7 1137.1 L 1037.3 1152.9 C 1039.4 1154.4 1042.3 1152.8 1042.1 1150.2 L 1040.2 1131.3 C 1040.1 1128.8 1039.3 1126.2 1038.2 1123.9 Z" fill="#59718B"/><path d=" M 1050.8 1191.3 C 1050.7 1184.1 1050.5 1176.9 1050 1169.8 L 1045.6 1178.2 C 1045.6 1178.2 1045.6 1178.2 1045.6 1178.2 C 1044.2 1180.9 1043.2 1183.7 1042.8 1186.7 L 1041.6 1196.7 L 1050.8 1191.3 Z" fill="#FFFFFF"/><path d=" M 1013.9 1201.2 L 1041.6 1185.2 L 1040.5 1193.7 C 1040.3 1195.4 1039.3 1197 1037.7 1197.8 L 1021 1207.4 C 1019.3 1208.4 1017.1 1207.7 1016.2 1206 L 1013.9 1201.2 Z" fill="#2E373D"/><path d=" M 1057.4 1188.9 L 1050.7 1184.8 C 1050.8 1187 1050.8 1189.2 1050.8 1191.3 L 1001.8 1220.2 C 999.4 1221.6 996.3 1221.5 994 1219.9 L 990.1 1222.2 L 994 1224.5 C 996.2 1225.8 999 1225.8 1001.2 1224.5 L 1054.5 1193.5 C 1054.7 1193.4 1059.2 1191.2 1057.4 1188.9 Z" fill="#23292E"/><path d=" M 930.5 1193.5 C 930.5 1188.1 932 1184 934.6 1181.8 C 933 1180.6 931.3 1179.5 929.6 1178.4 L 929.6 1170 L 846.1 1122.4 L 846.1 1136.3 C 846.1 1143.7 850.1 1150.5 856.5 1154.2 L 930.6 1196.6 L 930.7 1196.6 C 930.5 1195.6 930.5 1194.5 930.5 1193.5 Z" fill="#23292E"/><path d=" M 929.5 1170.1 L 929.3 1099.6 L 845.8 1051.8 L 846 1122.5 L 929.5 1170.1 Z" fill="#D7CCC8"/><path d=" M 961.4 1211.2 C 961.4 1222.6 954.5 1227.8 946 1222.9 C 937.5 1218 930.5 1204.8 930.4 1193.4 C 930.4 1182 937.3 1176.8 945.8 1181.7 C 954.4 1186.6 961.4 1199.8 961.4 1211.2 Z" fill="#2E373D"/><path d=" M 953.5 1206.7 C 953.5 1212.3 950.1 1214.9 945.9 1212.5 C 941.7 1210.1 938.3 1203.6 938.3 1198 C 938.3 1192.4 941.7 1189.8 945.9 1192.2 C 950.1 1194.6 953.5 1201.1 953.5 1206.7 Z" fill="#CECECE"/><path d=" M 950.1 1204.7 C 950.1 1207.7 948.3 1209.1 946 1207.8 C 943.7 1206.5 941.9 1203 941.9 1199.9 C 941.9 1196.9 943.7 1195.5 946 1196.8 C 948.2 1198.1 950.1 1201.6 950.1 1204.7 Z" fill="#627681"/><path d=" M 895.2 1173.1 C 895.2 1184.5 888.3 1189.7 879.8 1184.8 C 871.3 1179.9 864.3 1166.7 864.2 1155.3 C 864.2 1143.9 871.1 1138.7 879.6 1143.6 C 888.2 1148.6 895.1 1161.7 895.2 1173.1 Z" fill="#2E373D"/><path d=" M 887.3 1168.6 C 887.3 1174.2 883.9 1176.8 879.7 1174.4 C 875.5 1172 872.1 1165.5 872.1 1159.9 C 872.1 1154.3 875.5 1151.7 879.7 1154.1 C 883.9 1156.5 887.3 1163 887.3 1168.6 Z" fill="#CECECE"/><path d=" M 883.8 1166.6 C 883.8 1169.6 882 1171 879.7 1169.7 C 877.4 1168.4 875.6 1164.9 875.6 1161.8 C 875.6 1158.8 877.4 1157.4 879.7 1158.7 C 882 1160.1 883.8 1163.6 883.8 1166.6 Z" fill="#627681"/><path d=" M 1013.8 1204.1 C 1012.7 1201.6 1010.2 1200.1 1007.4 1200 C 1007.4 1200 1007.4 1200 1007.4 1200 L 997 1199.8 L 997 1199.8 C 997.4 1206.9 997.7 1214 997.8 1221.1 C 997.7 1221.1 997.6 1221.1 997.5 1221.1 C 997.5 1221.1 997.5 1221.1 997.5 1221.1 C 998.8 1221.2 1000.1 1221 1001.3 1220.5 L 1017.1 1211.2 L 1013.8 1204.1 Z" fill="#FFFFFF"/><path d=" M 923.8 1166.5 L 850.9 1124.8 L 850.7 1065.6 L 923.6 1107.3 Z" fill="#FCB915"/><g><path d=" M 868.7 1100.5 L 855.1 1092.7 L 855 1078.6 L 868.7 1086.5 Z" stroke="#000000" stroke-miterlimit="10" fill="#FFD101" fill-rule="evenodd" clip-rule="evenodd"/><path d=" M 865 1087.3 L 858.7 1083.7 L 858.7 1082.9 L 865 1086.5 Z" stroke="#000000" stroke-width="0.5" stroke-miterlimit="10" fill-rule="evenodd" clip-rule="evenodd"/><path d=" M 868.7 1103.1 L 855.1 1095.2 L 855.1 1092.7 L 868.7 1100.5 Z" stroke="#000000" stroke-miterlimit="10" fill="#FFD101" fill-rule="evenodd" clip-rule="evenodd"/><path d=" M 868.8 1117.1 L 855.1 1109.3 L 855.1 1095.2 L 868.7 1103.1 Z" stroke="#000000" stroke-miterlimit="10" fill="#FFD101" fill-rule="evenodd" clip-rule="evenodd"/><path d=" M 865.1 1103.9 L 858.8 1100.3 L 858.8 1099.5 L 865.1 1103.1 Z" stroke="#000000" stroke-width="0.5" stroke-miterlimit="10" fill-rule="evenodd" clip-rule="evenodd"/><path d=" M 868.8 1119.6 L 855.1 1111.8 L 855.1 1109.3 L 868.8 1117.1 Z" stroke="#000000" stroke-miterlimit="10" fill="#FFD101" fill-rule="evenodd" clip-rule="evenodd"/><path d=" M 882.2 1108.2 L 868.6 1100.4 L 868.5 1086.4 L 882.2 1094.2 Z" stroke="#000000" stroke-miterlimit="10" fill="#FFD101" fill-rule="evenodd" clip-rule="evenodd"/><path d=" M 878.5 1095.1 L 872.2 1091.5 L 872.2 1090.6 L 878.5 1094.2 Z" stroke="#000000" stroke-width="0.5" stroke-miterlimit="10" fill-rule="evenodd" clip-rule="evenodd"/><path d=" M 882.2 1110.8 L 868.6 1103 L 868.6 1100.4 L 882.2 1108.2 Z" stroke="#000000" stroke-miterlimit="10" fill="#FFD101" fill-rule="evenodd" clip-rule="evenodd"/><path d=" M 882.3 1124.8 L 868.6 1117 L 868.6 1103 L 882.2 1110.8 Z" stroke="#000000" stroke-miterlimit="10" fill="#FFD101" fill-rule="evenodd" clip-rule="evenodd"/><path d=" M 878.6 1111.7 L 872.3 1108.1 L 872.3 1107.2 L 878.6 1110.8 Z" stroke="#000000" stroke-width="0.5" stroke-miterlimit="10" fill-rule="evenodd" clip-rule="evenodd"/><path d=" M 882.3 1127.4 L 868.6 1119.6 L 868.6 1117 L 882.3 1124.8 Z" stroke="#000000" stroke-miterlimit="10" fill="#FFD101" fill-rule="evenodd" clip-rule="evenodd"/><path d=" M 895.9 1116.1 L 882.2 1108.2 L 882.2 1094.2 L 895.8 1102 Z" stroke="#000000" stroke-miterlimit="10" fill="#FFD101" fill-rule="evenodd" clip-rule="evenodd"/><path d=" M 892.2 1102.9 L 885.9 1099.3 L 885.9 1098.4 L 892.2 1102 Z" stroke="#000000" stroke-width="0.5" stroke-miterlimit="10" fill-rule="evenodd" clip-rule="evenodd"/><path d=" M 895.9 1118.6 L 882.2 1110.8 L 882.2 1108.2 L 895.9 1116.1 Z" stroke="#000000" stroke-miterlimit="10" fill="#FFD101" fill-rule="evenodd" clip-rule="evenodd"/><path d=" M 896 1132.6 L 882.3 1124.8 L 882.2 1110.8 L 895.9 1118.6 Z" stroke="#000000" stroke-miterlimit="10" fill="#FFD101" fill-rule="evenodd" clip-rule="evenodd"/><path d=" M 892.2 1119.5 L 885.9 1115.9 L 885.9 1115 L 892.2 1118.6 Z" stroke="#000000" stroke-width="0.5" stroke-miterlimit="10" fill-rule="evenodd" clip-rule="evenodd"/><path d=" M 896 1135.2 L 882.3 1127.4 L 882.3 1124.8 L 896 1132.6 Z" stroke="#000000" stroke-miterlimit="10" fill="#FFD101" fill-rule="evenodd" clip-rule="evenodd"/><path d=" M 909.6 1123.9 L 895.9 1116.1 L 895.8 1102 L 909.5 1109.8 Z" stroke="#000000" stroke-miterlimit="10" fill="#FFD101" fill-rule="evenodd" clip-rule="evenodd"/><path d=" M 905.8 1110.7 L 899.5 1107.1 L 899.5 1106.3 L 905.8 1109.9 Z" stroke="#000000" stroke-width="0.5" stroke-miterlimit="10" fill-rule="evenodd" clip-rule="evenodd"/><path d=" M 909.6 1126.4 L 895.9 1118.6 L 895.9 1116.1 L 909.6 1123.9 Z" stroke="#000000" stroke-miterlimit="10" fill="#FFD101" fill-rule="evenodd" clip-rule="evenodd"/><path d=" M 909.6 1140.5 L 896 1132.6 L 895.9 1118.6 L 909.6 1126.4 Z" stroke="#000000" stroke-miterlimit="10" fill="#FFD101" fill-rule="evenodd" clip-rule="evenodd"/><path d=" M 905.9 1127.3 L 899.6 1123.7 L 899.6 1122.9 L 905.9 1126.4 Z" stroke="#000000" stroke-width="0.5" stroke-miterlimit="10" fill-rule="evenodd" clip-rule="evenodd"/><path d=" M 909.6 1143 L 896 1135.2 L 896 1132.6 L 909.6 1140.5 Z" stroke="#000000" stroke-miterlimit="10" fill="#FFD101" fill-rule="evenodd" clip-rule="evenodd"/><path d=" M 868.8 1133.6 L 855.1 1125.8 L 855 1111.8 L 868.7 1119.6 Z" stroke="#000000" stroke-miterlimit="10" fill="#FFD101" fill-rule="evenodd" clip-rule="evenodd"/><path d=" M 865 1120.5 L 858.7 1116.9 L 858.7 1116 L 865 1119.6 Z" stroke="#000000" stroke-width="0.5" stroke-miterlimit="10" fill-rule="evenodd" clip-rule="evenodd"/><path d=" M 882.3 1141.4 L 868.6 1133.5 L 868.5 1119.5 L 882.2 1127.3 Z" stroke="#000000" stroke-miterlimit="10" fill="#FFD101" fill-rule="evenodd" clip-rule="evenodd"/><path d=" M 878.5 1128.2 L 872.3 1124.6 L 872.2 1123.7 L 878.5 1127.3 Z" stroke="#000000" stroke-width="0.5" stroke-miterlimit="10" fill-rule="evenodd" clip-rule="evenodd"/><path d=" M 895.9 1149.2 L 882.3 1141.4 L 882.2 1127.3 L 895.9 1135.1 Z" stroke="#000000" stroke-miterlimit="10" fill="#FFD101" fill-rule="evenodd" clip-rule="evenodd"/><path d=" M 892.2 1136 L 885.9 1132.4 L 885.9 1131.6 L 892.2 1135.2 Z" stroke="#000000" stroke-width="0.5" stroke-miterlimit="10" fill-rule="evenodd" clip-rule="evenodd"/><path d=" M 909.6 1157 L 895.9 1149.2 L 895.9 1135.1 L 909.5 1143 Z" stroke="#000000" stroke-miterlimit="10" fill="#FFD101" fill-rule="evenodd" clip-rule="evenodd"/><path d=" M 905.8 1143.8 L 899.6 1140.2 L 899.6 1139.4 L 905.8 1143 Z" stroke="#000000" stroke-width="0.5" stroke-miterlimit="10" fill-rule="evenodd" clip-rule="evenodd"/><path d=" M 920.6 1146.8 L 912.2 1142 L 912.1 1127.9 L 920.5 1132.8 Z" fill="#243B58" fill-rule="evenodd" clip-rule="evenodd"/><path d=" M 913.2 1129.3 L 913.2 1133.6 L 916.5 1131.2" fill="#59718B" fill-rule="evenodd" clip-rule="evenodd"/></g><g><g><path d=" M 929.9 1009.6 L 929.9 1020.9 L 929.9 1020.8 L 929.9 1009.6 Z" fill="#FFFFFF"/></g><g><path d=" M 929.9 1009.6 L 929.9 1020.8 L 910.4 1020.9 L 910.4 1009.6 Z" fill="#FFFFFF"/></g><g><path d=" M 910.4 1009.6 L 910.4 1020.9 L 910.4 1020.9 L 910.4 1009.6 Z" fill="#FFFFFF"/></g><g><path d=" M 929.7 1009.6 L 929.7 1020.9 L 910.5 1021 L 910.5 1009.7 Z"/></g><g><path d=" M 929.8 1014.4 L 929.8 1025.6 L 929.7 1020.9 L 929.7 1009.6 Z"/></g><g><path d=" M 929.8 1014.4 L 929.8 1025.6 L 910.5 1025.7 L 910.5 1014.4 Z" fill="#646464"/></g><g><path d=" M 910.5 1014.4 L 910.5 1025.7 L 910.5 1021 L 910.5 1009.7 Z" fill="#646464"/></g><g><path d=" M 929.7 1009.6 L 929.8 1014.4 L 910.5 1014.4 L 910.5 1009.7 Z" fill="#646464"/></g><g><path d=" M 929.9 1014.4 L 929.9 1025.7 L 929.9 1020.9 L 929.9 1009.6 Z" fill="#FFFFFF"/></g><g><path d=" M 929.9 1014.4 L 929.9 1025.7 L 929.8 1025.7 L 929.8 1014.4 Z"/></g><g><path d=" M 910.4 1014.5 L 910.4 1025.7 L 910.4 1020.9 L 910.4 1009.6 Z"/></g><g><path d=" M 910.4 1014.5 L 910.4 1025.8 L 910.4 1025.7 L 910.4 1014.5 Z"/></g><g><path d=" M 929.8 1014.4 L 929.8 1025.7 L 910.4 1025.8 L 910.4 1014.5 Z"/></g><g><path d=" M 929.9 1009.6 L 929.9 1014.4 L 929.8 1014.4 L 910.4 1014.5 L 910.4 1014.5 L 910.3 1009.7 L 910.4 1009.7 L 929.9 1009.6 L 929.9 1009.6 Z M 910.5 1014.4 L 929.7 1014.3 L 929.7 1009.6 L 910.5 1009.7 L 910.5 1014.4"/></g><g><path d=" M 993.1 1045.8 L 993.1 1057.1 L 984.8 1057.1 L 984.8 1045.8 Z" fill="#FFFFFF"/></g><g><rect x="984.7" y="1045.8" width="0.1" height="11.3" fill="#FFFFFF"/></g><g><path d=" M 993.1 1045.8 L 993.1 1057.1 L 993.1 1057.1 L 993.1 1045.8 Z" fill="#FFFFFF"/></g><g><path d=" M 993 1045.9 L 993 1057.2 L 984.9 1057.2 L 984.9 1045.9 Z"/></g><g><path d=" M 855.9 1046.4 L 855.9 1057.7 L 847.6 1057.7 L 847.6 1046.5 Z" fill="#FFFFFF"/></g><g><path d=" M 847.6 1046.5 L 847.6 1057.7 L 847.5 1057.7 L 847.5 1046.5 Z" fill="#FFFFFF"/></g><g><path d=" M 855.8 1046.5 L 855.8 1057.8 L 847.7 1057.8 L 847.6 1046.5 Z"/></g><g><path d=" M 993.1 1057 L 993.1 1068.3 L 993 1057.2 L 993 1045.9 Z"/></g><g><path d=" M 985 1057.1 L 985 1068.3 L 984.9 1057.2 L 984.9 1045.9 Z" fill="#646464"/></g><g><path d=" M 993.2 1057.1 L 993.3 1068.4 L 993.1 1057.1 L 993.1 1045.8 Z" fill="#FFFFFF"/></g><g><path d=" M 993.1 1045.8 L 993.2 1057.1 L 993.1 1057.1 L 984.8 1057.1 L 984.8 1057.1 L 984.7 1045.9 L 984.8 1045.9 L 993.1 1045.8 L 993.1 1045.8 Z M 985 1057.1 L 993.1 1057.1 L 993 1046 L 984.9 1046 L 985 1057.1"/></g><g><path d=" M 993 1045.9 L 993.1 1057 L 985 1057.1 L 984.9 1045.9 Z" fill="#646464"/></g><g><path d=" M 993.1 1057 L 993.1 1068.3 L 985 1068.3 L 985 1057.1 Z" fill="#646464"/></g><g><path d=" M 984.8 1057.1 L 984.9 1068.4 L 984.8 1057.1 L 984.7 1045.8 Z"/></g><g><path d=" M 993.2 1057.1 L 993.3 1068.4 L 993.2 1068.4 L 993.2 1057.1 Z"/></g><g><path d=" M 993.2 1057.1 L 993.2 1068.4 L 984.9 1068.4 L 984.8 1057.1 Z"/></g><g><path d=" M 984.8 1057.1 L 984.9 1068.4 L 984.9 1068.4 L 984.8 1057.1 Z"/></g><g><path d=" M 855.9 1057.6 L 855.9 1068.9 L 855.8 1057.8 L 855.8 1046.5 Z"/></g><g><path d=" M 847.7 1057.7 L 847.8 1068.9 L 847.7 1057.8 L 847.6 1046.5 Z" fill="#646464"/></g><g><path d=" M 855.9 1057.6 L 855.9 1068.9 L 847.8 1068.9 L 847.7 1057.7 Z" fill="#646464"/></g><g><path d=" M 856 1057.7 L 856 1069 L 855.9 1057.7 L 855.9 1046.4 Z" fill="#FFFFFF"/></g><g><path d=" M 855.9 1046.4 L 856 1057.7 L 855.9 1057.7 L 847.6 1057.7 L 847.5 1046.4 L 847.6 1046.4 L 855.9 1046.4 Z M 847.7 1057.7 L 855.8 1057.7 L 855.7 1046.6 L 847.6 1046.6 L 847.7 1057.7"/></g><g><path d=" M 855.8 1046.5 L 855.9 1057.6 L 847.7 1057.7 L 847.6 1046.5 Z" fill="#646464"/></g><g><path d=" M 856 1057.7 L 856 1069 L 855.9 1069 L 855.9 1057.7 Z"/></g><g><path d=" M 855.9 1057.7 L 855.9 1069 L 847.6 1069 L 847.6 1057.7 Z"/></g><g><path d=" M 847.6 1057.7 L 847.6 1069 L 847.5 1057.7 L 847.5 1046.5 Z"/></g><g><path d=" M 930.3 1089.1 L 930.4 1100.3 L 910.9 1100.4 L 910.9 1089.1 Z" fill="#FFFFFF"/></g><g><rect x="910.9" y="1089.1" width="0.1" height="11.3" fill="#FFFFFF"/></g><g><path d=" M 930.2 1089.1 L 930.2 1100.4 L 911 1100.5 L 911 1089.2 Z"/></g><g><path d=" M 930.2 1093.8 L 930.3 1105.1 L 930.2 1100.4 L 930.2 1089.1 Z"/></g><g><path d=" M 911 1093.9 L 911 1105.2 L 911 1100.5 L 911 1089.2 Z" fill="#646464"/></g><g><path d=" M 930.2 1089.1 L 930.2 1093.8 L 911 1093.9 L 911 1089.2 Z" fill="#646464"/></g><g><path d=" M 930.2 1093.8 L 930.3 1105.1 L 911 1105.2 L 911 1093.9 Z" fill="#646464"/></g><g><path d=" M 930.4 1093.9 L 930.4 1105.2 L 930.4 1100.3 L 930.3 1089.1 Z" fill="#FFFFFF"/></g><g><rect x="930.3" y="1093.9" width="0.1" height="11.3"/></g><g><path d=" M 930.3 1089.1 L 930.3 1094 L 930.2 1094 L 910.8 1094.1 L 910.8 1089.2 L 910.9 1089.2 L 930.3 1089.1 Z M 911 1093.9 L 930.2 1093.8 L 930.2 1089.1 L 911 1089.2 L 911 1093.9"/></g><g><path d=" M 910.9 1094 L 910.9 1105.3 L 910.9 1100.4 L 910.9 1089.1 Z"/></g><g><path d=" M 930.3 1093.9 L 930.3 1105.2 L 910.9 1105.3 L 910.9 1094 Z"/></g><g><path d=" M 920.9 1101.6 L 920.9 1112.8 L 834.4 1063.3 L 834.4 1052.1 Z" fill="#D7CCC8"/></g><g><path d=" M 920 1002 L 1006.4 1051.5 L 920.9 1101.6 L 834.5 1052.1 L 920 1002 Z M 930.3 1093.9 L 930.3 1093.9 L 930.3 1089 L 910.9 1089.1 L 910.8 1089.1 L 910.8 1094 L 930.3 1093.9 M 993.2 1057.1 L 993.2 1057.1 L 993.2 1045.8 L 993.2 1045.8 L 984.9 1045.8 L 984.8 1045.8 L 984.9 1057 L 984.9 1057 L 993.2 1057.1 M 929.8 1014.4 L 929.8 1014.4 L 929.8 1009.6 L 929.8 1009.6 L 910.4 1009.7 L 910.3 1009.7 L 910.4 1014.5 L 910.4 1014.5 L 929.8 1014.4 M 855.9 1057.7 L 855.9 1057.7 L 855.9 1046.4 L 847.6 1046.4 L 847.5 1046.4 L 847.6 1057.7 L 855.9 1057.7" fill="#FAFDFE"/></g><g><path d=" M 1006.4 1051.5 L 1006.4 1062.7 L 920.9 1112.8 L 920.9 1101.6 Z" fill="#E4DAD8"/></g><g><g><g><path d=" M 953.3 1048.1 L 916.8 1069.4 L 908.4 1064.6 L 923.7 1055.7 L 909.9 1047.8 L 894.6 1056.7 L 886.2 1051.9 L 922.7 1030.5 L 931.1 1035.3 L 917.1 1043.6 L 930.9 1051.5 L 944.9 1043.3 Z" fill="#FFFFFF"/></g><g><path d=" M 946 1034.6 C 960.7 1043.1 960.8 1056.7 946.4 1065.2 C 931.9 1073.7 908.2 1073.7 893.5 1065.3 C 878.8 1056.8 878.7 1043.1 893.1 1034.7 C 907.7 1026.3 931.3 1026.2 946 1034.6 Z M 908.4 1064.6 L 916.8 1069.4 L 953.3 1048 L 944.9 1043.2 L 930.9 1051.4 L 917.1 1043.5 L 931.1 1035.3 L 922.7 1030.5 L 886.2 1051.9 L 894.6 1056.7 L 909.9 1047.8 L 923.7 1055.7 L 908.4 1064.6" fill="#646464"/></g></g></g></g></g><g><g><path d=" M 371.5 686 L 371.4 726.1 L 371.4 725.9 L 371.5 685.8 Z" fill="#FFFFFF"/></g><g><path d=" M 371.5 685.8 L 371.4 725.9 L 302.2 725.9 L 302.3 685.8 Z" fill="#FFFFFF"/></g><g><path d=" M 302.3 685.8 L 302.2 725.9 L 301.9 725.9 L 302 685.8 Z" fill="#FFFFFF"/></g><g><path d=" M 371 686.1 L 370.9 726.2 L 302.4 726.2 L 302.5 686.1 Z"/></g><g><path d=" M 371.1 702.9 L 371 743 L 370.9 726.2 L 371 686.1 Z"/></g><g><path d=" M 371.1 702.9 L 371 743 L 302.5 743 L 302.6 702.9 Z" fill="#646464"/></g><g><path d=" M 302.6 702.9 L 302.5 743 L 302.4 726.2 L 302.5 686.1 Z" fill="#646464"/></g><g><path d=" M 371 686.1 L 371.1 702.9 L 302.6 702.9 L 302.5 686.1 Z" fill="#646464"/></g><g><path d=" M 371.5 703.2 L 371.4 743.3 L 371.4 726.1 L 371.5 686 Z" fill="#FFFFFF"/></g><g><path d=" M 371.5 703.2 L 371.4 743.3 L 371.2 743.3 L 371.3 703.2 Z"/></g><g><path d=" M 302.2 703 L 302.1 743.1 L 301.9 725.9 L 302 685.8 Z"/></g><g><path d=" M 302.2 703.2 L 302.1 743.3 L 302.1 743.1 L 302.2 703 Z"/></g><g><path d=" M 371.3 703.2 L 371.2 743.3 L 302.1 743.3 L 302.2 703.2 Z"/></g><g><path d=" M 371.5 686 L 371.6 703.2 L 371.3 703.2 L 302.2 703.2 L 302.2 703.1 L 302.1 685.9 L 302.3 685.9 L 371.5 685.9 L 371.5 686 Z M 302.6 702.9 L 371 702.9 L 370.9 686.1 L 302.5 686.1 L 302.6 702.9"/></g><g><path d=" M 596.3 815.7 L 596.2 855.8 L 566.6 855.8 L 566.7 815.7 Z" fill="#FFFFFF"/></g><g><rect x="546.5" y="835.6" width="40.1" height="0.3" fill="#FFFFFF" transform="matrix(0.002835,-1,1,0.002835,-270.827,1399.88)"/></g><g><path d=" M 596.3 815.8 L 596.2 855.9 L 596.2 855.8 L 596.3 815.7 Z" fill="#FFFFFF"/></g><g><path d=" M 595.8 816 L 595.7 856.1 L 566.8 856.1 L 566.9 816 Z"/></g><g><path d=" M 107.7 816.2 L 107.6 856.3 L 77.9 856.3 L 78 816.2 Z" fill="#FFFFFF"/></g><g><path d=" M 78 816.2 L 77.9 856.3 L 77.7 856.3 L 77.8 816.2 Z" fill="#FFFFFF"/></g><g><path d=" M 107.2 816.4 L 107.1 856.6 L 78.2 856.6 L 78.3 816.4 Z"/></g><g><path d=" M 596.1 855.6 L 596 895.7 L 595.7 856.1 L 595.8 816 Z"/></g><g><path d=" M 567.1 855.6 L 567 895.7 L 566.8 856.1 L 566.9 816 Z" fill="#646464"/></g><g><path d=" M 596.6 855.9 L 596.5 896 L 596.2 855.9 L 596.3 815.8 Z" fill="#FFFFFF"/></g><g><path d=" M 596.3 815.8 L 596.5 855.9 L 596.2 855.9 L 566.6 855.9 L 566.6 855.8 L 566.4 815.8 L 566.7 815.8 L 596.3 815.8 L 596.3 815.8 Z M 567.1 855.6 L 596 855.6 L 595.8 816 L 566.9 816 L 567.1 855.6"/></g><g><path d=" M 595.8 816 L 596.1 855.6 L 567.1 855.6 L 566.9 816 Z" fill="#646464"/></g><g><path d=" M 596.1 855.6 L 596 895.7 L 567 895.7 L 567.1 855.6 Z" fill="#646464"/></g><g><path d=" M 566.7 855.7 L 566.6 895.8 L 566.3 855.8 L 566.4 815.7 Z"/></g><g><path d=" M 596.6 855.9 L 596.5 896 L 596.2 896 L 596.3 855.9 Z"/></g><g><path d=" M 596.3 855.9 L 596.2 896 L 566.6 896 L 566.7 855.9 Z"/></g><g><path d=" M 566.7 855.9 L 566.6 896 L 566.6 895.8 L 566.7 855.7 Z"/></g><g><path d=" M 107.4 856.1 L 107.3 896.2 L 107.1 856.6 L 107.2 816.4 Z"/></g><g><path d=" M 78.5 856.1 L 78.4 896.2 L 78.2 856.6 L 78.3 816.4 Z" fill="#646464"/></g><g><path d=" M 107.4 856.1 L 107.3 896.2 L 78.4 896.2 L 78.5 856.1 Z" fill="#646464"/></g><g><path d=" M 107.9 856.4 L 107.8 896.5 L 107.6 856.3 L 107.7 816.2 Z" fill="#FFFFFF"/></g><g><path d=" M 107.7 816.2 L 107.9 856.4 L 107.6 856.4 L 78 856.4 L 77.7 816.2 L 78 816.2 L 107.7 816.2 Z M 78.5 856.1 L 107.4 856.1 L 107.2 816.5 L 78.3 816.5 L 78.5 856.1"/></g><g><path d=" M 107.2 816.4 L 107.4 856.1 L 78.5 856.1 L 78.3 816.4 Z" fill="#646464"/></g><g><path d=" M 107.9 856.4 L 107.8 896.5 L 107.6 896.5 L 107.7 856.4 Z"/></g><g><path d=" M 107.7 856.4 L 107.6 896.5 L 77.9 896.5 L 78 856.4 Z"/></g><g><path d=" M 78 856.4 L 77.9 896.5 L 77.7 856.3 L 77.8 816.2 Z"/></g><g><path d=" M 372.2 968.9 L 372.1 1009 L 303 1009 L 303.1 968.9 Z" fill="#FFFFFF"/></g><g><rect x="282.8" y="988.8" width="40.1" height="0.3" fill="#FFFFFF" transform="matrix(0.002835,-1,1,0.002835,-686.91,1289.02)"/></g><g><path d=" M 371.7 969.2 L 371.6 1009.3 L 303.2 1009.3 L 303.3 969.2 Z"/></g><g><path d=" M 371.8 985.9 L 371.7 1026 L 371.6 1009.3 L 371.7 969.2 Z"/></g><g><path d=" M 303.4 985.9 L 303.3 1026 L 303.2 1009.3 L 303.3 969.2 Z" fill="#646464"/></g><g><path d=" M 371.7 969.2 L 371.8 985.9 L 303.4 985.9 L 303.3 969.2 Z" fill="#646464"/></g><g><path d=" M 371.8 985.9 L 371.7 1026 L 303.3 1026 L 303.4 985.9 Z" fill="#646464"/></g><g><path d=" M 372.3 986.2 L 372.2 1026.3 L 372.1 1009 L 372.2 968.9 Z" fill="#FFFFFF"/></g><g><rect x="352.1" y="1006.1" width="40.1" height="0.3" transform="matrix(0.002835,-1,1,0.002835,-635.167,1375.54)"/></g><g><path d=" M 372.2 968.9 L 372.3 986.2 L 372 986.2 L 302.8 986.2 L 302.7 968.9 L 303 968.9 L 372.2 968.9 Z M 303.4 985.9 L 371.8 985.9 L 371.7 969.1 L 303.3 969.1 L 303.4 985.9"/></g><g><path d=" M 302.9 986.2 L 302.8 1026.3 L 302.7 1009 L 302.8 968.9 Z"/></g><g><path d=" M 372.1 986.2 L 372 1026.3 L 302.8 1026.3 L 302.9 986.2 Z"/></g><g><path d=" M 338.3 1013.3 L 338.2 1053.4 L 31.1 876.1 L 31.2 836 Z" fill="#D7CCC8"/></g><g><path d=" M 336.3 658.7 L 643.4 836 L 338.3 1013.3 L 31.2 836 L 336.3 658.7 Z M 372.1 986.2 L 372.4 986.2 L 372.3 968.9 L 303.1 968.9 L 302.8 968.9 L 302.9 986.2 L 372.1 986.2 M 596.3 855.9 L 596.6 855.9 L 596.4 815.8 L 596.4 815.7 L 566.8 815.7 L 566.5 815.7 L 566.7 855.7 L 566.7 855.8 L 596.3 855.9 M 371.3 703.2 L 371.6 703.2 L 371.5 686 L 371.5 685.9 L 302.3 685.9 L 302 685.9 L 302.1 703.1 L 302.1 703.2 L 371.3 703.2 M 107.7 856.4 L 108 856.4 L 107.8 816.2 L 78.1 816.2 L 77.9 816.2 L 78.2 856.4 L 107.7 856.4" fill="#FAFDFE"/></g><g><path d=" M 643.4 836 L 643.3 876.1 L 338.2 1053.4 L 338.3 1013.3 Z" fill="#E4DAD8"/></g><g><g><g><path d=" M 428.8 775.1 C 480.9 805.2 481.2 854 429.4 884.1 C 377.6 914.2 293.4 914.2 241.2 884.1 C 189 854 188.8 805.2 240.6 775.1 C 292.4 745 376.7 745 428.8 775.1 Z M 323.6 899 L 454.1 823.2 L 424.4 806 L 374.2 835.2 L 325.2 806.9 L 375.4 777.7 L 345.7 760.6 L 215.2 836.4 L 244.9 853.5 L 299.5 821.8 L 348.5 850.1 L 293.9 881.8 L 323.6 899" fill="#646464"/></g><g><path d=" M 454.1 823.2 L 323.6 899 L 293.9 881.9 L 348.6 850.1 L 299.6 821.8 L 245 853.6 L 215.3 836.4 L 345.8 760.6 L 375.5 777.7 L 325.3 806.9 L 374.3 835.2 L 424.4 806 Z" fill="#FFFFFF"/></g></g></g></g><path d="" stroke="#F8B62D" stroke-width="4" stroke-miterlimit="10" fill="#FFFFFF"/><g><path d=" M 359.9 611.2 C 373 624.3 373 645.5 359.9 658.6 C 354.7 663.8 348.2 666.9 341.4 668 C 339.7 668.3 338.1 678.6 336.4 678.6 C 334.6 678.6 332.6 668.3 330.9 668 C 324.2 666.9 317.7 663.8 312.5 658.6 C 299.4 645.5 299.4 624.3 312.5 611.2 C 325.6 598.1 346.8 598.1 359.9 611.2 Z" stroke="#000000" stroke-width="5" stroke-miterlimit="10" fill="#FFFFFF"/><g><path d=" M 336.2 644.3 C 338.7 644.3 340.8 643.4 342.6 641.5 C 344.4 639.7 345.2 637.4 345.2 634.8 L 345.2 619.7 C 345.2 617.1 344.3 614.9 342.6 613 C 340.8 611.2 338.7 610.2 336.2 610.2 C 333.7 610.2 331.6 611.1 329.8 613 C 328 614.8 327.1 617.1 327.1 619.7 L 327.1 634.8 C 327.1 637.4 328 639.6 329.8 641.5 C 331.6 643.4 333.7 644.3 336.2 644.3 L 336.2 644.3 Z" fill-rule="evenodd" clip-rule="evenodd"/><path d=" M 351.9 635.9 C 351.5 635.6 351.1 635.5 350.6 635.5 C 350.1 635.5 349.7 635.6 349.3 635.9 C 348.9 636.2 348.8 636.5 348.8 636.9 L 348.8 639.9 C 348.8 642.8 347.6 645.2 345.1 647.3 C 342.6 649.3 339.7 650.4 336.2 650.4 C 332.7 650.4 329.7 649.4 327.3 647.3 C 324.8 645.3 323.6 642.8 323.6 639.9 L 323.6 636.9 C 323.6 636.5 323.4 636.1 323.1 635.9 C 322.7 635.6 322.3 635.5 321.8 635.5 C 321.3 635.5 320.9 635.6 320.5 635.9 C 320.1 636.2 320 636.5 320 636.9 L 320 639.9 C 320 643.3 321.4 646.3 324.2 648.9 C 327 651.4 330.4 652.9 334.5 653.3 L 334.5 656.4 L 327.3 656.4 C 326.8 656.4 326.4 656.5 326 656.8 C 325.6 657.1 325.5 657.4 325.5 657.8 C 325.5 658.2 325.7 658.6 326 658.8 C 326.4 659.1 326.8 659.2 327.3 659.2 L 345.3 659.2 C 345.8 659.2 346.2 659.1 346.6 658.8 C 347 658.5 347.1 658.2 347.1 657.8 C 347.1 657.4 346.9 657 346.6 656.8 C 346.2 656.5 345.8 656.4 345.3 656.4 L 338 656.4 L 338 653.3 C 342.1 652.9 345.5 651.5 348.3 648.9 C 351.1 646.4 352.5 643.4 352.5 639.9 L 352.5 636.9 C 352.5 636.6 352.3 636.2 351.9 635.9 L 351.9 635.9 Z" fill-rule="evenodd" clip-rule="evenodd"/></g></g><g><path d=" M 604.7 743 C 617.8 756.1 617.8 777.3 604.7 790.4 C 599.5 795.6 593 798.7 586.2 799.8 C 584.5 800.1 582.9 810.4 581.2 810.4 C 579.4 810.4 577.4 800.1 575.7 799.8 C 569 798.7 562.5 795.6 557.3 790.4 C 544.2 777.3 544.2 756.1 557.3 743 C 570.4 729.9 591.6 729.9 604.7 743 Z" stroke="#000000" stroke-width="5" stroke-miterlimit="10" fill="#FFFFFF"/><g><path d=" M 581 776.1 C 583.5 776.1 585.6 775.2 587.4 773.3 C 589.2 771.5 590 769.2 590 766.6 L 590 751.5 C 590 748.9 589.1 746.7 587.4 744.8 C 585.6 743 583.5 742 581 742 C 578.5 742 576.4 742.9 574.6 744.8 C 572.8 746.6 571.9 748.9 571.9 751.5 L 571.9 766.6 C 571.9 769.2 572.8 771.4 574.6 773.3 C 576.4 775.2 578.5 776.1 581 776.1 L 581 776.1 Z" fill-rule="evenodd" clip-rule="evenodd"/><path d=" M 596.7 767.8 C 596.3 767.5 595.9 767.4 595.4 767.4 C 594.9 767.4 594.5 767.5 594.1 767.8 C 593.7 768.1 593.6 768.4 593.6 768.8 L 593.6 771.8 C 593.6 774.7 592.4 777.1 589.9 779.2 C 587.4 781.2 584.5 782.3 581 782.3 C 577.5 782.3 574.5 781.3 572.1 779.2 C 569.6 777.2 568.4 774.7 568.4 771.8 L 568.4 768.8 C 568.4 768.4 568.2 768 567.9 767.8 C 567.5 767.5 567.1 767.4 566.6 767.4 C 566.1 767.4 565.7 767.5 565.3 767.8 C 564.9 768.1 564.8 768.4 564.8 768.8 L 564.8 771.8 C 564.8 775.2 566.2 778.2 569 780.8 C 571.8 783.3 575.2 784.8 579.3 785.2 L 579.3 788.3 L 572 788.3 C 571.5 788.3 571.1 788.4 570.7 788.7 C 570.3 789 570.2 789.3 570.2 789.7 C 570.2 790.1 570.4 790.5 570.7 790.7 C 571.1 791 571.5 791.1 572 791.1 L 590 791.1 C 590.5 791.1 590.9 791 591.3 790.7 C 591.7 790.4 591.8 790.1 591.8 789.7 C 591.8 789.3 591.6 788.9 591.3 788.7 C 590.9 788.4 590.5 788.3 590 788.3 L 582.8 788.3 L 582.8 785.2 C 586.9 784.8 590.3 783.4 593.1 780.8 C 595.9 778.3 597.3 775.3 597.3 771.8 L 597.3 768.8 C 597.2 768.4 597 768.1 596.7 767.8 L 596.7 767.8 Z" fill-rule="evenodd" clip-rule="evenodd"/></g></g><g><path d=" M 116.3 743 C 129.4 756.1 129.4 777.3 116.3 790.4 C 111.1 795.6 104.6 798.7 97.8 799.8 C 96.1 800.1 94.5 810.4 92.8 810.4 C 91 810.4 89 800.1 87.3 799.8 C 80.6 798.7 74.1 795.6 68.9 790.4 C 55.8 777.3 55.8 756.1 68.9 743 C 82 729.9 103.2 729.9 116.3 743 Z" stroke="#000000" stroke-width="5" stroke-miterlimit="10" fill="#FFFFFF"/><g><path d=" M 92.6 776.1 C 95.1 776.1 97.2 775.2 99 773.3 C 100.8 771.5 101.6 769.2 101.6 766.6 L 101.6 751.5 C 101.6 748.9 100.7 746.7 99 744.8 C 97.2 743 95.1 742 92.6 742 C 90.1 742 88 742.9 86.2 744.8 C 84.4 746.6 83.5 748.9 83.5 751.5 L 83.5 766.6 C 83.5 769.2 84.4 771.4 86.2 773.3 C 88 775.2 90.1 776.1 92.6 776.1 L 92.6 776.1 Z" fill-rule="evenodd" clip-rule="evenodd"/><path d=" M 108.3 767.8 C 107.9 767.5 107.5 767.4 107 767.4 C 106.5 767.4 106.1 767.5 105.7 767.8 C 105.3 768.1 105.2 768.4 105.2 768.8 L 105.2 771.8 C 105.2 774.7 104 777.1 101.5 779.2 C 99 781.2 96.1 782.3 92.6 782.3 C 89.1 782.3 86.1 781.3 83.7 779.2 C 81.2 777.2 80 774.7 80 771.8 L 80 768.8 C 80 768.4 79.8 768 79.5 767.8 C 79.1 767.5 78.7 767.4 78.2 767.4 C 77.7 767.4 77.3 767.5 76.9 767.8 C 76.5 768.1 76.4 768.4 76.4 768.8 L 76.4 771.8 C 76.4 775.2 77.8 778.2 80.6 780.8 C 83.4 783.3 86.8 784.8 90.9 785.2 L 90.9 788.3 L 83.7 788.3 C 83.2 788.3 82.8 788.4 82.4 788.7 C 82 789 81.9 789.3 81.9 789.7 C 81.9 790.1 82.1 790.5 82.4 790.7 C 82.8 791 83.2 791.1 83.7 791.1 L 101.7 791.1 C 102.2 791.1 102.6 791 103 790.7 C 103.4 790.4 103.5 790.1 103.5 789.7 C 103.5 789.3 103.3 788.9 103 788.7 C 102.6 788.4 102.2 788.3 101.7 788.3 L 94.5 788.3 L 94.5 785.2 C 98.6 784.8 102 783.4 104.8 780.8 C 107.6 778.3 109 775.3 109 771.8 L 109 768.8 C 108.8 768.4 108.6 768.1 108.3 767.8 L 108.3 767.8 Z" fill-rule="evenodd" clip-rule="evenodd"/></g></g><g><path d=" M 359.9 896.8 C 373 909.9 373 931.1 359.9 944.2 C 354.7 949.4 348.2 952.5 341.4 953.6 C 339.7 953.9 338.1 964.2 336.4 964.2 C 334.6 964.2 332.6 953.9 330.9 953.6 C 324.2 952.5 317.7 949.4 312.5 944.2 C 299.4 931.1 299.4 909.9 312.5 896.8 C 325.6 883.7 346.8 883.7 359.9 896.8 Z" stroke="#000000" stroke-width="5" stroke-miterlimit="10" fill="#FFFFFF"/><g><path d=" M 336.2 929.9 C 338.7 929.9 340.8 929 342.6 927.1 C 344.4 925.3 345.2 923 345.2 920.4 L 345.2 905.3 C 345.2 902.7 344.3 900.5 342.6 898.6 C 340.8 896.8 338.7 895.8 336.2 895.8 C 333.7 895.8 331.6 896.7 329.8 898.6 C 328 900.4 327.1 902.7 327.1 905.3 L 327.1 920.4 C 327.1 923 328 925.2 329.8 927.1 C 331.6 929 333.7 929.9 336.2 929.9 L 336.2 929.9 Z" fill-rule="evenodd" clip-rule="evenodd"/><path d=" M 351.9 921.5 C 351.5 921.2 351.1 921.1 350.6 921.1 C 350.1 921.1 349.7 921.2 349.3 921.5 C 348.9 921.8 348.8 922.1 348.8 922.5 L 348.8 925.5 C 348.8 928.4 347.6 930.8 345.1 932.9 C 342.6 934.9 339.7 936 336.2 936 C 332.7 936 329.7 935 327.3 932.9 C 324.8 930.9 323.6 928.4 323.6 925.5 L 323.6 922.5 C 323.6 922.1 323.4 921.7 323.1 921.5 C 322.7 921.2 322.3 921.1 321.8 921.1 C 321.3 921.1 320.9 921.2 320.5 921.5 C 320.1 921.8 320 922.1 320 922.5 L 320 925.5 C 320 928.9 321.4 931.9 324.2 934.5 C 327 937 330.4 938.5 334.5 938.9 L 334.5 942 L 327.3 942 C 326.8 942 326.4 942.1 326 942.4 C 325.6 942.7 325.5 943 325.5 943.4 C 325.5 943.8 325.7 944.2 326 944.4 C 326.4 944.7 326.8 944.8 327.3 944.8 L 345.3 944.8 C 345.8 944.8 346.2 944.7 346.6 944.4 C 347 944.1 347.1 943.8 347.1 943.4 C 347.1 943 346.9 942.6 346.6 942.4 C 346.2 942.1 345.8 942 345.3 942 L 338 942 L 338 938.9 C 342.1 938.5 345.5 937.1 348.3 934.5 C 351.1 932 352.5 929 352.5 925.5 L 352.5 922.5 C 352.5 922.2 352.3 921.8 351.9 921.5 L 351.9 921.5 Z" fill-rule="evenodd" clip-rule="evenodd"/></g></g><text font-family="timesnewromanps-boldmt" font-size="40" transform="matrix(1,0,0,1,383.106,643.385)">Mic. 0</text><text font-family="timesnewromanps-boldmt" font-size="40" transform="matrix(1,0,0,1,623.242,776.913)">Mic. 1</text><text font-family="timesnewromanps-boldmt" font-size="40" transform="matrix(1,0,0,1,132.3,776.913)">Mic. 3</text><text font-family="timesnewromanps-boldmt" font-size="40" transform="matrix(1,0,0,1,383.106,932.994)">Mic. 2</text><g><linearGradient x1="2041.14" y1="232.531" x2="2121.4" y2="360.976" gradientUnits="userSpaceOnUse" id="SVGID_5_" gradientTransform="matrix(0.9659,0.2588,-0.2588,0.9659,-561.921,-604.868)"><stop offset="0" stop-color="#FBC800"/><stop offset="1" stop-color="#FFFFFF"/></linearGradient><g><path d=" M 1441.2 511 C 1436.3 509.7 1431.6 506.8 1427.2 502.4 L 1319.3 395 C 1306.8 382.5 1300.2 360.9 1304.2 345.7 L 1350.4 173.2 C 1353.8 160.6 1364.2 154 1375.8 157.1 C 1380.7 158.4 1385.4 161.3 1389.8 165.7 L 1497.7 273.2 C 1510.2 285.7 1516.8 307.3 1512.8 322.5 L 1466.6 495 C 1463.3 507.5 1452.8 514.1 1441.2 511 Z M 1371.3 174.3 C 1370.2 174 1368.7 173.6 1367.6 177.8 L 1321.4 350.3 C 1319 359.4 1323.8 374.4 1331.8 382.4 L 1439.7 489.9 C 1442.5 492.7 1444.7 493.6 1445.8 493.9 C 1446.9 494.2 1448.4 494.6 1449.5 490.4 L 1495.7 317.9 C 1498.1 308.8 1493.3 293.8 1485.3 285.8 L 1377.4 178.3 C 1374.5 175.5 1372.3 174.6 1371.3 174.3 Z" fill="#363634"/></g><g><path d=" M 1300.7 546.9 C 1295.8 545.6 1291.1 542.7 1286.7 538.3 L 1178.8 430.8 C 1166.3 418.3 1159.7 396.7 1163.7 381.5 L 1209.9 209 C 1213.3 196.4 1223.7 189.8 1235.3 192.9 C 1240.2 194.2 1244.9 197.1 1249.3 201.5 L 1357.2 309 C 1369.7 321.5 1376.3 343.1 1372.3 358.3 L 1326.1 530.8 C 1322.7 543.5 1312.3 550.1 1300.7 546.9 Z M 1230.7 210.3 C 1229.6 210 1228.1 209.6 1227 213.8 L 1180.8 386.3 C 1178.4 395.4 1183.2 410.4 1191.2 418.4 L 1299.1 525.9 C 1301.9 528.7 1304.1 529.6 1305.2 529.9 C 1306.3 530.2 1307.8 530.6 1308.9 526.4 L 1355.1 353.9 C 1357.5 344.8 1352.7 329.8 1344.7 321.8 L 1236.8 214.3 C 1233.9 211.4 1231.8 210.5 1230.7 210.3 Z" fill="#666666"/></g><g><path d=" M 1447.3 435.1 L 1432.1 491.2 L 1291.1 529.4 L 1306.3 473.3 Z" fill="#DEB068"/></g><g><path d=" M 1306.3 473.3 L 1291.1 529.4 L 1187.2 425.5 L 1202.4 369.4 Z" fill="#F1C989"/></g><g><path d=" M 1447.3 435.1 L 1306.3 473.3 L 1202.4 369.4 L 1343.4 331.2 Z" fill="#EBBE73"/></g><path d=" M 1327.3 468.4 L 1312.3 524.4 L 1332.1 519 L 1347.1 463 Z" fill="#666666"/><path d=" M 1358 353.8 L 1327.3 468.4 L 1347.1 463 L 1374.8 359.7 L 1358 342.9 C 1358.8 346.9 1358.8 350.7 1358 353.8 Z" fill="#666666"/><g><path d=" M 1381 485.5 L 1356.5 492 L 1360.6 476.9 L 1385 470.4" fill="#FFFFFF"/><path d=" M 1377.3 475.4 L 1362.5 479.3 L 1362.7 478.5 L 1377.5 474.5 Z" fill="#998376"/><path d=" M 1379.6 479.3 L 1364.8 483.2 L 1365.1 482.4 L 1379.8 478.4 Z" fill="#998376"/><path d=" M 1371.1 479.2 L 1361.9 481.6 L 1362.1 480.8 L 1371.3 478.4 Z" fill="#8A766A"/><path d=" M 1376.6 477.7 L 1372.8 478.7 L 1373.1 477.9 L 1376.8 476.9 Z" fill="#6D5041"/><path d=" M 1376.6 477.7 L 1372.8 478.7 L 1373.1 477.9 L 1376.8 476.9 Z" fill="#7F6D62"/><path d=" M 1369.7 484.3 L 1360.5 486.7 L 1360.8 485.9 L 1369.9 483.5 Z" fill="#7F6D62"/><path d=" M 1375.2 482.8 L 1371.5 483.8 L 1371.7 483 L 1375.5 482 Z" fill="#7F6D62"/><path d=" M 1379.9 476.8 L 1378.1 477.3 L 1378.4 476.5 L 1380.1 476 Z" fill="#7F6D62"/><path d=" M 1363.6 488 L 1359.9 489 L 1360.1 488.2 L 1363.9 487.2 Z" fill="#998376"/><path d=" M 1366.9 487.2 L 1365.2 487.6 L 1365.4 486.8 L 1367.1 486.3 Z" fill="#7F6D62"/><path d=" M 1363 483.7 L 1361.3 484.2 L 1361.5 483.3 L 1363.2 482.9 Z" fill="#7F6D62"/></g><g><path d=" M 1222.6 445.2 L 1192.9 415.4 L 1190.3 424.9 L 1220.1 454.6 Z" fill="#F7E8D5"/><path d=" M 1194.6 418.9 L 1194 418.3 L 1192.2 425 L 1192.8 425.7 Z" fill="#474646"/><path d=" M 1197.1 421.3 L 1195.7 419.9 L 1193.8 426.7 L 1195.3 428.1 Z" fill="#474646"/><path d=" M 1198.5 422.7 L 1197.9 422.1 L 1196.1 428.9 L 1196.6 429.5 Z" fill="#474646"/><path d=" M 1199.9 424.1 L 1199.3 423.6 L 1197.5 430.4 L 1198.1 430.9 Z" fill="#474646"/><path d=" M 1202.3 426.5 L 1200.5 424.7 L 1198.7 431.5 L 1200.5 433.3 Z" fill="#474646"/><path d=" M 1203.8 428 L 1203.4 427.6 L 1201.6 434.4 L 1202 434.8 Z" fill="#292623"/><path d=" M 1207.6 431.8 L 1205.1 429.4 L 1203.3 436.2 L 1205.8 438.6 Z" fill="#474646"/><path d=" M 1209 433.2 L 1208.3 432.6 L 1206.5 439.4 L 1207.1 440 Z" fill="#474646"/><path d=" M 1211.5 435.8 L 1210.3 434.5 L 1208.5 441.3 L 1209.7 442.6 Z" fill="#474646"/><path d=" M 1212.9 437.1 L 1213.5 437.7 L 1211.7 444.5 L 1211.1 443.9 Z" fill="#474646"/><path d=" M 1216 440.3 L 1213.9 438.1 L 1212.1 444.9 L 1214.2 447.1 Z" fill="#474646"/><path d=" M 1216.9 441.2 L 1216.6 440.8 L 1214.8 447.6 L 1215.1 448 Z" fill="#474646"/><path d=" M 1219.4 443.6 L 1218 442.2 L 1216.2 449 L 1217.6 450.4 Z" fill="#474646"/><path d=" M 1220.8 445 L 1220.3 444.6 L 1218.5 451.4 L 1219 451.8 Z" fill="#474646"/></g><path d=" M 1486.2 441.6 L 1367.2 374.3 C 1349 364 1331.1 358.3 1310.8 358 L 1165.3 356.1 C 1138.8 355.7 1112.5 346.2 1095.9 329.3 C 1079.3 312.4 1075.8 290.9 1094 283.6 L 1197.1 242.4 C 1211.1 236.8 1211.1 221.7 1204.1 208.5 L 1147.2 100.4 C 1138.1 83.1 1145.2 66.8 1166.6 60.9 C 1187.9 55 1217.1 59.6 1238.7 74.9 L 1353 156.6 C 1369.5 168.4 1390.1 174.6 1409.4 172.9 L 1559.4 159.3 C 1584.6 157 1612.2 169.2 1628.8 186.1 C 1645.4 203 1646.2 222.2 1630.7 231.8 L 1520.1 299.8 C 1508.2 307.1 1503 320.9 1513.1 333.7 L 1577.7 416.1 C 1590.9 432.9 1579.7 449.7 1558.3 455.6 C 1537 461.6 1510.1 455.1 1486.2 441.6 Z" fill="#7F7F7F" fill-rule="evenodd" clip-rule="evenodd"/><path d=" M 1488.1 434.8 L 1373.4 351.5 C 1357.3 339.8 1335.9 333.4 1317 335.2 L 1167.2 349.3 C 1142.6 351.6 1114.4 339.4 1097.8 322.5 C 1081.2 305.6 1079.6 285.5 1095.9 276.8 L 1203.3 219.6 C 1215.8 212.9 1219.1 198.9 1210.3 185.7 L 1149 94 C 1137.4 76.7 1147 60.4 1168.4 54.5 C 1189.7 48.5 1218 53.7 1240.5 68.5 L 1356.2 144.9 C 1373.4 156.3 1392.8 162.3 1412.6 161.2 L 1561.2 152.8 C 1587.1 151.3 1614 162.7 1630.6 179.6 C 1647.2 196.5 1649.7 216.9 1632.5 225.3 L 1526.3 276.8 C 1513.1 283.2 1511.3 297.7 1519.3 310.7 L 1579.6 409.2 C 1590 426.2 1581.6 442.8 1560.2 448.7 C 1538.8 454.8 1509.1 450 1488.1 434.8 Z" fill="#F1ECE6" fill-rule="evenodd" clip-rule="evenodd"/><path d=" M 1491.3 404.7 L 1367.8 295.4 C 1361.6 289.9 1351.3 287.5 1343.1 288.3 L 1178.9 320.7 C 1168.9 322.7 1155.8 316.4 1148.5 308.9 C 1141.2 301.5 1140.5 292.7 1147.7 288.9 L 1292.7 226.8 C 1298.9 224.2 1300.2 228.5 1296.3 222.7 L 1194.7 107 C 1188.2 99.6 1193.8 92.3 1203.2 89.7 C 1212.6 87.1 1224.9 89.3 1234.8 95.9 L 1360.2 205 C 1366.6 210.6 1376.2 212.6 1384.9 212.1 L 1552.3 180.9 C 1562.7 179 1575.4 185.2 1582.7 192.7 C 1590 200.1 1591.1 209 1583.5 212.7 L 1434.6 262.9 C 1428.1 265.1 1504.9 350.7 1531.2 393.7 C 1535.8 401.2 1532.1 408.4 1522.7 411 C 1513.5 413.4 1500.5 411.4 1491.3 404.7 Z" fill="#BCB5AD" fill-rule="evenodd" clip-rule="evenodd"/><g><linearGradient x1="2291.19" y1="144.635" x2="2310.76" y2="175.952" gradientUnits="userSpaceOnUse" id="SVGID_1_" gradientTransform="matrix(0.9659,0.2588,-0.2588,0.9659,-561.921,-604.868)"><stop offset="0" stop-color="#FBC800"/><stop offset="1" stop-color="#FFFFFF"/></linearGradient><path d=" M 1605.3 200.4 C 1615.6 203.2 1625.4 200.2 1627.1 193.8 C 1628.8 187.4 1621.8 179.9 1611.5 177.2 C 1601.2 174.4 1591.4 177.4 1589.7 183.8 C 1588 190.2 1595 197.7 1605.3 200.4 Z" fill="#A39A8F" fill-rule="evenodd" clip-rule="evenodd"/><path d=" M 1617.2 155.8 C 1610.3 154 1603.8 155.2 1600.8 158.6 L 1600.2 158.4 C 1599.4 161.5 1593.8 182.6 1593.3 184 C 1591.6 189.1 1597.6 195.3 1606 197.6 C 1614.4 199.9 1622.4 197.4 1623.8 192.2 L 1630.7 166.6 L 1630 166.4 C 1629.1 162 1624.1 157.6 1617.2 155.8 Z" fill="#E39400" fill-rule="evenodd" clip-rule="evenodd"/><path d=" M 1619.5 147.2 C 1611.1 144.9 1603.1 146.5 1599.4 150.6 L 1598.6 150.4 L 1597.9 152.9 C 1597.8 153.2 1597.7 153.5 1597.6 153.8 C 1595.9 160.2 1602.9 167.7 1613.2 170.4 C 1623.5 173.2 1633.3 170.2 1635 163.8 L 1635.9 160.4 L 1635.1 160.2 C 1634.1 154.8 1628 149.4 1619.5 147.2 Z" fill="#666666" fill-rule="evenodd" clip-rule="evenodd"/><path d=" M 1614.5 166.1 C 1624.8 168.9 1634.6 165.9 1636.3 159.5 C 1638 153.1 1631 145.6 1620.7 142.9 C 1610.4 140.1 1600.6 143.1 1598.9 149.5 C 1597.2 155.9 1604.2 163.3 1614.5 166.1 Z" fill="#363634" fill-rule="evenodd" clip-rule="evenodd"/><path d=" M 1616.1 160.2 C 1622.8 162 1629.2 160.1 1630.3 155.9 C 1631.4 151.7 1626.9 146.9 1620.2 145.1 C 1613.5 143.3 1607.1 145.2 1606 149.4 C 1604.8 153.6 1609.4 158.4 1616.1 160.2 Z" fill="#575756" fill-rule="evenodd" clip-rule="evenodd"/><path d=" M 1537.8 64.1 C 1563.3 90.7 1587.8 125.5 1617.4 151.3 L 1637.3 168.6 C 1704.7 196 1712.1 212.8 1710.4 236.4 C 1710.1 241.3 1700.6 242.2 1697.2 238.8 L 1592 134 C 1518.7 102.8 1517.2 85.6 1524.5 66.5 C 1526.3 61.9 1533.7 59.8 1537.8 64.1 Z" fill="#E39400" fill-rule="evenodd" clip-rule="evenodd"/><path d=" M 1539.3 61.5 L 1618.9 148.7 L 1637.3 167 C 1704.7 194.4 1713.5 210.2 1711.9 233.8 C 1711.6 238.7 1702.1 239.6 1698.7 236.2 L 1593.6 131.3 C 1520.3 100.1 1518.8 82.9 1526.1 63.8 C 1527.8 59.3 1535.3 57.1 1539.3 61.5 Z" fill="#FFCC00" fill-rule="evenodd" clip-rule="evenodd"/><path d=" M 1622.1 138.4 C 1633.2 141.4 1640.8 149.4 1638.9 156.3 C 1637 163.2 1626.5 166.4 1615.4 163.4 C 1604.3 160.4 1596.7 152.4 1598.6 145.5 C 1600.5 138.6 1611 135.4 1622.1 138.4 Z" fill="#666666" fill-rule="evenodd" clip-rule="evenodd"/><path d=" M 1625.3 126.6 C 1614.2 123.6 1601.1 136.1 1599.3 143.1 C 1597.4 150 1605 158 1616.1 161 C 1627.2 164 1637.8 160.8 1639.6 153.9 C 1641.5 146.9 1636.5 129.5 1625.3 126.6 Z" fill="url(#SVGID_1_)" fill-rule="evenodd" clip-rule="evenodd"/></g><g><linearGradient x1="1855.19" y1="144.634" x2="1874.76" y2="175.952" gradientUnits="userSpaceOnUse" id="SVGID_2_" gradientTransform="matrix(0.9659,0.2588,-0.2588,0.9659,-561.921,-604.868)"><stop offset="0" stop-color="#FBC800"/><stop offset="1" stop-color="#FFFFFF"/></linearGradient><path d=" M 1184.6 87.7 C 1194.9 90.5 1204.7 87.5 1206.4 81.1 C 1208.1 74.7 1201.1 67.2 1190.8 64.5 C 1180.5 61.7 1170.7 64.7 1169 71.1 C 1167.3 77.5 1174.3 84.9 1184.6 87.7 Z" fill="#A39A8F" fill-rule="evenodd" clip-rule="evenodd"/><path d=" M 1196.5 43.1 C 1203.4 44.9 1208.4 49.3 1209.3 53.7 L 1209.9 53.9 C 1209.1 57 1203.4 78.1 1203.1 79.5 C 1202 84.7 1193.7 87.1 1185.3 84.9 C 1176.9 82.6 1171.2 76.6 1172.6 71.3 L 1179.5 45.7 L 1180.2 45.9 C 1183.1 42.5 1189.7 41.2 1196.5 43.1 Z" fill="#E39400" fill-rule="evenodd" clip-rule="evenodd"/><path d=" M 1198.9 34.5 C 1207.3 36.8 1213.5 42.1 1214.6 47.5 L 1215.4 47.7 L 1214.7 50.2 C 1214.7 50.5 1214.6 50.8 1214.5 51.1 C 1212.8 57.5 1203 60.5 1192.7 57.7 C 1182.4 54.9 1175.4 47.5 1177.1 41.1 L 1178 37.7 L 1178.8 37.9 C 1182.4 33.7 1190.4 32.2 1198.9 34.5 Z" fill="#666666" fill-rule="evenodd" clip-rule="evenodd"/><path d=" M 1193.8 53.4 C 1204.1 56.2 1213.9 53.2 1215.6 46.8 C 1217.3 40.4 1210.3 32.9 1200 30.2 C 1189.7 27.4 1179.9 30.4 1178.2 36.8 C 1176.5 43.1 1183.5 50.6 1193.8 53.4 Z" fill="#363634" fill-rule="evenodd" clip-rule="evenodd"/><path d=" M 1195.3 47.5 C 1202 49.3 1208.4 47.4 1209.5 43.2 C 1210.6 39 1206.1 34.2 1199.4 32.4 C 1192.7 30.6 1186.3 32.5 1185.2 36.7 C 1184.1 40.8 1188.6 45.7 1195.3 47.5 Z" fill="#575756" fill-rule="evenodd" clip-rule="evenodd"/><path d=" M 1311.2 3.4 C 1275.8 13.7 1237.2 31.6 1198.7 39.1 L 1172.8 44.2 C 1100.7 34.2 1086 45.1 1075.6 66.4 C 1073.5 70.8 1081.2 76.3 1085.8 75.1 L 1229.2 36.8 C 1308.2 46.4 1318.2 32.3 1321.4 12.1 C 1322.2 7.2 1316.9 1.7 1311.2 3.4 Z" fill="#E39400" fill-rule="evenodd" clip-rule="evenodd"/><path d=" M 1311.2 0.3 L 1198.7 36 L 1173.6 42.7 C 1101.5 32.7 1086 42 1075.6 63.3 C 1073.5 67.7 1081.2 73.2 1085.8 72 L 1229.2 33.7 C 1308.2 43.3 1318.1 29.2 1321.4 9 C 1322.2 4.2 1316.8 -1.4 1311.2 0.3 Z" fill="#FFCC00" fill-rule="evenodd" clip-rule="evenodd"/><path d=" M 1201 25.6 C 1189.9 22.6 1179.3 25.8 1177.5 32.7 C 1175.6 39.6 1183.2 47.6 1194.3 50.6 C 1205.4 53.6 1216 50.4 1217.8 43.5 C 1219.7 36.6 1212.1 28.6 1201 25.6 Z" fill="#666666" fill-rule="evenodd" clip-rule="evenodd"/><path d=" M 1204.2 13.7 C 1193.1 10.7 1180 23.2 1178.2 30.2 C 1176.3 37.1 1183.9 45.1 1195 48.1 C 1206.1 51.1 1216.7 47.9 1218.5 41 C 1220.3 34.1 1215.3 16.7 1204.2 13.7 Z" fill="url(#SVGID_2_)" fill-rule="evenodd" clip-rule="evenodd"/></g><path d=" M 1142.7 297.7 C 1143.5 296.6 1144.6 295.6 1146.1 294.8 L 1288.6 242.3 C 1295.1 239.9 1295.5 233.2 1291.7 227.4 L 1291.5 227.1 L 1292.9 226.6 C 1299.2 224.4 1300.4 228.3 1296.5 222.5 L 1194.9 106.8 C 1193.4 105.1 1192.5 103.3 1192.2 101.6 C 1194 98.8 1197.4 96.6 1201.8 95.4 C 1211.2 92.8 1223.5 95.1 1233.4 101.6 L 1356 220.5 C 1361.9 226.2 1372 228.1 1380.7 227.6 L 1550.7 186.7 C 1560.7 184.3 1573.8 191 1581.1 198.5 C 1584.7 202.1 1586.8 206.1 1587.1 209.7 C 1586.3 210.8 1585.1 211.8 1583.6 212.5 L 1434.7 262.7 C 1433.3 263.2 1435.7 267.5 1440.6 274.3 L 1430.5 278.3 C 1424.3 280.8 1503.4 356.5 1529.7 399.5 C 1530.9 401.4 1531.5 403.3 1531.6 405.1 C 1529.9 407.6 1526.9 409.7 1522.8 410.8 C 1513.4 413.4 1500.4 411.3 1491.2 404.6 L 1367.7 295.3 C 1361.5 289.8 1351.2 287.4 1343 288.2 L 1178.8 320.6 C 1168.8 322.6 1155.7 316.3 1148.4 308.8 C 1144.9 305.2 1142.9 301.3 1142.7 297.7 Z" fill="#4C4C4C" fill-rule="evenodd" clip-rule="evenodd"/><g><linearGradient x1="2288.74" y1="393.836" x2="2308.31" y2="425.153" gradientUnits="userSpaceOnUse" id="SVGID_3_" gradientTransform="matrix(0.9659,0.2588,-0.2588,0.9659,-561.921,-604.868)"><stop offset="0" stop-color="#FBC800"/><stop offset="1" stop-color="#FFFFFF"/></linearGradient><path d=" M 1538.9 440.6 C 1549.2 443.4 1559 440.4 1560.7 434 C 1562.4 427.6 1555.4 420.1 1545.1 417.4 C 1534.8 414.6 1525 417.6 1523.3 424 C 1521.6 430.4 1528.6 437.9 1538.9 440.6 Z" fill="#A39A8F" fill-rule="evenodd" clip-rule="evenodd"/><path d=" M 1550.8 396 C 1557.7 397.8 1562.7 402.2 1563.6 406.6 L 1564.2 406.8 C 1563.4 409.9 1557.7 431 1557.4 432.4 C 1556.3 437.6 1548 440 1539.6 437.8 C 1531.2 435.5 1525.5 429.5 1526.9 424.2 L 1533.8 398.6 L 1534.5 398.8 C 1537.4 395.4 1544 394.2 1550.8 396 Z" fill="#E39400" fill-rule="evenodd" clip-rule="evenodd"/><path d=" M 1553.1 387.4 C 1561.5 389.7 1567.7 395 1568.8 400.4 L 1569.6 400.6 L 1568.9 403.1 C 1568.9 403.4 1568.8 403.7 1568.7 404 C 1567 410.4 1557.2 413.4 1546.9 410.6 C 1536.6 407.8 1529.6 400.4 1531.3 394 L 1532.2 390.6 L 1533 390.8 C 1536.7 386.7 1544.7 385.1 1553.1 387.4 Z" fill="#666666" fill-rule="evenodd" clip-rule="evenodd"/><path d=" M 1548.1 406.3 C 1558.4 409.1 1568.2 406.1 1569.9 399.7 C 1571.6 393.3 1564.6 385.8 1554.3 383.1 C 1544 380.3 1534.2 383.3 1532.5 389.7 C 1530.8 396.1 1537.8 403.5 1548.1 406.3 Z" fill="#363634" fill-rule="evenodd" clip-rule="evenodd"/><path d=" M 1549.6 400.4 C 1556.3 402.2 1562.7 400.3 1563.8 396.1 C 1564.9 391.9 1560.4 387.1 1553.7 385.3 C 1547 383.5 1540.6 385.4 1539.5 389.6 C 1538.4 393.8 1542.9 398.6 1549.6 400.4 Z" fill="#575756" fill-rule="evenodd" clip-rule="evenodd"/><path d=" M 1665.5 356.3 C 1630.1 366.6 1591.5 384.5 1553 392 L 1527.1 397.1 C 1455 387.1 1440.3 398 1429.9 419.3 C 1427.8 423.7 1435.5 429.2 1440.2 428 L 1583.6 389.7 C 1662.6 399.3 1672.5 385.2 1675.8 365 C 1676.5 360.2 1671.2 354.7 1665.5 356.3 Z" fill="#E39400" fill-rule="evenodd" clip-rule="evenodd"/><path d=" M 1665.5 353.3 L 1553 389 L 1527.9 395.7 C 1455.8 385.7 1440.3 395 1429.9 416.3 C 1427.8 420.7 1435.5 426.2 1440.1 425 L 1583.5 386.7 C 1662.5 396.3 1672.5 382.2 1675.7 362 C 1676.5 357.1 1671.1 351.5 1665.5 353.3 Z" fill="#FFCC00" fill-rule="evenodd" clip-rule="evenodd"/><path d=" M 1555.3 378.5 C 1544.2 375.5 1533.6 378.7 1531.8 385.6 C 1529.9 392.5 1537.5 400.5 1548.6 403.5 C 1559.7 406.5 1570.3 403.3 1572.1 396.4 C 1573.9 389.5 1566.4 381.5 1555.3 378.5 Z" fill="#666666" fill-rule="evenodd" clip-rule="evenodd"/><path d=" M 1558.5 366.6 C 1547.4 363.6 1534.3 376.1 1532.5 383.1 C 1530.6 390 1538.2 398 1549.3 401 C 1560.4 404 1571 400.8 1572.8 393.9 C 1574.6 387 1569.6 369.6 1558.5 366.6 Z" fill="url(#SVGID_3_)" fill-rule="evenodd" clip-rule="evenodd"/></g><g><linearGradient x1="1856.34" y1="393.836" x2="1875.91" y2="425.156" gradientUnits="userSpaceOnUse" id="SVGID_4_" gradientTransform="matrix(0.9659,0.2588,-0.2588,0.9659,-561.921,-604.868)"><stop offset="0" stop-color="#FBC800"/><stop offset="1" stop-color="#FFFFFF"/></linearGradient><path d=" M 1120.7 328.6 C 1131 331.4 1140.8 328.4 1142.5 322 C 1144.2 315.6 1137.2 308.1 1126.9 305.4 C 1116.6 302.7 1106.8 305.6 1105.1 312 C 1103.4 318.4 1110.4 325.8 1120.7 328.6 Z" fill="#A39A8F" fill-rule="evenodd" clip-rule="evenodd"/><path d=" M 1132.7 284 C 1125.8 282.2 1119.3 283.4 1116.3 286.8 L 1115.7 286.6 C 1114.9 289.7 1109.3 310.8 1108.8 312.2 C 1107.1 317.3 1113.1 323.5 1121.5 325.8 C 1129.9 328.1 1137.9 325.6 1139.3 320.4 L 1146.2 294.8 L 1145.5 294.6 C 1144.6 290.2 1139.6 285.8 1132.7 284 Z" fill="#E39400" fill-rule="evenodd" clip-rule="evenodd"/><path d=" M 1135 275.3 C 1126.6 273 1118.6 274.6 1114.9 278.7 L 1114.1 278.5 L 1113.4 281 C 1113.3 281.3 1113.2 281.6 1113.1 281.9 C 1111.4 288.3 1118.4 295.8 1128.7 298.5 C 1139 301.3 1148.8 298.3 1150.5 291.9 L 1151.4 288.5 L 1150.6 288.3 C 1149.6 283 1143.4 277.6 1135 275.3 Z" fill="#666666" fill-rule="evenodd" clip-rule="evenodd"/><path d=" M 1129.9 294.3 C 1140.2 297.1 1150 294.1 1151.7 287.7 C 1153.4 281.3 1146.4 273.8 1136.1 271.1 C 1125.8 268.3 1116 271.3 1114.3 277.7 C 1112.6 284 1119.6 291.5 1129.9 294.3 Z" fill="#363634" fill-rule="evenodd" clip-rule="evenodd"/><path d=" M 1131.5 288.4 C 1138.2 290.2 1144.6 288.3 1145.7 284.1 C 1146.8 279.9 1142.3 275.1 1135.6 273.3 C 1128.9 271.5 1122.5 273.4 1121.4 277.6 C 1120.3 281.7 1124.8 286.6 1131.5 288.4 Z" fill="#575756" fill-rule="evenodd" clip-rule="evenodd"/><path d=" M 1053.2 192.3 C 1078.7 218.9 1103.2 253.7 1132.8 279.5 L 1152.7 296.8 C 1220.1 324.2 1227.5 341 1225.8 364.6 C 1225.5 369.5 1216 370.4 1212.6 367 L 1107.5 262.1 C 1034.2 230.9 1032.7 213.7 1040 194.6 C 1041.8 190.1 1049.2 188 1053.2 192.3 Z" fill="#E39400" fill-rule="evenodd" clip-rule="evenodd"/><path d=" M 1054.8 189.6 L 1134.4 276.8 L 1152.8 295.1 C 1220.2 322.5 1229 338.3 1227.4 361.9 C 1227 366.8 1217.6 367.7 1214.2 364.3 L 1109 259.5 C 1035.7 228.3 1034.2 211.1 1041.5 192 C 1043.3 187.5 1050.8 185.3 1054.8 189.6 Z" fill="#FFCC00" fill-rule="evenodd" clip-rule="evenodd"/><path d=" M 1137.6 266.6 C 1148.7 269.6 1156.3 277.6 1154.4 284.5 C 1152.5 291.4 1142 294.6 1130.9 291.6 C 1119.8 288.6 1112.2 280.6 1114.1 273.7 C 1115.9 266.8 1126.5 263.6 1137.6 266.6 Z" fill="#666666" fill-rule="evenodd" clip-rule="evenodd"/><path d=" M 1140.8 254.7 C 1129.7 251.7 1116.6 264.2 1114.8 271.2 C 1112.9 278.1 1120.5 286.1 1131.6 289.1 C 1142.7 292.1 1153.3 288.9 1155.1 282 C 1156.9 275.1 1151.9 257.7 1140.8 254.7 Z" fill="url(#SVGID_4_)" fill-rule="evenodd" clip-rule="evenodd"/></g><path d=" M 1307.3 158.8 C 1287.1 161.2 1269.2 166.9 1255 175.6 L 1296.3 222.7 C 1300.2 228.5 1299.8 236 1293.2 237.6 L 1233.8 251.6 L 1230.6 263.6 C 1238 276.8 1252.9 293 1266.4 303.4 L 1343.1 288.3 C 1351.4 287.5 1361.6 289.9 1367.8 295.4 L 1423.4 344.6 C 1442.1 341.9 1458.7 336.3 1471.9 328.1 L 1474.7 317.7 C 1451.3 288.4 1431.3 263.9 1434.8 262.7 L 1496.2 242 C 1488.1 226.4 1474.7 211.4 1457.2 198.5 L 1385 212 C 1376.3 212.5 1366.7 210.4 1360.3 204.9 L 1307.3 158.8 Z" fill="#E39400" fill-rule="evenodd" clip-rule="evenodd"/><path d=" M 1389.2 154.9 C 1312.1 134.2 1239.2 156.3 1226.4 204.2 C 1213.6 252.1 1265.7 307.6 1342.8 328.3 C 1419.9 349 1492.8 326.9 1505.6 279 C 1518.4 231.1 1466.3 175.5 1389.2 154.9 Z" fill="#FFCC00" fill-rule="evenodd" clip-rule="evenodd"/><path d=" M 1386 166.9 C 1334.5 153.1 1285.7 167.8 1277.2 199.8 C 1268.6 231.8 1303.5 268.9 1355 282.8 C 1406.5 296.6 1455.3 281.9 1463.8 249.9 C 1472.3 217.9 1437.5 180.7 1386 166.9 Z" fill="#E39400" fill-rule="evenodd" clip-rule="evenodd"/><path d=" M 1383.9 174.5 C 1334.4 161.2 1287.6 174.3 1276.3 203.7 C 1271.4 234.8 1305.4 269.5 1354.9 282.8 C 1404.4 296.1 1451.2 283 1462.5 253.6 C 1467.4 222.5 1433.4 187.8 1383.9 174.5 Z" fill="#363634" fill-rule="evenodd" clip-rule="evenodd"/><path d=" M 1383.1 177.8 C 1340.4 166.4 1300 178.6 1292.9 205.1 C 1285.8 231.6 1314.7 262.4 1357.4 273.8 C 1400.1 285.2 1440.5 273 1447.6 246.5 C 1454.6 220 1425.8 189.2 1383.1 177.8 Z" fill="#E39400" fill-rule="evenodd" clip-rule="evenodd"/><path d=" M 1384.5 172.4 C 1341.8 161 1301.4 173.2 1294.3 199.7 C 1287.2 226.2 1316.1 257 1358.8 268.4 C 1401.5 279.8 1441.9 267.6 1449 241.1 C 1456.1 214.6 1427.2 183.9 1384.5 172.4 Z" fill="url(#SVGID_5_)" fill-rule="evenodd" clip-rule="evenodd"/></g><path d=" M 715.9 1081.1 L 33.2 1081.1 C 17 1081.1 4 1068.1 4 1052.2 L 4 607 C 4 591 17.1 578.1 33.2 578.1 L 715.8 578.1 C 732 578.1 745 591.1 745 607 L 745 971.4 L 819.9 1036.1 L 745 1027.1 L 745 1052.2 C 745.1 1068.1 732 1081.1 715.9 1081.1 Z" stroke="#41494A" stroke-width="8" stroke-miterlimit="10" fill="none"/><g><path d=" M 897.3 1210.6 C 903.5 1214.2 903.5 1220 897.3 1223.6 C 891.1 1227.2 881 1227.2 874.8 1223.7 C 868.6 1220.1 868.6 1214.3 874.8 1210.7 C 880.9 1207 891 1207 897.3 1210.6 Z" fill="#D7CCC8"/><g><path d=" M 917.1 1157.9 L 912.7 1155.4 L 912.7 1149.4 L 917.1 1151.9 Z" fill="#2B5FAD"/><path d=" M 916.6 1158.2 L 912.2 1155.7 L 912.2 1149.6 L 916.6 1152.1 Z" fill="#243B58"/><path d=" M 912.2 1149.6 L 912.7 1149.4 L 917.1 1151.9 L 916.6 1152.1 Z" fill="#23292E"/><path d=" M 917.1 1151.9 L 917.1 1157.9 L 916.6 1158.2 L 916.6 1152.1 Z" fill="#23292E"/></g><path d=" M 917.2 1158.1 L 917.2 1157.2 L 917.2 1154.6 L 918.7 1155.3 L 919.9 1157.2 C 920.2 1157.7 920.2 1158.3 919.8 1158.7 L 918.8 1159.7 L 917.2 1158.1 Z" fill="#FFD0A4"/><path d=" M 899.9 1215.6 L 892.4 1218.3 C 890.6 1219.1 888.4 1217.8 888.4 1215.8 C 888.4 1215.8 888.4 1215.8 888.4 1215.8 C 888.4 1215.8 888.4 1215.6 888.4 1215.5 C 888.5 1215.1 888.8 1214.7 889.2 1214.5 L 895 1212.3 C 896.6 1211.7 898.3 1211.9 899.7 1212.9 L 899.7 1212.9 L 900.2 1213.3 C 901.2 1214.1 900.9 1215.4 899.9 1215.6 Z" fill="#627681"/><path d=" M 892.2 1176.4 L 888 1195.3 L 883.7 1205 L 878.6 1214.1 L 873.2 1211.8 L 873.2 1211.8 L 873.4 1211.2 C 874.3 1208.2 875.2 1205.1 876.4 1202.2 C 877.5 1199.2 878.7 1196.3 880.1 1193.5 L 882.9 1174.6 L 890.7 1176.2 L 892.2 1176.4 Z" fill="#180D2A"/><path d=" M 891 1176.7 L 886.5 1194.7 L 882.2 1204.4 L 877.1 1213.5 L 873.1 1211.8 L 873.3 1211.2 C 874.2 1208.2 875.1 1205.1 876.3 1202.2 C 877.4 1199.2 878.6 1196.3 880 1193.5 L 882.8 1174.6 L 891 1176.7 Z" fill="#23292E"/><path d=" M 899.7 1177.6 L 898.7 1198 L 895.1 1214.8 L 888.8 1214.9 L 888.8 1214.9 L 888.8 1213.1 C 888.9 1210.4 889.1 1207.7 889.5 1205.1 C 889.9 1202.5 890.5 1199.8 891.3 1197.3 L 889.4 1176.7 L 889.4 1176.5 L 899.7 1177.6 Z" fill="#180D2A"/><path d=" M 897.7 1177.6 L 896.7 1198 L 893.1 1214.8 L 888.7 1214.9 L 888.7 1213.1 C 888.8 1210.4 889 1207.7 889.4 1205.1 C 889.8 1202.5 890.4 1199.8 891.2 1197.3 L 888.2 1176.6 L 897.7 1177.6 Z" fill="#23292E"/><path d=" M 893.9 1148.9 C 897.8 1149.6 900.7 1153.4 900.8 1157.3 C 900.9 1164 901.8 1174.2 900.8 1180.6 C 900.7 1181.5 899.9 1182.2 899 1182.3 L 895.7 1182.5 C 890.9 1182.8 888.2 1180.1 883.6 1178.4 L 883.6 1178.4 C 881.8 1177.8 880.7 1176 880.8 1174.1 L 882.6 1162.6 L 880.6 1149.9 C 880.6 1146.8 883.4 1144.6 886.4 1145.3 L 893.9 1148.9 Z" fill="#297FC4"/><path d=" M 900.7 1154.4 L 907.4 1165.8 L 902.5 1165.3 L 917 1157.8 C 917.6 1157.5 918.3 1157.7 918.6 1158.2 L 918.6 1158.3 C 919.1 1158.9 919 1159.8 918.4 1160.3 L 907 1169.5 L 907 1169.5 C 905.8 1171.1 903.3 1171 902.3 1169.3 L 902.2 1169.1 L 895.1 1157.9 C 894.1 1156.4 894.6 1154.3 896.2 1153.4 L 896.2 1153.4 C 897.7 1152.3 899.8 1152.8 900.7 1154.4 Z" fill="#297FC4"/><g><path d=" M 887 1145.9 L 887.9 1143.7 L 886.6 1139.9 C 885.4 1137.9 885.6 1135.3 887 1133.4 L 887 1133.4 C 888.4 1131.7 890.6 1130.9 892.7 1131.3 L 895.3 1131.8 C 896.4 1132 897.1 1133.1 896.8 1134.2 L 896.8 1134.2 C 896.7 1134.7 896.7 1135.1 896.7 1135.6 L 897 1137.8 L 897 1137.8 C 897.2 1138.6 897.3 1139.4 897.1 1140.2 L 896.9 1141.1 C 896.4 1142.6 894.8 1143.4 893.3 1143 L 893.3 1143 L 892.8 1148.7 L 887 1145.9 Z" fill="#FFD0A4"/><path d=" M 896.7 1135.4 L 894.9 1136.9 C 894.9 1136.9 894.6 1138 894.8 1139.3 C 895 1140.6 892.6 1142.2 892.6 1142.2 L 891.2 1144 C 890.9 1144.4 890.4 1144.6 889.9 1144.6 L 888.3 1144.5 C 887.4 1144.4 886.6 1143.9 886.3 1143 C 886 1142.2 885.7 1141.4 885.6 1140.9 C 885.5 1140.4 885.1 1139.5 884.7 1138.7 C 884.2 1137.7 884.1 1136.5 884.3 1135.4 C 884.5 1134.7 884.7 1134 885 1133.6 C 885.9 1132.4 886 1131.2 888.3 1130.6 C 890.6 1130.1 894.2 1129.9 895.1 1130.4 C 896 1130.9 895.9 1131.3 896.7 1132.6 C 897.7 1133.8 896.7 1135.4 896.7 1135.4 Z" fill="#966039"/></g><path d=" M 886.5 1145.8 L 887.5 1144.7 L 893.1 1146.9 L 893.2 1148.8 Z" fill="#17B8F2"/><path d=" M 894.7 1140.4 L 894.1 1139.6 C 893.9 1139.3 893.3 1139.2 893 1139.5 L 893 1139.5 C 892.8 1139.6 892.7 1139.9 892.8 1140.1 L 893.5 1142.3 L 895.1 1141.6 L 894.7 1140.4 Z" fill="#FFD0A4"/><path d=" M 888.7 1211.9 L 890.7 1212.2 L 895.7 1211.7 L 894.9 1216.6 L 889.8 1216.9 C 889 1217 888.4 1216.3 888.4 1215.5 L 888.7 1211.9 Z" fill="#627681"/><path d=" M 878.6 1214.1 L 878.7 1215.6 C 878.7 1216.4 879.4 1217 880.2 1217 L 882.2 1217 C 882.8 1217 883.3 1217.3 883.6 1217.8 L 883.6 1217.8 C 884.3 1218.8 883.7 1220.1 882.6 1220.4 L 881.7 1220.6 C 880 1221 878.3 1221 876.6 1220.6 L 872 1219.4 C 870.5 1219 869.8 1217.3 870.6 1216 L 873.1 1211.8 L 878.6 1214.1 Z" fill="#E17550"/><path d=" M 878.6 1214.1 L 878.7 1215.6 C 878.7 1216.4 879.4 1217 880.2 1217 L 882.2 1217 C 882.8 1217 883.3 1217.3 883.6 1217.8 L 883.6 1217.8 C 884.3 1218.8 883.7 1220.1 882.6 1220.4 L 881.7 1220.6 C 880 1221 878.3 1221 876.6 1220.6 L 872 1219.4 C 870.5 1219 869.8 1217.3 870.6 1216 L 873.1 1211.8 L 878.6 1214.1 Z" fill="#627681"/><path d=" M 916.2 1155.8 L 916.1 1155.7 C 915.8 1155.5 915.4 1155.5 915.1 1155.7 L 915.1 1155.7 C 915 1155.8 915 1156 915.1 1156.1 L 915.7 1156.7 C 915.7 1156.7 915.8 1156.7 915.8 1156.8 L 917.5 1157.3 C 917.6 1157.3 917.7 1157.3 917.8 1157.2 L 918 1156.6 C 918.1 1156.5 918 1156.3 917.8 1156.3 L 916.2 1155.8 C 916.2 1155.9 916.2 1155.9 916.2 1155.8 Z" fill="#FFD0A4"/></g><path d="" stroke="#FBB03B" stroke-width="8" stroke-miterlimit="10" fill="none"/><path d="" stroke="#FBB03B" stroke-width="8" stroke-miterlimit="10" fill="none"/><g><path d="" stroke="#FBB03B" stroke-width="20" stroke-miterlimit="10" fill="none"/><path d="" stroke="#FBB03B" stroke-width="20" stroke-miterlimit="10" fill="none"/><path d="" stroke="#FBB03B" stroke-width="20" stroke-miterlimit="10" fill="none"/><path d=" M 1246.8 634.7 C 1210.3 644.4 1172.8 622.6 1163.1 586.1" stroke="#FBB03B" stroke-width="20" stroke-miterlimit="10" fill="none"/><path d=" M 1264.4 700.8 C 1191.3 720.2 1116.4 676.7 1097 603.6" stroke="#FBB03B" stroke-width="20" stroke-miterlimit="10" fill="none"/><path d=" M 1255.6 667.7 C 1200.8 682.2 1144.6 649.6 1130.1 594.8" stroke="#FBB03B" stroke-width="20" stroke-miterlimit="10" fill="none"/><path d=" M 1238 601.6 C 1219.7 606.4 1201 595.6 1196.2 577.3" stroke="#FBB03B" stroke-width="20" stroke-miterlimit="10" fill="none"/></g><text font-family="timesnewromanps-boldmt" font-size="40" transform="matrix(1,0,0,1,623.242,776.913)">Mic. 1</text><text font-family="timesnewromanps-boldmt" font-size="48" transform="matrix(1,0,0,1,1303.49,677.66)">Acoustic Pulse</text></svg>