<svg xmlns="http://www.w3.org/2000/svg" xmlns:xlink="http://www.w3.org/1999/xlink" viewBox="0 0 369.67 463.4"><defs><style>.cls-1{isolation:isolate;}.cls-2{fill:#fafdfe;}.cls-3,.cls-34{fill:#376e8d;}.cls-4{fill:#488099;}.cls-33,.cls-5{fill:#5d93ab;}.cls-6{fill:#fff2fb;}.cls-30,.cls-7{opacity:0.34;}.cls-11,.cls-12,.cls-30,.cls-7{mix-blend-mode:multiply;}.cls-7{fill:url(#radial-gradient);}.cls-8{fill:#505a5b;}.cls-9{fill:#393b38;}.cls-10{fill:#41494a;}.cls-11{fill:#b9ada5;}.cls-12{fill:#59504b;}.cls-13{fill:#ededed;}.cls-14{fill:#c8c8c8;}.cls-15{fill:#ffd169;}.cls-16{fill:#23292e;}.cls-17{fill:#2e373d;}.cls-18{fill:#fcb915;}.cls-19{fill:#cecece;}.cls-20{fill:#304e75;}.cls-21,.cls-28{fill:#243b58;}.cls-22,.cls-29{fill:#59718b;}.cls-23{fill:#fff;}.cls-24{fill:#d7ccc8;}.cls-25{fill:#627681;}.cls-26{fill:#ffd101;}.cls-26,.cls-27{stroke:#000;stroke-miterlimit:10;}.cls-26,.cls-27,.cls-28,.cls-29,.cls-47,.cls-48,.cls-49,.cls-50,.cls-51,.cls-52,.cls-53,.cls-54,.cls-55,.cls-56,.cls-57,.cls-58,.cls-59,.cls-60,.cls-61{fill-rule:evenodd;}.cls-27{stroke-width:0.5px;}.cls-30{fill:url(#radial-gradient-2);}.cls-31{fill:#646464;}.cls-32{fill:#e4dad8;}.cls-33,.cls-34{opacity:0.5;}.cls-35,.cls-53{fill:#363634;}.cls-36,.cls-52{fill:#666;}.cls-37{fill:#deb068;}.cls-38{fill:#f1c989;}.cls-39{fill:#ebbe73;}.cls-40{fill:#998376;}.cls-41{fill:#8a766a;}.cls-42{fill:#6d5041;}.cls-43{fill:#7f6d62;}.cls-44{fill:#f7e8d5;}.cls-45{fill:#474646;}.cls-46{fill:#292623;}.cls-47{fill:#7f7f7f;}.cls-48{fill:#f1ece6;}.cls-49{fill:#bcb5ad;}.cls-50{fill:#a39a8f;}.cls-51{fill:#e39400;}.cls-54{fill:#575756;}.cls-55{fill:#fc0;}.cls-56{fill:url(#GradientFill_1);}.cls-57{fill:url(#GradientFill_1-2);}.cls-58{fill:#4c4c4c;}.cls-59{fill:url(#GradientFill_1-3);}.cls-60{fill:url(#GradientFill_1-4);}.cls-61{fill:url(#GradientFill_1-5);}</style><radialGradient id="radial-gradient" cx="434.07" cy="517.26" r="8.78" gradientTransform="matrix(0.87, 0.5, -0.86, 0.5, 320.65, -152.49)" gradientUnits="userSpaceOnUse"><stop offset="0" stop-color="#0b2451"/><stop offset="0.45" stop-color="#7f8ca3"/><stop offset="0.83" stop-color="#dbdfe5"/><stop offset="1" stop-color="#fff"/></radialGradient><radialGradient id="radial-gradient-2" cx="360.87" cy="579.01" r="8.78" xlink:href="#radial-gradient"/><linearGradient id="GradientFill_1" x1="1038.07" y1="-88.26" x2="1039.67" y2="-85.69" gradientTransform="translate(-826.78 102.8)" gradientUnits="userSpaceOnUse"><stop offset="0" stop-color="#fbc800"/><stop offset="1" stop-color="#fff"/></linearGradient><linearGradient id="GradientFill_1-2" x1="1002.3" y1="-88.26" x2="1003.91" y2="-85.69" xlink:href="#GradientFill_1"/><linearGradient id="GradientFill_1-3" x1="1037.87" y1="-67.82" x2="1039.47" y2="-65.25" xlink:href="#GradientFill_1"/><linearGradient id="GradientFill_1-4" x1="1002.4" y1="-67.82" x2="1004" y2="-65.25" xlink:href="#GradientFill_1"/><linearGradient id="GradientFill_1-5" x1="1017.56" y1="-81.05" x2="1024.14" y2="-70.51" xlink:href="#GradientFill_1"/></defs><title>资源 3</title><g class="cls-1"><g id="图层_2" data-name="图层 2"><g id="图层_1-2" data-name="图层 1"><polygon class="cls-2" points="150.12 462.72 149.44 462.72 150.12 463.4 150.12 462.72"/><polygon class="cls-2" points="78.55 462.72 78.55 462.96 78.8 462.72 78.55 462.72"/><polygon class="cls-2" points="150.12 462.72 149.44 462.72 150.12 463.4 150.12 462.72"/><polygon class="cls-2" points="78.55 462.72 78.55 462.96 78.8 462.72 78.55 462.72"/><g class="cls-1"><polygon class="cls-3" points="304.87 342.39 304.86 347 186.84 415.58 186.85 410.97 304.87 342.39"/><polygon class="cls-4" points="186.85 410.97 186.84 415.58 68.04 347 68.06 342.39 186.85 410.97"/><polygon class="cls-5" points="304.87 342.39 186.85 410.97 68.06 342.39 186.08 273.8 304.87 342.39"/></g><polygon class="cls-3" points="149.89 389.81 177.06 405.49 295.39 337.21 268.97 321.88 197.39 362.41 192.85 365.02 191.38 365.87 149.89 389.81"/><polygon class="cls-3" points="88.87 331.61 197.41 394.24 198.87 395.08 206.6 399.54 232.75 384.4 115.83 316 88.87 331.61"/><polygon class="cls-6" points="177.7 355.31 175.07 356.83 157.8 346.85 160.42 345.34 177.7 355.31"/><polygon class="cls-6" points="173.22 357.91 170.59 359.43 153.31 349.45 155.94 347.94 173.22 357.91"/><polygon class="cls-6" points="168.77 360.48 166.15 361.99 148.87 352.02 151.5 350.5 168.77 360.48"/><polygon class="cls-6" points="164.27 363.07 161.64 364.59 144.37 354.62 146.99 353.1 164.27 363.07"/><polygon class="cls-6" points="159.8 365.63 157.17 367.15 139.9 357.18 142.52 355.66 159.8 365.63"/><polygon class="cls-6" points="169.55 381.28 169.57 381.3 190.65 393.47 191.83 392.79 170.75 380.62 170.72 380.6 169.55 381.28"/><polygon class="cls-6" points="198.41 364.55 219.62 376.8 220.8 376.12 199.59 363.87 198.41 364.55"/><polygon class="cls-6" points="199.9 393.13 201.08 393.81 222.87 381.21 222.89 381.2 221.71 380.52 221.68 380.53 199.9 393.13"/><polygon class="cls-6" points="171.17 376.64 172.35 377.32 194.28 364.66 193.1 363.98 171.17 376.64"/><path class="cls-7" d="M259,326a16.79,16.79,0,0,1-15.17,0c-4.2-2.43-4.22-6.35-.05-8.76a16.76,16.76,0,0,1,15.17,0C263.16,319.63,263.18,323.55,259,326Z"/><line class="cls-3" x1="252.14" y1="307.67" x2="252.14" y2="321.29"/><path class="cls-3" d="M258.86,307a7.12,7.12,0,1,1-14.23,0c0-4,3.19-16.35,7.12-16.35S258.86,303,258.86,307Z"/><path class="cls-4" d="M164,295.84h26c6.41,0,11.61-3.32,11.61-7.42v-16.6L192,269.29l-32,20.43Z"/><path class="cls-3" d="M164,295.84v2.93c-1.91-2.95-2-3.17-4-6.11v-2.94C160.86,291,162.68,293.78,164,295.84Z"/><rect class="cls-4" x="164.01" y="295.84" width="26" height="2.93"/><path class="cls-5" d="M201.62,288.42v2.94c0,4.09-5.2,7.41-11.61,7.41v-2.93C196.42,295.84,201.62,292.52,201.62,288.42Z"/><path class="cls-8" d="M201.26,285.49v2.93c0,3.87-5,7-11.25,7V292.5C196.21,292.5,201.26,289.36,201.26,285.49Z"/><path class="cls-9" d="M164.2,292.5v2.94l-3.63-5.59v-2.94C161.38,288.16,162.86,290.45,164.2,292.5Z"/><rect class="cls-10" x="164.2" y="292.5" width="25.82" height="2.93"/><path class="cls-4" d="M164,290h26c6.41,0,11.61-3.32,11.61-7.42V266L192,263.42l-32,20.43Z"/><path class="cls-3" d="M164,290v2.93c-1.91-2.95-2-3.16-4-6.11v-2.94C160.86,285.1,162.68,287.91,164,290Z"/><rect class="cls-4" x="164.01" y="289.97" width="26" height="2.93"/><path class="cls-5" d="M201.62,282.55v2.94c0,4.09-5.2,7.41-11.61,7.41V290C196.42,290,201.62,286.65,201.62,282.55Z"/><path class="cls-8" d="M201.26,279.62v2.93c0,3.87-5,7-11.25,7v-2.94C196.21,286.63,201.26,283.49,201.26,279.62Z"/><path class="cls-9" d="M164.2,286.63v2.94L160.57,284V281C161.38,282.3,162.86,284.58,164.2,286.63Z"/><rect class="cls-10" x="164.2" y="286.63" width="25.82" height="2.93"/><path class="cls-4" d="M164,284.1h26c6.41,0,11.61-3.32,11.61-7.42v-16.6L192,257.55,160,278Z"/><path class="cls-3" d="M164,284.1V287c-1.91-2.95-2-3.16-4-6.11V278Z"/><rect class="cls-4" x="164.01" y="284.1" width="26" height="2.93"/><path class="cls-5" d="M201.62,276.68v2.94c0,4.09-5.2,7.41-11.61,7.41V284.1C196.42,284.1,201.62,280.78,201.62,276.68Z"/><path class="cls-8" d="M201.26,273.75v2.93c0,3.87-5,7-11.25,7v-2.94C196.21,280.76,201.26,277.62,201.26,273.75Z"/><path class="cls-9" d="M164.2,280.76v2.94l-3.63-5.59v-2.94C161.38,276.43,162.86,278.71,164.2,280.76Z"/><rect class="cls-10" x="164.2" y="280.76" width="25.82" height="2.93"/><path class="cls-4" d="M164,278.23h26c6.41,0,11.61-3.32,11.61-7.42v-16.6L192,251.68l-32,20.43Z"/><path class="cls-3" d="M164,278.23v2.93c-1.91-3-2-3.16-4-6.11v-2.94Z"/><rect class="cls-4" x="164.01" y="278.23" width="26" height="2.93"/><path class="cls-5" d="M201.62,270.81v2.94c0,4.09-5.2,7.41-11.61,7.41v-2.93C196.42,278.23,201.62,274.91,201.62,270.81Z"/><path class="cls-8" d="M201.26,267.88v2.93c0,3.87-5,7-11.25,7V274.9C196.21,274.9,201.26,271.75,201.26,267.88Z"/><path class="cls-9" d="M164.2,274.9v2.93l-3.63-5.59V269.3C161.38,270.56,162.86,272.84,164.2,274.9Z"/><rect class="cls-10" x="164.2" y="274.9" width="25.82" height="2.93"/><path class="cls-4" d="M164,272.36h26c6.41,0,11.61-3.32,11.61-7.41V248.34L192,245.81l-32,20.43Z"/><path class="cls-3" d="M164,272.36v2.93c-1.91-3-2-3.16-4-6.11v-2.94Z"/><rect class="cls-4" x="164.01" y="272.36" width="26" height="2.93"/><path class="cls-5" d="M201.62,265v2.93c0,4.09-5.2,7.41-11.61,7.41v-2.93C196.42,272.36,201.62,269,201.62,265Z"/><path class="cls-8" d="M201.26,262V265c0,3.86-5,7-11.25,7V269C196.21,269,201.26,265.88,201.26,262Z"/><path class="cls-9" d="M164.2,269V272l-3.63-5.59v-2.94C161.38,264.69,162.86,267,164.2,269Z"/><rect class="cls-10" x="164.2" y="269.03" width="25.82" height="2.93"/><path class="cls-4" d="M164,266.49h26c6.41,0,11.61-3.32,11.61-7.41V242.47L192,239.94l-32,20.43Z"/><path class="cls-3" d="M164,266.49v2.93l-4-6.11v-2.94Z"/><rect class="cls-4" x="164.01" y="266.49" width="26" height="2.93"/><path class="cls-5" d="M201.62,259.08V262c0,4.1-5.2,7.41-11.61,7.41v-2.93C196.42,266.49,201.62,263.17,201.62,259.08Z"/><path class="cls-8" d="M201.26,256.14v2.94c0,3.86-5,7-11.25,7v-2.93C196.21,263.16,201.26,260,201.26,256.14Z"/><path class="cls-9" d="M164.2,263.16v2.93l-3.63-5.59v-2.94C161.38,258.82,162.86,261.1,164.2,263.16Z"/><rect class="cls-10" x="164.2" y="263.16" width="25.82" height="2.93"/><path class="cls-4" d="M164,260.62h26c6.41,0,11.61-3.32,11.61-7.41V236.6L192,234.07,160,254.5Z"/><path class="cls-3" d="M164,260.62v2.94l-4-6.12V254.5Z"/><rect class="cls-4" x="164.01" y="260.62" width="26" height="2.93"/><path class="cls-5" d="M201.62,253.21v2.93c0,4.1-5.2,7.42-11.61,7.42v-2.94C196.42,260.62,201.62,257.3,201.62,253.21Z"/><path class="cls-8" d="M201.26,250.27v2.94c0,3.86-5,7-11.25,7v-2.93C196.21,257.29,201.26,254.14,201.26,250.27Z"/><path class="cls-9" d="M164.2,257.29v2.93l-3.63-5.59v-2.94C161.38,253,162.86,255.23,164.2,257.29Z"/><rect class="cls-10" x="164.2" y="257.29" width="25.82" height="2.93"/><path class="cls-4" d="M164,254.75h26c6.41,0,11.61-3.32,11.61-7.41v-16.6L192,228.2l-32,20.43Z"/><path class="cls-3" d="M164,254.75v2.94l-4-6.12v-2.94Z"/><rect class="cls-4" x="164.01" y="254.75" width="26" height="2.93"/><path class="cls-5" d="M201.62,247.34v2.93c0,4.1-5.2,7.42-11.61,7.42v-2.94C196.42,254.75,201.62,251.43,201.62,247.34Z"/><path class="cls-8" d="M201.26,244.4v2.94c0,3.87-5,7-11.25,7v-2.93C196.21,251.42,201.26,248.27,201.26,244.4Z"/><path class="cls-9" d="M164.2,251.42v2.93l-3.63-5.59v-2.94C161.38,247.08,162.86,249.36,164.2,251.42Z"/><rect class="cls-10" x="164.2" y="251.42" width="25.82" height="2.93"/><path class="cls-4" d="M164,248.88h26c6.41,0,11.61-3.32,11.61-7.41v-16.6L192,222.33l-32,20.44C162,245.71,162.1,245.93,164,248.88Z"/><path class="cls-3" d="M164,248.88v2.94l-4-6.12v-2.93C160.86,244,162.68,246.82,164,248.88Z"/><rect class="cls-4" x="164.01" y="248.88" width="26" height="2.93"/><path class="cls-5" d="M201.62,241.47v2.93c0,4.1-5.2,7.42-11.61,7.42v-2.94C196.42,248.88,201.62,245.56,201.62,241.47Z"/><path class="cls-8" d="M201.26,238.53v2.94c0,3.87-5,7-11.25,7v-2.93C196.21,245.55,201.26,242.4,201.26,238.53Z"/><path class="cls-9" d="M164.2,245.55v2.93l-3.63-5.59V240Z"/><rect class="cls-10" x="164.2" y="245.55" width="25.82" height="2.93"/><path class="cls-4" d="M164,243h26c6.41,0,11.61-3.32,11.61-7.41V219L192,216.46,160,236.9C162,239.84,162.1,240.06,164,243Z"/><path class="cls-3" d="M164,243V246l-4-6.12V236.9C160.86,238.15,162.68,241,164,243Z"/><rect class="cls-4" x="164.01" y="243.01" width="26" height="2.93"/><path class="cls-5" d="M201.62,235.6v2.93c0,4.1-5.2,7.42-11.61,7.42V243C196.42,243,201.62,239.69,201.62,235.6Z"/><path class="cls-8" d="M201.26,232.66v2.94c0,3.87-5,7-11.25,7v-2.93C196.21,239.68,201.26,236.53,201.26,232.66Z"/><path class="cls-9" d="M164.2,239.68v2.93L160.57,237v-2.93Z"/><rect class="cls-10" x="164.2" y="239.68" width="25.82" height="2.93"/><path class="cls-4" d="M164,237.14h26c6.41,0,11.61-3.32,11.61-7.41v-16.6L192,210.59,160,231C162,234,162.1,234.19,164,237.14Z"/><path class="cls-3" d="M164,237.14v2.94L160,234V231C160.86,232.28,162.68,235.09,164,237.14Z"/><rect class="cls-4" x="164.01" y="237.14" width="26" height="2.93"/><path class="cls-5" d="M201.62,229.73v2.93c0,4.1-5.2,7.42-11.61,7.42v-2.94C196.42,237.14,201.62,233.82,201.62,229.73Z"/><path class="cls-8" d="M201.26,226.79v2.94c0,3.87-5,7-11.25,7v-2.93C196.21,233.81,201.26,230.66,201.26,226.79Z"/><path class="cls-9" d="M164.2,233.81v2.93l-3.63-5.59v-2.93Z"/><rect class="cls-10" x="164.2" y="233.81" width="25.82" height="2.93"/><path class="cls-4" d="M164,231.27h26c6.41,0,11.61-3.32,11.61-7.41v-16.6L192,204.72l-32,20.44C162,228.11,162.1,228.32,164,231.27Z"/><path class="cls-3" d="M164,231.27v2.94l-4-6.12v-2.93C160.86,226.41,162.68,229.22,164,231.27Z"/><rect class="cls-4" x="164.01" y="231.27" width="26" height="2.93"/><path class="cls-5" d="M201.62,223.86v2.93c0,4.1-5.2,7.42-11.61,7.42v-2.94C196.42,231.27,201.62,228,201.62,223.86Z"/><path class="cls-8" d="M201.26,220.92v2.94c0,3.87-5,7-11.25,7v-2.93C196.21,227.94,201.26,224.79,201.26,220.92Z"/><path class="cls-9" d="M164.2,227.94v2.93c-1.92-2.94-1.72-2.64-3.63-5.59v-2.93Z"/><rect class="cls-10" x="164.2" y="227.94" width="25.82" height="2.93"/><path class="cls-4" d="M164,225.4h26c6.41,0,11.61-3.32,11.61-7.41v-16.6L192,198.85l-32,20.44C162,222.24,162.1,222.45,164,225.4Z"/><path class="cls-3" d="M164,225.4v2.94l-4-6.12v-2.93C160.86,220.54,162.68,223.35,164,225.4Z"/><rect class="cls-4" x="164.01" y="225.4" width="26" height="2.93"/><path class="cls-5" d="M201.62,218v2.93c0,4.1-5.2,7.42-11.61,7.42V225.4C196.42,225.4,201.62,222.08,201.62,218Z"/><path class="cls-8" d="M201.26,215.05V218c0,3.87-5,7-11.25,7v-2.93C196.21,222.07,201.26,218.92,201.26,215.05Z"/><path class="cls-9" d="M164.2,222.07V225c-1.92-2.94-1.72-2.64-3.63-5.59v-2.93Z"/><rect class="cls-10" x="164.2" y="222.07" width="25.82" height="2.93"/><path class="cls-4" d="M164,219.53h26c6.41,0,11.61-3.32,11.61-7.41v-16.6L192,193l-32,20.43Z"/><path class="cls-3" d="M164,219.53v2.94l-4-6.12v-2.93C160.86,214.67,162.68,217.48,164,219.53Z"/><rect class="cls-4" x="164.01" y="219.53" width="26" height="2.93"/><path class="cls-5" d="M201.62,212.12v2.94c0,4.09-5.2,7.41-11.61,7.41v-2.94C196.42,219.53,201.62,216.21,201.62,212.12Z"/><path class="cls-8" d="M201.26,209.19v2.93c0,3.87-5,7-11.25,7V216.2C196.21,216.2,201.26,213.05,201.26,209.19Z"/><path class="cls-9" d="M164.2,216.2v2.94c-1.92-2.95-1.72-2.65-3.63-5.6v-2.93Z"/><rect class="cls-10" x="164.2" y="216.2" width="25.82" height="2.93"/><path class="cls-5" d="M164,213.66h26c6.41,0,11.61-3.31,11.61-7.41v-16.6L192,187.12l-32,20.43Z"/><polygon class="cls-3" points="192.21 188.39 192.21 190.38 162.53 209.34 161.62 207.92 192.21 188.39"/><polygon class="cls-3" points="200.54 190.59 200.54 192.59 192.21 190.38 192.21 188.39 200.54 190.59"/><path class="cls-4" d="M190,212.47H164.57l-2-3.14,29.68-18.94,8.33,2.2v13.66C200.54,209.62,195.72,212.47,190,212.47Z"/><polygon class="cls-11" points="190.01 213.66 185.4 213.66 183.39 212.47 184.59 212.47 177.7 208.3 187.84 201.83 198.36 201.83 190.01 213.66"/><path class="cls-3" d="M164,213.66v2.94l-4-6.12v-2.93C160.86,208.8,162.68,211.61,164,213.66Z"/><rect class="cls-4" x="164.01" y="213.66" width="26" height="2.93"/><path class="cls-5" d="M201.62,206.25v2.94c0,4.09-5.2,7.41-11.61,7.41v-2.94C196.42,213.66,201.62,210.35,201.62,206.25Z"/><path class="cls-5" d="M201.62,197.48v8.77c0,4.1-5.2,7.41-11.61,7.41v-8.77C196.42,204.89,201.62,201.57,201.62,197.48Z"/><path class="cls-11" d="M201.62,197.48v.88c0,4.09-5.2,7.41-11.61,7.41v-.88C196.42,204.89,201.62,201.57,201.62,197.48Z"/><polygon class="cls-3" points="190.01 204.89 190.01 213.66 188.21 212.51 188.21 203.74 190.01 204.89"/><path class="cls-5" d="M190,204.49c6.35,0,11.6-3.23,12-7.36V197c0-.11,0-.22,0-.33v-.23l-2.52-1.61v.69c0,3.87-5.05,7-11.25,7h-1.35l3,2Z"/><polygon class="cls-3" points="189.91 204.49 189.91 205.29 186.86 203.34 186.86 202.54 189.91 204.49"/><path class="cls-5" d="M190,204.49c6.35,0,11.6-3.23,12-7.36V197c0-.11,0-.22,0-.33v.8c0,.11,0,.22,0,.32v.13c-.35,4.13-5.6,7.36-12,7.36h-.1v-.8Z"/><polygon class="cls-11" points="166.9 208.24 171.78 205.12 176.66 208.24 175.53 208.96 175.97 209.86 174.11 209.86 173.41 210.31 173.64 211.32 171.82 211.32 171.78 211.35 166.9 208.24"/><polygon class="cls-5" points="170.76 205.59 172.25 206.54 173.74 205.59 172.25 204.64 170.76 205.59"/><polygon class="cls-3" points="172.25 206.54 172.25 207.49 170.76 206.54 170.76 205.59 172.25 206.54"/><polygon class="cls-4" points="173.74 205.59 173.74 206.54 172.25 207.49 172.25 206.54 173.74 205.59"/><path class="cls-12" d="M171.71,205.28a1.09,1.09,0,0,1,1.08,0,.47.47,0,0,1,.22.3.45.45,0,0,1-.22.3,1.09,1.09,0,0,1-1.08,0,.41.41,0,0,1-.21-.3A.42.42,0,0,1,171.71,205.28Z"/><path class="cls-3" d="M172.79,205.28a1.09,1.09,0,0,0-1.08,0,.42.42,0,0,0-.21.3.39.39,0,0,1,.21-.38,1.09,1.09,0,0,1,1.08,0,.39.39,0,0,1,.22.38A.47.47,0,0,0,172.79,205.28Z"/><polygon class="cls-5" points="172.62 206.77 174.11 207.72 175.6 206.77 174.11 205.82 172.62 206.77"/><polygon class="cls-3" points="174.11 207.72 174.11 208.68 172.62 207.72 172.62 206.77 174.11 207.72"/><polygon class="cls-4" points="175.6 206.77 175.6 207.72 174.11 208.68 174.11 207.72 175.6 206.77"/><path class="cls-12" d="M173.57,206.47a1.09,1.09,0,0,1,1.08,0,.31.31,0,0,1,0,.6,1.09,1.09,0,0,1-1.08,0,.31.31,0,0,1,0-.6Z"/><path class="cls-3" d="M174.65,206.47a1.09,1.09,0,0,0-1.08,0,.45.45,0,0,0-.22.3.42.42,0,0,1,.22-.39,1.09,1.09,0,0,1,1.08,0,.42.42,0,0,1,.22.39A.45.45,0,0,0,174.65,206.47Z"/><polygon class="cls-5" points="174.48 207.96 175.97 208.91 177.46 207.96 175.97 207.01 174.48 207.96"/><polygon class="cls-3" points="175.97 208.91 175.97 209.86 174.48 208.91 174.48 207.96 175.97 208.91"/><polygon class="cls-4" points="177.46 207.96 177.46 208.91 175.97 209.86 175.97 208.91 177.46 207.96"/><path class="cls-12" d="M175.43,207.66a1.09,1.09,0,0,1,1.08,0,.45.45,0,0,1,.22.3.47.47,0,0,1-.22.3,1.09,1.09,0,0,1-1.08,0,.47.47,0,0,1-.22-.3A.45.45,0,0,1,175.43,207.66Z"/><path class="cls-3" d="M176.51,207.66a1.09,1.09,0,0,0-1.08,0,.45.45,0,0,0-.22.3.4.4,0,0,1,.22-.39,1.09,1.09,0,0,1,1.08,0,.44.44,0,0,1,.22.39A.45.45,0,0,0,176.51,207.66Z"/><polygon class="cls-5" points="168.43 207.05 169.92 208 171.41 207.05 169.92 206.1 168.43 207.05"/><polygon class="cls-3" points="169.92 208 169.92 208.95 168.43 208 168.43 207.05 169.92 208"/><polygon class="cls-4" points="171.41 207.05 171.41 208 169.92 208.95 169.92 208 171.41 207.05"/><path class="cls-12" d="M169.38,206.75a1.09,1.09,0,0,1,1.08,0,.45.45,0,0,1,.22.3.47.47,0,0,1-.22.3,1.09,1.09,0,0,1-1.08,0,.47.47,0,0,1-.22-.3A.45.45,0,0,1,169.38,206.75Z"/><path class="cls-3" d="M170.46,206.75a1.09,1.09,0,0,0-1.08,0,.45.45,0,0,0-.22.3.44.44,0,0,1,.22-.39,1.09,1.09,0,0,1,1.08,0,.4.4,0,0,1,.22.39A.45.45,0,0,0,170.46,206.75Z"/><polygon class="cls-5" points="170.29 208.24 171.78 209.19 173.27 208.24 171.78 207.29 170.29 208.24"/><polygon class="cls-3" points="171.78 209.19 171.78 210.14 170.29 209.19 170.29 208.24 171.78 209.19"/><polygon class="cls-4" points="173.27 208.24 173.27 209.19 171.78 210.14 171.78 209.19 173.27 208.24"/><path class="cls-12" d="M171.24,207.93a1.09,1.09,0,0,1,1.08,0,.47.47,0,0,1,.22.3.45.45,0,0,1-.22.3,1.09,1.09,0,0,1-1.08,0,.45.45,0,0,1-.22-.3A.47.47,0,0,1,171.24,207.93Z"/><path class="cls-3" d="M172.32,207.93a1.09,1.09,0,0,0-1.08,0,.47.47,0,0,0-.22.3.4.4,0,0,1,.22-.38,1.09,1.09,0,0,1,1.08,0,.4.4,0,0,1,.22.38A.47.47,0,0,0,172.32,207.93Z"/><polygon class="cls-5" points="172.15 209.42 173.64 210.37 175.13 209.42 173.64 208.47 172.15 209.42"/><polygon class="cls-3" points="173.64 210.37 173.64 211.32 172.15 210.37 172.15 209.42 173.64 210.37"/><polygon class="cls-4" points="175.13 209.42 175.13 210.37 173.64 211.32 173.64 210.37 175.13 209.42"/><path class="cls-12" d="M173.1,209.12a1.09,1.09,0,0,1,1.08,0,.32.32,0,0,1,0,.6,1.09,1.09,0,0,1-1.08,0,.31.31,0,0,1,0-.6Z"/><path class="cls-3" d="M174.18,209.12a1.09,1.09,0,0,0-1.08,0,.45.45,0,0,0-.22.3.4.4,0,0,1,.22-.39,1.09,1.09,0,0,1,1.08,0,.41.41,0,0,1,.21.39A.41.41,0,0,0,174.18,209.12Z"/><polygon class="cls-11" points="187.43 195.33 192.31 192.22 197.19 195.33 196.06 196.05 196.5 196.95 194.64 196.95 193.94 197.41 194.17 198.42 192.35 198.42 192.31 198.44 187.43 195.33"/><polygon class="cls-5" points="191.29 192.68 192.78 193.63 194.27 192.68 192.78 191.73 191.29 192.68"/><polygon class="cls-3" points="192.78 193.63 192.78 194.58 191.29 193.63 191.29 192.68 192.78 193.63"/><polygon class="cls-4" points="194.27 192.68 194.27 193.63 192.78 194.58 192.78 193.63 194.27 192.68"/><path class="cls-12" d="M192.24,192.38a1.09,1.09,0,0,1,1.08,0,.45.45,0,0,1,.22.3.47.47,0,0,1-.22.3,1.09,1.09,0,0,1-1.08,0,.47.47,0,0,1-.22-.3A.45.45,0,0,1,192.24,192.38Z"/><path class="cls-3" d="M193.32,192.38a1.09,1.09,0,0,0-1.08,0,.45.45,0,0,0-.22.3.42.42,0,0,1,.22-.39,1.09,1.09,0,0,1,1.08,0,.42.42,0,0,1,.22.39A.45.45,0,0,0,193.32,192.38Z"/><polygon class="cls-5" points="193.15 193.87 194.64 194.82 196.13 193.87 194.64 192.92 193.15 193.87"/><polygon class="cls-3" points="194.64 194.82 194.64 195.77 193.15 194.82 193.15 193.87 194.64 194.82"/><polygon class="cls-4" points="196.13 193.87 196.13 194.82 194.64 195.77 194.64 194.82 196.13 193.87"/><path class="cls-12" d="M194.1,193.56a1.09,1.09,0,0,1,1.08,0,.47.47,0,0,1,.22.3.45.45,0,0,1-.22.3,1.09,1.09,0,0,1-1.08,0,.45.45,0,0,1-.22-.3A.47.47,0,0,1,194.1,193.56Z"/><path class="cls-3" d="M195.18,193.56a1.09,1.09,0,0,0-1.08,0,.47.47,0,0,0-.22.3.4.4,0,0,1,.22-.38,1.09,1.09,0,0,1,1.08,0,.4.4,0,0,1,.22.38A.47.47,0,0,0,195.18,193.56Z"/><polygon class="cls-5" points="195.01 195.05 196.5 196 197.99 195.05 196.5 194.1 195.01 195.05"/><polygon class="cls-3" points="196.5 196 196.5 196.95 195.01 196 195.01 195.05 196.5 196"/><polygon class="cls-4" points="197.99 195.05 197.99 196 196.5 196.95 196.5 196 197.99 195.05"/><path class="cls-12" d="M196,194.75a1.08,1.08,0,0,1,1.07,0,.31.31,0,0,1,0,.6,1.08,1.08,0,0,1-1.07,0,.31.31,0,0,1,0-.6Z"/><path class="cls-3" d="M197,194.75a1.08,1.08,0,0,0-1.07,0,.45.45,0,0,0-.22.3.4.4,0,0,1,.22-.39,1.08,1.08,0,0,1,1.07,0,.4.4,0,0,1,.22.39A.4.4,0,0,0,197,194.75Z"/><polygon class="cls-5" points="188.96 194.14 190.45 195.09 191.94 194.14 190.45 193.19 188.96 194.14"/><polygon class="cls-3" points="190.45 195.09 190.45 196.04 188.96 195.09 188.96 194.14 190.45 195.09"/><polygon class="cls-4" points="191.94 194.14 191.94 195.09 190.45 196.04 190.45 195.09 191.94 194.14"/><path class="cls-12" d="M189.91,193.84a1.09,1.09,0,0,1,1.08,0,.31.31,0,0,1,0,.6,1.09,1.09,0,0,1-1.08,0,.31.31,0,0,1,0-.6Z"/><path class="cls-3" d="M191,193.84a1.09,1.09,0,0,0-1.08,0,.45.45,0,0,0-.22.3.42.42,0,0,1,.22-.39,1.09,1.09,0,0,1,1.08,0,.42.42,0,0,1,.22.39A.45.45,0,0,0,191,193.84Z"/><polygon class="cls-5" points="190.82 195.33 192.31 196.28 193.8 195.33 192.31 194.38 190.82 195.33"/><polygon class="cls-3" points="192.31 196.28 192.31 197.23 190.82 196.28 190.82 195.33 192.31 196.28"/><polygon class="cls-4" points="193.8 195.33 193.8 196.28 192.31 197.23 192.31 196.28 193.8 195.33"/><path class="cls-12" d="M191.77,195a1.09,1.09,0,0,1,1.08,0,.45.45,0,0,1,.22.3.47.47,0,0,1-.22.3,1.09,1.09,0,0,1-1.08,0,.47.47,0,0,1-.22-.3A.45.45,0,0,1,191.77,195Z"/><path class="cls-3" d="M192.85,195a1.09,1.09,0,0,0-1.08,0,.45.45,0,0,0-.22.3.41.41,0,0,1,.22-.39,1.09,1.09,0,0,1,1.08,0,.43.43,0,0,1,.22.39A.45.45,0,0,0,192.85,195Z"/><polygon class="cls-5" points="192.68 196.52 194.17 197.47 195.66 196.52 194.17 195.57 192.68 196.52"/><polygon class="cls-3" points="194.17 197.47 194.17 198.42 192.68 197.47 192.68 196.52 194.17 197.47"/><polygon class="cls-4" points="195.66 196.52 195.66 197.47 194.17 198.42 194.17 197.47 195.66 196.52"/><path class="cls-12" d="M193.63,196.21a1.08,1.08,0,0,1,1.07,0,.41.41,0,0,1,.22.3.4.4,0,0,1-.22.3,1.08,1.08,0,0,1-1.07,0,.42.42,0,0,1-.22-.3A.44.44,0,0,1,193.63,196.21Z"/><path class="cls-3" d="M194.7,196.21a1.08,1.08,0,0,0-1.07,0,.44.44,0,0,0-.22.3.38.38,0,0,1,.22-.38,1.08,1.08,0,0,1,1.07,0,.38.38,0,0,1,.22.38A.41.41,0,0,0,194.7,196.21Z"/><path class="cls-13" d="M183.78,295.93l-13.7,7.91V323a4.68,4.68,0,0,0,2.33,4l16.52,9.53v-4l13.59-7.92V306.88Z"/><path class="cls-13" d="M183.78,295.93l-13.7,7.91V323a4.68,4.68,0,0,0,2.33,4l16.52,9.53v-4l13.59-7.92V306.88Z"/><path class="cls-14" d="M188.93,314.73l13.59-7.85v17.76l-13.59,7.92Z"/><path class="cls-15" d="M215.59,321.11a7.07,7.07,0,0,0-3.5-5l-9.17-5.24a1.19,1.19,0,0,0-1.25,0l-12.07,6.83a1.18,1.18,0,0,0-.67,1.06v17.78l14,8a1.09,1.09,0,0,0,1.09,0l12.19-6.9,0,0h0a1,1,0,0,0,.53-.91v-.5A95.59,95.59,0,0,0,215.59,321.11Z"/><path class="cls-16" d="M184.83,331.34l-4.29-3a7.48,7.48,0,0,0-2.87-3.67c-1.93-1.11-3.5.07-3.5,2.65a8.39,8.39,0,0,0,3.5,6.68,2.21,2.21,0,0,0,2.37.13Z"/><path class="cls-17" d="M218.4,336a1.14,1.14,0,0,0-.54-1l-2.08-1.28v2.17l-10.52,6.15a1.61,1.61,0,0,1-1.75-.08l-.88.51v2l.89.51a1.61,1.61,0,0,0,1.63,0l12.09-7A2.33,2.33,0,0,0,218.4,336Z"/><path class="cls-16" d="M199.79,340l-4.29-3a7.44,7.44,0,0,0-2.88-3.67c-1.93-1.12-3.49.07-3.49,2.64s1.56,5.57,3.49,6.68a2.21,2.21,0,0,0,2.38.13Z"/><path class="cls-18" d="M202.64,344.48v-2l.88-.51a1.55,1.55,0,0,0,.82.3A95.91,95.91,0,0,0,203.16,328a7.08,7.08,0,0,0-3.45-5l-9-5.23a1.17,1.17,0,0,0-1.75,1v13.78a10.68,10.68,0,0,1,4.69,5.68l0,.1a3.43,3.43,0,0,0,1.53,1.84Z"/><path class="cls-19" d="M216.22,330.7l-1,1.91a3.88,3.88,0,0,1-1.51,1.55l-4.8,2.75a4.59,4.59,0,0,1-2.38.61l-2.34-.06h0l-.39-.23a.5.5,0,0,0-.75.43v2.59a2.75,2.75,0,0,0,.75,1.9,1.57,1.57,0,0,0,.47.13h0a1.56,1.56,0,0,0,.85-.13l11.26-6.57C216.36,334,216.31,332.33,216.22,330.7Z"/><path class="cls-17" d="M203.61,327l.85,6.51a1.22,1.22,0,0,0,1.82.9l8.17-4.7a1.77,1.77,0,0,0,.88-1.78l-1-7.33a.47.47,0,0,0-.7-.34l-9.41,5.47A1.28,1.28,0,0,0,203.61,327Z"/><path class="cls-20" d="M206.07,332.74l8.17-4.71a1.78,1.78,0,0,0,.89-1.58l-.79-5.83a.47.47,0,0,0-.7-.34l-9.41,5.47a1.29,1.29,0,0,0-.63,1.17l.64,4.91A1.23,1.23,0,0,0,206.07,332.74Z"/><path class="cls-21" d="M202.52,333.09l-.4-4.27a5.07,5.07,0,0,0-2.51-3.9l-8.09-4.64a.62.62,0,0,0-.92.53v3.36a3.06,3.06,0,0,0,1.24,2.45l9.6,7.08A.68.68,0,0,0,202.52,333.09Z"/><path class="cls-22" d="M213.57,320.32l-5.09,3,4.88,3.6a.68.68,0,0,0,1.08-.61L214,322A5.06,5.06,0,0,0,213.57,320.32Z"/><path class="cls-23" d="M216.37,335.58c0-1.63-.06-3.25-.15-4.88l-1,1.91h0a5.46,5.46,0,0,0-.64,1.91l-.28,2.27Z"/><path class="cls-17" d="M208,337.78l6.27-3.6-.25,1.91a1.25,1.25,0,0,1-.63.94l-3.78,2.16a.78.78,0,0,1-1.08-.33Z"/><path class="cls-16" d="M217.86,335l-1.51-.93c0,.49,0,1,0,1.48l-11.1,6.49a1.61,1.61,0,0,1-1.75-.08l-.88.51.89.52a1.62,1.62,0,0,0,1.62,0l12.1-7S218.27,335.55,217.86,335Z"/><path class="cls-16" d="M189.13,336a3.36,3.36,0,0,1,.94-2.63,9.9,9.9,0,0,0-1.14-.77v-1.89l-18.85-10.83V323a4.68,4.68,0,0,0,2.33,4l16.75,9.66h0A5.79,5.79,0,0,1,189.13,336Z"/><path class="cls-24" d="M188.93,330.67V314.73l-18.85-10.89v16Z"/><path class="cls-17" d="M196.12,340c0,2.57-1.56,3.76-3.5,2.64s-3.49-4.1-3.49-6.68,1.56-3.76,3.49-2.64S196.12,337.42,196.12,340Z"/><path class="cls-19" d="M194.34,339c0,1.27-.77,1.85-1.72,1.3a4.14,4.14,0,0,1-1.71-3.28c0-1.27.77-1.85,1.71-1.3A4.12,4.12,0,0,1,194.34,339Z"/><path class="cls-25" d="M193.56,338.52c0,.68-.42,1-.94.7a2.23,2.23,0,0,1-.93-1.78c0-.68.42-1,.93-.7A2.21,2.21,0,0,1,193.56,338.52Z"/><path class="cls-17" d="M181.17,331.33c0,2.58-1.57,3.76-3.5,2.65a8.39,8.39,0,0,1-3.5-6.68c0-2.58,1.57-3.76,3.5-2.65A8.39,8.39,0,0,1,181.17,331.33Z"/><path class="cls-19" d="M179.39,330.31c0,1.26-.77,1.85-1.72,1.3a4.12,4.12,0,0,1-1.72-3.29c0-1.26.77-1.84,1.72-1.3A4.12,4.12,0,0,1,179.39,330.31Z"/><path class="cls-25" d="M178.6,329.85c0,.69-.42,1-.93.71a2.23,2.23,0,0,1-.93-1.78c0-.69.41-1,.93-.71A2.26,2.26,0,0,1,178.6,329.85Z"/><path class="cls-23" d="M208,338.44a1.58,1.58,0,0,0-1.45-.92h0l-2.34-.06h0c.09,1.61.14,3.22.16,4.83h-.08a1.56,1.56,0,0,0,.85-.13l3.58-2.09Z"/><polygon class="cls-18" points="187.64 329.86 171.19 320.36 171.19 306.96 187.64 316.46 187.64 329.86"/><polygon class="cls-26" points="175.24 314.88 172.15 313.1 172.15 309.92 175.24 311.7 175.24 314.88"/><polygon class="cls-27" points="174.4 311.9 172.99 311.08 172.99 310.88 174.4 311.7 174.4 311.9"/><polygon class="cls-26" points="175.24 315.46 172.15 313.68 172.15 313.1 175.24 314.88 175.24 315.46"/><polygon class="cls-26" points="175.24 318.63 172.15 316.85 172.15 313.68 175.24 315.46 175.24 318.63"/><polygon class="cls-27" points="174.4 315.65 172.99 314.83 172.99 314.64 174.4 315.46 174.4 315.65"/><polygon class="cls-26" points="175.24 319.21 172.15 317.43 172.15 316.85 175.24 318.63 175.24 319.21"/><polygon class="cls-26" points="178.29 316.64 175.2 314.86 175.2 311.68 178.29 313.46 178.29 316.64"/><polygon class="cls-27" points="177.45 313.66 176.03 312.84 176.03 312.65 177.45 313.46 177.45 313.66"/><polygon class="cls-26" points="178.29 317.22 175.2 315.44 175.2 314.86 178.29 316.64 178.29 317.22"/><polygon class="cls-26" points="178.29 320.4 175.2 318.62 175.2 315.44 178.29 317.22 178.29 320.4"/><polygon class="cls-27" points="177.45 317.41 176.03 316.59 176.03 316.4 177.45 317.22 177.45 317.41"/><polygon class="cls-26" points="178.29 320.97 175.2 319.19 175.2 318.62 178.29 320.4 178.29 320.97"/><polygon class="cls-26" points="181.37 318.42 178.29 316.64 178.29 313.46 181.37 315.25 181.37 318.42"/><polygon class="cls-27" points="180.54 315.44 179.12 314.62 179.12 314.43 180.54 315.25 180.54 315.44"/><polygon class="cls-26" points="181.37 319 178.29 317.22 178.29 316.64 181.37 318.42 181.37 319"/><polygon class="cls-26" points="181.37 322.18 178.29 320.4 178.29 317.22 181.37 319 181.37 322.18"/><polygon class="cls-27" points="180.54 319.19 179.12 318.37 179.12 318.18 180.54 319 180.54 319.19"/><polygon class="cls-26" points="181.37 322.75 178.29 320.97 178.29 320.4 181.37 322.18 181.37 322.75"/><polygon class="cls-26" points="184.46 320.2 181.37 318.42 181.37 315.25 184.46 317.03 184.46 320.2"/><polygon class="cls-27" points="183.62 317.22 182.2 316.4 182.2 316.21 183.62 317.03 183.62 317.22"/><polygon class="cls-26" points="184.46 320.78 181.37 319 181.37 318.42 184.46 320.2 184.46 320.78"/><polygon class="cls-26" points="184.46 323.96 181.37 322.18 181.37 319 184.46 320.78 184.46 323.96"/><polygon class="cls-27" points="183.62 320.97 182.2 320.15 182.2 319.96 183.62 320.78 183.62 320.97"/><polygon class="cls-26" points="184.46 324.54 181.37 322.75 181.37 322.18 184.46 323.96 184.46 324.54"/><polygon class="cls-26" points="175.22 322.38 172.13 320.6 172.13 317.42 175.22 319.2 175.22 322.38"/><polygon class="cls-27" points="174.38 319.39 172.96 318.57 172.96 318.38 174.38 319.2 174.38 319.39"/><polygon class="cls-26" points="178.26 324.14 175.18 322.36 175.18 319.18 178.26 320.96 178.26 324.14"/><polygon class="cls-27" points="177.43 321.15 176.01 320.33 176.01 320.14 177.43 320.96 177.43 321.15"/><polygon class="cls-26" points="181.35 325.92 178.26 324.14 178.26 320.96 181.35 322.74 181.35 325.92"/><polygon class="cls-27" points="180.52 322.93 179.1 322.12 179.1 321.92 180.52 322.74 180.52 322.93"/><polygon class="cls-26" points="184.44 327.7 181.35 325.92 181.35 322.74 184.44 324.52 184.44 327.7"/><polygon class="cls-27" points="183.6 324.71 182.18 323.9 182.18 323.7 183.6 324.52 183.6 324.71"/><polygon class="cls-28" points="186.94 325.4 185.03 324.3 185.03 321.13 186.94 322.23 186.94 325.4"/><polyline class="cls-29" points="185.27 321.43 185.27 322.4 186.02 321.87"/><path class="cls-30" d="M142.48,320.05a16.76,16.76,0,0,1-15.17,0c-4.2-2.42-4.22-6.35,0-8.76a16.79,16.79,0,0,1,15.17,0C146.63,313.72,146.65,317.64,142.48,320.05Z"/><line class="cls-3" x1="135.61" y1="301.75" x2="135.61" y2="315.37"/><path class="cls-3" d="M142.32,301.13a7.11,7.11,0,1,1-14.22,0c0-4,3.19-16.36,7.11-16.36S142.32,297.11,142.32,301.13Z"/><polygon class="cls-23" points="188.6 295.67 188.59 298.15 188.59 298.14 188.6 295.66 188.6 295.67"/><polygon class="cls-23" points="188.6 295.66 188.59 298.14 184.31 298.14 184.32 295.66 188.6 295.66"/><polygon class="cls-23" points="184.32 295.66 184.31 298.14 184.3 298.14 184.3 295.66 184.32 295.66"/><polygon points="188.57 295.67 188.56 298.15 184.33 298.15 184.33 295.67 188.57 295.67"/><polygon points="188.57 296.71 188.57 299.19 188.56 298.15 188.57 295.67 188.57 296.71"/><polygon class="cls-31" points="188.57 296.71 188.57 299.19 184.33 299.19 184.34 296.71 188.57 296.71"/><polygon class="cls-31" points="184.34 296.71 184.33 299.19 184.33 298.15 184.33 295.67 184.34 296.71"/><polygon class="cls-31" points="188.57 295.67 188.57 296.71 184.34 296.71 184.33 295.67 188.57 295.67"/><polygon class="cls-23" points="188.6 296.73 188.6 299.21 188.59 298.15 188.6 295.67 188.6 296.73"/><polygon points="188.6 296.73 188.6 299.21 188.58 299.21 188.59 296.73 188.6 296.73"/><polygon points="184.31 296.72 184.3 299.2 184.3 298.14 184.3 295.66 184.31 296.72"/><polygon points="184.31 296.73 184.3 299.21 184.3 299.2 184.31 296.72 184.31 296.73"/><polygon points="188.59 296.73 188.58 299.21 184.3 299.21 184.31 296.73 188.59 296.73"/><path d="M188.6,295.66v1.07h-4.29v-1.06h4.3Zm-4.26,1h4.23v-1h-4.24v1"/><polygon class="cls-23" points="202.51 303.69 202.5 306.17 200.67 306.17 200.68 303.69 202.51 303.69"/><rect class="cls-23" x="199.42" y="304.92" width="2.48" height="0.02" transform="translate(-104.83 504.73) rotate(-89.84)"/><polygon class="cls-23" points="202.51 303.7 202.5 306.18 202.5 306.17 202.51 303.69 202.51 303.7"/><polygon points="202.48 303.7 202.47 306.19 200.68 306.19 200.69 303.7 202.48 303.7"/><polygon class="cls-23" points="172.28 303.72 172.28 306.2 170.44 306.2 170.45 303.72 172.28 303.72"/><polygon class="cls-23" points="170.45 303.72 170.44 306.2 170.42 306.2 170.43 303.72 170.45 303.72"/><polygon points="172.25 303.74 172.24 306.22 170.45 306.22 170.46 303.74 172.25 303.74"/><polygon points="202.49 306.16 202.49 308.64 202.47 306.19 202.48 303.7 202.49 306.16"/><polygon class="cls-31" points="200.7 306.16 200.7 308.64 200.68 306.19 200.69 303.7 200.7 306.16"/><polygon class="cls-23" points="202.52 306.18 202.52 308.66 202.5 306.18 202.51 303.7 202.52 306.18"/><path d="M202.51,303.7v2.48h-1.85v-2.48h1.85Zm-1.81,2.46h1.79v-2.45h-1.79v2.45"/><polygon class="cls-31" points="202.48 303.7 202.49 306.16 200.7 306.16 200.69 303.7 202.48 303.7"/><polygon class="cls-31" points="202.49 306.16 202.49 308.64 200.7 308.64 200.7 306.16 202.49 306.16"/><polygon points="200.67 306.17 200.67 308.65 200.65 306.17 200.66 303.69 200.67 306.17"/><polygon points="202.52 306.18 202.52 308.66 202.5 308.66 202.51 306.18 202.52 306.18"/><polygon points="202.51 306.18 202.5 308.66 200.67 308.65 200.67 306.17 202.51 306.18"/><polygon points="200.67 306.17 200.67 308.65 200.67 308.65 200.67 306.17 200.67 306.17"/><polygon points="172.26 306.19 172.26 308.67 172.24 306.22 172.25 303.74 172.26 306.19"/><polygon class="cls-31" points="170.47 306.19 170.47 308.67 170.45 306.22 170.46 303.74 170.47 306.19"/><polygon class="cls-31" points="172.26 306.19 172.26 308.67 170.47 308.67 170.47 306.19 172.26 306.19"/><polygon class="cls-23" points="172.29 306.2 172.29 308.69 172.28 306.2 172.28 303.72 172.29 306.2"/><path d="M172.28,303.72v2.48h-1.84l0-2.48h1.85Zm-1.8,2.47h1.78v-2.45h-1.79l0,2.45"/><polygon class="cls-31" points="172.25 303.74 172.26 306.19 170.47 306.19 170.46 303.74 172.25 303.74"/><polygon points="172.29 306.2 172.29 308.69 172.27 308.69 172.28 306.2 172.29 306.2"/><polygon points="172.28 306.2 172.27 308.69 170.44 308.69 170.45 306.2 172.28 306.2"/><polygon points="170.45 306.2 170.44 308.69 170.42 306.2 170.43 303.72 170.45 306.2"/><polygon class="cls-23" points="188.65 313.17 188.64 315.65 184.36 315.65 184.37 313.17 188.65 313.17"/><rect class="cls-23" x="183.11" y="314.4" width="2.48" height="0.02" transform="translate(-130.57 497.87) rotate(-89.84)"/><polygon points="188.61 313.18 188.61 315.66 184.37 315.66 184.38 313.18 188.61 313.18"/><polygon points="188.62 314.22 188.61 316.7 188.61 315.66 188.61 313.18 188.62 314.22"/><polygon class="cls-31" points="184.39 314.22 184.38 316.7 184.37 315.66 184.38 313.18 184.39 314.22"/><polygon class="cls-31" points="188.61 313.18 188.62 314.22 184.39 314.22 184.38 313.18 188.61 313.18"/><polygon class="cls-31" points="188.62 314.22 188.61 316.7 184.38 316.7 184.39 314.22 188.62 314.22"/><polygon class="cls-23" points="188.65 314.24 188.64 316.72 188.64 315.65 188.65 313.17 188.65 314.24"/><rect x="187.4" y="315.47" width="2.48" height="0.02" transform="translate(-127.37 503.22) rotate(-89.84)"/><path d="M188.64,313.16v1.08h-4.29v-1.07h4.29Zm-4.25,1.06h4.23v-1h-4.23v1"/><polygon points="184.36 314.24 184.35 316.72 184.34 315.65 184.35 313.17 184.36 314.24"/><polygon points="188.63 314.24 188.63 316.72 184.35 316.72 184.36 314.24 188.63 314.24"/><polygon class="cls-24" points="186.55 315.91 186.54 318.39 167.54 307.43 167.55 304.94 186.55 315.91"/><path class="cls-2" d="M186.42,294l19,11-18.87,11-19-11Zm2.22,20.26h0v-1.08h-4.29v1.07h4.28m13.87-8.06h0V303.7h-1.85v2.48h1.84m-13.92-9.45h0v-1.07h-4.3v1.06h4.28m-16.31,9.47h0v-2.48h-1.85l0,2.48h1.83"/><polygon class="cls-32" points="205.42 304.94 205.41 307.43 186.54 318.39 186.55 315.91 205.42 304.94"/><path class="cls-31" d="M192.15,301.18c3.22,1.86,3.24,4.88,0,6.74a12.84,12.84,0,0,1-11.64,0c-3.22-1.86-3.24-4.88,0-6.74A12.81,12.81,0,0,1,192.15,301.18Zm-6.51,7.66,8.07-4.69-1.83-1.07-3.11,1.81-3-1.75,3.11-1.8L187,300.28,178.94,305l1.83,1.06,3.39-2,3,1.74-3.38,2,1.84,1.06"/><polygon class="cls-23" points="193.72 304.15 185.64 308.84 183.8 307.78 187.18 305.81 184.16 304.06 180.78 306.03 178.94 304.97 187.01 300.28 188.85 301.34 185.74 303.14 188.77 304.89 191.88 303.08 193.72 304.15"/><path class="cls-33" d="M185.33,95.67c-87.09,0-160.1-15.61-179.67-36.61L164.43,305.34c0-3.23,9.38-5.85,21-5.85s21,2.62,21,5.85L365.08,59C345.63,80,272.54,95.67,185.33,95.67Z"/><ellipse class="cls-34" cx="184.83" cy="47.87" rx="184.83" ry="47.87"/><ellipse class="cls-34" cx="185.37" cy="305.34" rx="20.96" ry="5.85"/><path class="cls-35" d="M205.75,48.56a2.64,2.64,0,0,1-1.29-.38L193.63,42a4.59,4.59,0,0,1-2.24-3.58V23.72a1.67,1.67,0,0,1,1.67-1.81,2.68,2.68,0,0,1,1.3.38l10.83,6.22a4.65,4.65,0,0,1,2.24,3.59V46.75A1.68,1.68,0,0,1,205.75,48.56Zm-12.69-25.2c-.09,0-.21,0-.21.36V38.37a3.16,3.16,0,0,0,1.51,2.32l10.83,6.22a1.11,1.11,0,0,0,.56.19c.1,0,.22,0,.22-.35V32.1a3.15,3.15,0,0,0-1.51-2.32l-10.83-6.23A1.26,1.26,0,0,0,193.06,23.36Z"/><path class="cls-36" d="M195.38,54.39a2.61,2.61,0,0,1-1.29-.38l-10.84-6.22A4.65,4.65,0,0,1,181,44.2V29.55a1.68,1.68,0,0,1,1.68-1.81,2.64,2.64,0,0,1,1.29.38l10.83,6.23a4.59,4.59,0,0,1,2.24,3.58V52.58A1.66,1.66,0,0,1,195.38,54.39ZM182.69,29.2c-.09,0-.22,0-.22.35V44.2A3.18,3.18,0,0,0,184,46.52l10.83,6.23a1.19,1.19,0,0,0,.57.18c.09,0,.22,0,.22-.35V37.93a3.19,3.19,0,0,0-1.51-2.32l-10.84-6.22A1.09,1.09,0,0,0,182.69,29.2Z"/><polygon class="cls-37" points="204.63 42.42 204.61 47.19 194.25 53.21 194.26 48.44 204.63 42.42"/><polygon class="cls-38" points="194.26 48.44 194.25 53.21 183.81 47.18 183.82 42.41 194.26 48.44"/><polygon class="cls-39" points="204.63 42.42 194.26 48.44 183.82 42.41 194.19 36.39 204.63 42.42"/><polygon class="cls-36" points="195.82 47.6 195.82 52.36 197.28 51.51 197.28 46.75 195.82 47.6"/><path class="cls-36" d="M195.82,37.87V47.6l1.46-.85V38l-1.68-1A2,2,0,0,1,195.82,37.87Z"/><polyline class="cls-23" points="200.44 47.81 198.64 48.85 198.64 47.57 200.44 46.53"/><polygon class="cls-40" points="199.93 47.09 198.84 47.72 198.84 47.65 199.93 47.02 199.93 47.09"/><polygon class="cls-40" points="200.2 47.35 199.11 47.98 199.11 47.91 200.2 47.28 200.2 47.35"/><polygon class="cls-41" points="199.52 47.53 198.84 47.92 198.84 47.85 199.52 47.46 199.52 47.53"/><polygon class="cls-42" points="199.93 47.29 199.65 47.45 199.65 47.38 199.93 47.22 199.93 47.29"/><polygon class="cls-43" points="199.93 47.29 199.65 47.45 199.65 47.38 199.93 47.22 199.93 47.29"/><polygon class="cls-43" points="199.52 47.96 198.84 48.35 198.84 48.28 199.52 47.89 199.52 47.96"/><polygon class="cls-43" points="199.93 47.73 199.65 47.88 199.65 47.81 199.93 47.66 199.93 47.73"/><polygon class="cls-43" points="200.17 47.16 200.04 47.23 200.04 47.16 200.17 47.09 200.17 47.16"/><polygon class="cls-40" points="199.12 48.39 198.84 48.55 198.84 48.48 199.12 48.32 199.12 48.39"/><polygon class="cls-43" points="199.36 48.25 199.23 48.32 199.23 48.25 199.36 48.18 199.36 48.25"/><polygon class="cls-43" points="198.98 48.06 198.85 48.13 198.85 48.06 198.98 47.99 198.98 48.06"/><polygon class="cls-44" points="187.03 47.98 184.05 46.26 184.05 47.06 187.03 48.79 187.03 47.98"/><polygon class="cls-45" points="184.26 46.49 184.2 46.46 184.2 47.04 184.26 47.07 184.26 46.49"/><polygon class="cls-45" points="184.5 46.64 184.36 46.55 184.36 47.13 184.5 47.21 184.5 46.64"/><polygon class="cls-45" points="184.64 46.72 184.59 46.68 184.59 47.26 184.64 47.29 184.64 46.72"/><polygon class="cls-45" points="184.79 46.8 184.73 46.77 184.73 47.34 184.79 47.38 184.79 46.8"/><polygon class="cls-45" points="185.03 46.94 184.84 46.83 184.84 47.41 185.03 47.52 185.03 46.94"/><polygon class="cls-46" points="185.18 47.03 185.14 47 185.14 47.58 185.18 47.6 185.18 47.03"/><polygon class="cls-45" points="185.56 47.24 185.31 47.1 185.31 47.68 185.56 47.82 185.56 47.24"/><polygon class="cls-45" points="185.7 47.32 185.63 47.29 185.63 47.87 185.7 47.9 185.7 47.32"/><polygon class="cls-45" points="185.96 47.48 185.83 47.4 185.83 47.98 185.96 48.05 185.96 47.48"/><polygon class="cls-45" points="186.09 47.55 186.15 47.59 186.15 48.17 186.09 48.13 186.09 47.55"/><polygon class="cls-45" points="186.41 47.74 186.19 47.61 186.19 48.19 186.41 48.31 186.41 47.74"/><polygon class="cls-45" points="186.5 47.79 186.46 47.77 186.46 48.34 186.5 48.37 186.5 47.79"/><polygon class="cls-45" points="186.74 47.93 186.61 47.85 186.61 48.43 186.74 48.51 186.74 47.93"/><polygon class="cls-45" points="186.89 48.01 186.84 47.98 186.84 48.56 186.89 48.59 186.89 48.01"/><path class="cls-47" d="M207.85,42.11,197,39.3a9.35,9.35,0,0,0-4.81-.09l-11.57,2.93a8.21,8.21,0,0,1-6.07-.65c-1.68-1-2.41-2.61-1.12-3.58l7.3-5.45c1-.74.66-1.94-.17-2.84l-6.81-7.36c-1.09-1.17-.86-2.62.7-3.54a7.39,7.39,0,0,1,6-.42l10.79,4.05a7.07,7.07,0,0,0,4.82.09l11.6-4.26a7.51,7.51,0,0,1,6.07.65c1.68,1,2.14,2.49,1.11,3.58l-7.32,7.73a1.79,1.79,0,0,0,.17,2.84l6.87,5.16c1.4,1.06.86,2.62-.7,3.55A8.23,8.23,0,0,1,207.85,42.11Z"/><path class="cls-48" d="M207.85,41.53,197,37.36a7,7,0,0,0-4.81-.1l-11.57,4.3a7.57,7.57,0,0,1-6.07-.65c-1.68-1-2.23-2.54-1.12-3.58l7.3-6.81a1.82,1.82,0,0,0-.17-2.84l-6.81-6c-1.28-1.13-.86-2.62.7-3.55a7.61,7.61,0,0,1,6-.41l10.79,3.6a7.65,7.65,0,0,0,4.82.09l11.6-3.82a7.77,7.77,0,0,1,6.07.65c1.68,1,2.31,2.55,1.11,3.58l-7.32,6.34a1.83,1.83,0,0,0,.17,2.84l6.87,6.52c1.18,1.13.86,2.62-.7,3.55A7.41,7.41,0,0,1,207.85,41.53Z"/><path class="cls-49" d="M207.47,39.07l-12.11-6a2.85,2.85,0,0,0-2.11,0l-12.32,6a3.13,3.13,0,0,1-2.66-.28c-.74-.44-1-1.12-.49-1.57l10.17-8c.43-.34.63,0,.2-.4l-10.51-7c-.66-.45-.38-1.15.31-1.56a3.33,3.33,0,0,1,2.63-.18l12.26,6a3,3,0,0,0,2.11,0l12.6-6a3.09,3.09,0,0,1,2.66.28c.74.44,1,1.12.49,1.57L200,29c-.47.31,7.44,5.47,10.44,8.31.52.5.38,1.15-.31,1.56A3.22,3.22,0,0,1,207.47,39.07Z"/><path class="cls-50" d="M212.16,20.47c.88,0,1.59-.45,1.59-1s-.71-1-1.59-1-1.59.45-1.59,1S211.29,20.47,212.16,20.47Z"/><path class="cls-51" d="M212.16,16.67a1.39,1.39,0,0,0-1.24.57h0v2.18c0,.43.58.8,1.29.8s1.3-.36,1.3-.8V17.24h-.06A1.38,1.38,0,0,0,212.16,16.67Z"/><path class="cls-52" d="M212.16,15.94a1.7,1.7,0,0,0-1.52.7h-.06v.21a.22.22,0,0,0,0,.08c0,.54.71,1,1.59,1s1.59-.45,1.59-1v-.29h-.07A1.7,1.7,0,0,0,212.16,15.94Z"/><path class="cls-53" d="M212.16,17.55c.88,0,1.59-.44,1.59-1s-.71-1-1.59-1-1.59.44-1.59,1S211.29,17.55,212.16,17.55Z"/><path class="cls-54" d="M212.16,17.05c.57,0,1-.29,1-.64s-.47-.64-1-.64-1,.29-1,.64S211.59,17.05,212.16,17.05Z"/><path class="cls-51" d="M203.92,11.1c2.58,1.56,5.26,3.8,8.15,5.22l2,.95c5.92.74,6.86,1.91,7.23,3.82.08.39-.66.67-1,.47L209.7,15.48c-6.47-.91-6.95-2.24-6.78-3.91A.68.68,0,0,1,203.92,11.1Z"/><path class="cls-55" d="M204,10.85l8.16,5.22L214,17.13c5.92.75,7,1.81,7.32,3.72.08.39-.65.66-1,.47l-10.56-6.08c-6.46-.91-6.95-2.25-6.77-3.92A.68.68,0,0,1,204,10.85Z"/><path class="cls-52" d="M212.18,15.19c.95,0,1.71.48,1.71,1.07s-.76,1.06-1.71,1.06-1.71-.47-1.71-1.06S211.23,15.19,212.18,15.19Z"/><path class="cls-56" d="M212.18,14.19c-1,0-1.71,1.27-1.71,1.85s.76,1.07,1.71,1.07,1.71-.48,1.71-1.07S213.13,14.19,212.18,14.19Z"/><path class="cls-50" d="M176.43,20.47c.88,0,1.59-.45,1.59-1s-.71-1-1.59-1-1.59.45-1.59,1S175.56,20.47,176.43,20.47Z"/><path class="cls-51" d="M176.43,16.67a1.38,1.38,0,0,1,1.24.57h.05c0,.26,0,2.06,0,2.18,0,.43-.58.8-1.3.8s-1.29-.36-1.29-.8V17.24h.05A1.39,1.39,0,0,1,176.43,16.67Z"/><path class="cls-52" d="M176.43,15.94a1.69,1.69,0,0,1,1.52.7H178v.21a.22.22,0,0,1,0,.08c0,.54-.71,1-1.59,1s-1.59-.45-1.59-1v-.29h.07A1.7,1.7,0,0,1,176.43,15.94Z"/><path class="cls-53" d="M176.43,17.55c.88,0,1.59-.44,1.59-1s-.71-1-1.59-1-1.59.44-1.59,1S175.56,17.55,176.43,17.55Z"/><path class="cls-54" d="M176.43,17.05c.57,0,1-.29,1-.64s-.46-.64-1-.64-1,.29-1,.64S175.86,17.05,176.43,17.05Z"/><path class="cls-51" d="M184.67,11.1c-2.58,1.56-5.26,3.8-8.15,5.22l-2,.95c-5.92.74-6.86,1.91-7.23,3.82-.07.39.66.67,1,.47l10.55-6.08c6.47-.91,7-2.24,6.78-3.91A.68.68,0,0,0,184.67,11.1Z"/><path class="cls-55" d="M184.61,10.85l-8.16,5.22-1.85,1.06c-5.92.75-6.95,1.81-7.32,3.72-.08.39.65.66,1,.47l10.56-6.08c6.46-.91,6.95-2.25,6.78-3.92A.69.69,0,0,0,184.61,10.85Z"/><path class="cls-52" d="M176.41,15.19c-.94,0-1.71.48-1.71,1.07s.77,1.06,1.71,1.06,1.71-.47,1.71-1.06S177.36,15.19,176.41,15.19Z"/><path class="cls-57" d="M176.41,14.19c-.94,0-1.71,1.27-1.71,1.85s.77,1.07,1.71,1.07,1.71-.48,1.71-1.07S177.36,14.19,176.41,14.19Z"/><path class="cls-58" d="M177.57,38a.75.75,0,0,1,.21-.3L188,30.51c.46-.32.36-.86-.07-1.24l0,0,.1-.06c.46-.31.63,0,.2-.4l-10.51-7a1,1,0,0,1-.32-.36,1.41,1.41,0,0,1,.63-.69,3.33,3.33,0,0,1,2.63-.18l12.26,6.8a2.79,2.79,0,0,0,2.11,0l12.6-6.85a3,3,0,0,1,2.66.28,1.61,1.61,0,0,1,.71.77.72.72,0,0,1-.22.29L200,29c-.1.07.18.35.72.79l-.72.54c-.44.32,7.44,4.65,10.43,7.49a1,1,0,0,1,.28.41,1.3,1.3,0,0,1-.58.64,3.22,3.22,0,0,1-2.63.18l-12.11-6a2.85,2.85,0,0,0-2.11,0l-12.32,6a3.13,3.13,0,0,1-2.66-.28A1.56,1.56,0,0,1,177.57,38Z"/><path class="cls-50" d="M212,40.91c.87,0,1.59-.44,1.59-1s-.72-1-1.59-1-1.59.44-1.59,1S211.12,40.91,212,40.91Z"/><path class="cls-51" d="M212,37.12a1.39,1.39,0,0,1,1.24.57h0v2.17c0,.44-.58.8-1.29.8s-1.3-.36-1.3-.8V37.69h.06A1.38,1.38,0,0,1,212,37.12Z"/><path class="cls-52" d="M212,36.39a1.7,1.7,0,0,1,1.52.69h.06v.22s0,.05,0,.07c0,.55-.71,1-1.59,1s-1.59-.44-1.59-1v-.29h.07A1.69,1.69,0,0,1,212,36.39Z"/><path class="cls-53" d="M212,38c.87,0,1.59-.44,1.59-1s-.72-1-1.59-1-1.59.44-1.59,1S211.12,38,212,38Z"/><path class="cls-54" d="M212,37.49c.56,0,1-.28,1-.64s-.47-.64-1-.64-1,.29-1,.64S211.43,37.49,212,37.49Z"/><path class="cls-51" d="M220.24,31.54c-2.58,1.56-5.26,3.81-8.16,5.22l-1.94,1c-5.92.74-6.86,1.91-7.23,3.82-.08.4.66.67,1,.47l10.55-6.08c6.47-.91,6.95-2.24,6.78-3.91A.68.68,0,0,0,220.24,31.54Z"/><path class="cls-55" d="M220.18,31.3,212,36.52l-1.85,1.06c-5.92.74-7,1.8-7.32,3.71-.08.39.65.67,1,.47l10.55-6.08c6.47-.91,7-2.24,6.78-3.91A.67.67,0,0,0,220.18,31.3Z"/><path class="cls-52" d="M212,35.64c-.95,0-1.71.47-1.71,1.06s.76,1.07,1.71,1.07,1.71-.48,1.71-1.07S212.92,35.64,212,35.64Z"/><path class="cls-59" d="M212,34.63c-.95,0-1.71,1.27-1.71,1.86s.76,1.06,1.71,1.06,1.71-.47,1.71-1.06S212.92,34.63,212,34.63Z"/><path class="cls-50" d="M176.49,40.91c.87,0,1.58-.44,1.58-1s-.71-1-1.58-1-1.59.44-1.59,1S175.61,40.91,176.49,40.91Z"/><path class="cls-51" d="M176.49,37.12a1.36,1.36,0,0,0-1.24.57h-.05c0,.26,0,2.05,0,2.17,0,.44.58.8,1.3.8s1.29-.36,1.29-.8V37.69h-.06A1.36,1.36,0,0,0,176.49,37.12Z"/><path class="cls-52" d="M176.49,36.39a1.69,1.69,0,0,0-1.52.69h-.07v.29c0,.55.71,1,1.59,1s1.58-.44,1.58-1v-.29H178A1.68,1.68,0,0,0,176.49,36.39Z"/><path class="cls-53" d="M176.49,38c.87,0,1.58-.44,1.58-1s-.71-1-1.58-1-1.59.44-1.59,1S175.61,38,176.49,38Z"/><path class="cls-54" d="M176.49,37.49c.57,0,1-.28,1-.64s-.46-.64-1-.64-1,.29-1,.64S175.92,37.49,176.49,37.49Z"/><path class="cls-51" d="M168.24,31.54c2.59,1.56,5.27,3.81,8.16,5.22l1.94,1c5.93.74,6.87,1.91,7.24,3.82.07.4-.66.67-1,.47L174,35.92c-6.47-.91-7-2.24-6.78-3.91A.68.68,0,0,1,168.24,31.54Z"/><path class="cls-55" d="M168.31,31.3l8.15,5.22,1.85,1.06c5.93.74,7,1.8,7.33,3.71.08.39-.66.67-1,.47l-10.55-6.08c-6.47-.91-7-2.24-6.78-3.91A.68.68,0,0,1,168.31,31.3Z"/><path class="cls-52" d="M176.51,35.64c.94,0,1.71.47,1.71,1.06s-.77,1.07-1.71,1.07-1.72-.48-1.72-1.07S175.56,35.64,176.51,35.64Z"/><path class="cls-60" d="M176.51,34.63c-.95,0-1.72,1.27-1.72,1.86s.77,1.06,1.72,1.06,1.71-.47,1.71-1.06S177.45,34.63,176.51,34.63Z"/><path class="cls-51" d="M187.67,23.5a10.77,10.77,0,0,0-3.8,2.43l4.28,2.86c.43.38.56,1,.07,1.24l-4.41,2.37v1a12.58,12.58,0,0,0,3.68,2.39L193.25,33a2.85,2.85,0,0,1,2.11,0l5.45,2.72a10.47,10.47,0,0,0,3.49-2.34v-.88c-2.48-1.82-4.58-3.35-4.33-3.51l4.43-2.95a10.74,10.74,0,0,0-4-2.61L195,26.06a3,3,0,0,1-2.11,0Z"/><path class="cls-55" d="M194.07,21.45c-6.55,0-11.85,3.29-11.85,7.36s5.3,7.36,11.85,7.36,11.86-3.3,11.86-7.36S200.62,21.45,194.07,21.45Z"/><path class="cls-51" d="M194.07,22.47c-4.38,0-7.92,2.2-7.92,4.92s3.54,4.92,7.92,4.92,7.93-2.2,7.93-4.92S198.45,22.47,194.07,22.47Z"/><path class="cls-53" d="M194.07,23.11c-4.2,0-7.64,2-7.91,4.6.27,2.57,3.71,4.6,7.91,4.6s7.64-2,7.91-4.6C201.71,25.15,198.27,23.11,194.07,23.11Z"/><path class="cls-51" d="M194.07,23.39c-3.63,0-6.57,1.82-6.57,4.08s2.94,4.07,6.57,4.07,6.57-1.82,6.57-4.07S197.7,23.39,194.07,23.39Z"/><path class="cls-61" d="M194.07,22.93c-3.63,0-6.57,1.83-6.57,4.08s2.94,4.08,6.57,4.08,6.57-1.82,6.57-4.08S197.7,22.93,194.07,22.93Z"/></g></g></g></svg>