<svg xmlns="http://www.w3.org/2000/svg" xmlns:xlink="http://www.w3.org/1999/xlink" viewBox="0 0 285.77 165.53"><defs><style>.cls-1,.cls-10,.cls-11,.cls-2,.cls-8,.cls-9{fill:none;}.cls-1{clip-rule:evenodd;}.cls-2,.cls-25,.cls-26,.cls-27,.cls-28,.cls-29,.cls-30,.cls-31,.cls-32,.cls-33,.cls-34,.cls-35,.cls-36,.cls-37,.cls-38,.cls-39,.cls-7{fill-rule:evenodd;}.cls-3{fill:#376e8d;}.cls-4{fill:#5d93ab;}.cls-17,.cls-5{fill:#fff;}.cls-5{stroke:#fbb03b;stroke-miterlimit:10;stroke-width:3px;}.cls-6{clip-path:url(#clip-path);}.cls-10,.cls-11,.cls-8,.cls-9{stroke:#000;}.cls-8,.cls-9{stroke-linecap:square;stroke-miterlimit:2;}.cls-8{stroke-width:0.29px;}.cls-9{stroke-width:0.29px;}.cls-10,.cls-11{stroke-linecap:round;stroke-linejoin:round;}.cls-10{stroke-width:4.66px;}.cls-11{stroke-width:4.66px;}.cls-12,.cls-31{fill:#363634;}.cls-13,.cls-30{fill:#666;}.cls-14{fill:#deb068;}.cls-15{fill:#f1c989;}.cls-16{fill:#ebbe73;}.cls-18{fill:#998376;}.cls-19{fill:#8a766a;}.cls-20{fill:#6d5041;}.cls-21{fill:#7f6d62;}.cls-22{fill:#f7e8d5;}.cls-23{fill:#474646;}.cls-24{fill:#292623;}.cls-25{fill:#7f7f7f;}.cls-26{fill:#f1ece6;}.cls-27{fill:#bcb5ad;}.cls-28{fill:#a39a8f;}.cls-29{fill:#e39400;}.cls-32{fill:#575756;}.cls-33{fill:#fc0;}.cls-34{fill:url(#GradientFill_1);}.cls-35{fill:url(#GradientFill_1-2);}.cls-36{fill:#4c4c4c;}.cls-37{fill:url(#GradientFill_1-3);}.cls-38{fill:url(#GradientFill_1-4);}.cls-39{fill:url(#GradientFill_1-5);}</style><clipPath id="clip-path"><polygon class="cls-1" points="224.69 61.92 266.41 61.92 266.41 23.24 224.69 23.24 224.69 61.92 224.69 61.92"/></clipPath><linearGradient id="GradientFill_1" x1="1002.46" y1="-92.57" x2="1006.81" y2="-85.61" gradientTransform="translate(-826.78 102.8)" gradientUnits="userSpaceOnUse"><stop offset="0" stop-color="#fbc800"/><stop offset="1" stop-color="#fff"/></linearGradient><linearGradient id="GradientFill_1-2" x1="905.55" y1="-92.57" x2="909.9" y2="-85.61" xlink:href="#GradientFill_1"/><linearGradient id="GradientFill_1-3" x1="1001.92" y1="-37.18" x2="1006.27" y2="-30.22" xlink:href="#GradientFill_1"/><linearGradient id="GradientFill_1-4" x1="905.8" y1="-37.18" x2="910.15" y2="-30.22" xlink:href="#GradientFill_1"/><linearGradient id="GradientFill_1-5" x1="946.88" y1="-73.04" x2="964.72" y2="-44.49" xlink:href="#GradientFill_1"/></defs><g id="图层_2" data-name="图层 2"><g id="图层_1-2" data-name="图层 1"><path class="cls-3" d="M180.8,113.89v1.82c0-5.28-5.09-10.58-15.35-14.61q-2.37-.93-5.11-1.77c-18.48-5.66-45-5.65-63.37,0-13.41,4.12-20.13,10.14-20.15,16.17v-1.82c0-6,6.74-12.05,20.16-16.18,18.42-5.65,44.88-5.66,63.37,0q2.74.84,5.11,1.77C175.7,103.31,180.82,108.6,180.8,113.89Z"/><path class="cls-4" d="M203.81,113.94v1.83c0,7.52-7.29,15-21.79,20.78-29.2,11.57-76.71,11.56-106.11,0-14.78-5.81-22.17-13.45-22.13-21.08v-1.83c0,7.63,7.36,15.27,22.14,21.09,29.39,11.56,76.9,11.57,106.1,0C196.53,129,203.78,121.47,203.81,113.94Z"/><path class="cls-4" d="M181.66,92.84c29.39,11.57,29.57,30.32.36,41.88s-76.71,11.56-106.1,0-29.55-30.31-.34-41.88S152.29,81.29,181.66,92.84Zm-21,37.23c25.19-7.75,26.77-22.16,4.82-30.8q-2.37-.93-5.11-1.77c-18.49-5.66-44.95-5.65-63.37,0-25.19,7.74-26.75,22.16-4.79,30.8,1.57.62,3.27,1.21,5.08,1.77,18.51,5.65,45,5.65,63.37,0"/><path class="cls-3" d="M156.67,114.25v1c0-2.88-2.73-5.77-8.23-8-.85-.34-1.76-.66-2.74-1-9.91-3.09-24.1-3.09-34,0-7.19,2.25-10.79,5.54-10.8,8.83v-1c0-3.29,3.61-6.58,10.81-8.83,9.87-3.09,24-3.09,34,0,1,.3,1.9.63,2.74,1C153.94,108.48,156.68,111.37,156.67,114.25Z"/><path class="cls-4" d="M169,114.28v1c0,4.11-3.9,8.21-11.68,11.35-15.65,6.31-41.11,6.31-56.87,0-7.92-3.18-11.88-7.35-11.87-11.52v-1c0,4.16,3.94,8.33,11.86,11.51,15.76,6.31,41.22,6.32,56.88,0C165.1,122.5,169,118.39,169,114.28Z"/><path class="cls-4" d="M157.13,102.77c15.76,6.31,15.85,16.55.2,22.86s-41.12,6.31-56.88,0-15.83-16.55-.18-22.86S141.39,96.46,157.13,102.77Zm-11.27,20.32c13.5-4.23,14.35-12.1,2.58-16.81-.84-.34-1.76-.67-2.74-1-9.91-3.09-24.09-3.09-34,0-13.5,4.23-14.34,12.1-2.57,16.82.84.33,1.75.66,2.72,1,9.92,3.08,24.1,3.08,34,0"/><path class="cls-3" d="M143.38,114.46V115c0-1.56-1.43-3.12-4.31-4.31-.44-.18-.92-.36-1.43-.52a32.23,32.23,0,0,0-17.77,0c-3.76,1.22-5.65,3-5.65,4.77v-.54c0-1.78,1.89-3.55,5.65-4.77a32.23,32.23,0,0,1,17.77,0c.51.17,1,.34,1.43.52C142,111.34,143.39,112.9,143.38,114.46Z"/><path class="cls-4" d="M149.83,114.47V115c0,2.22-2,4.43-6.11,6.13-8.19,3.4-21.51,3.4-29.75,0-4.15-1.71-6.22-4-6.21-6.21v-.54c0,2.25,2.06,4.5,6.21,6.21,8.24,3.41,21.56,3.41,29.75,0C147.79,118.91,149.82,116.69,149.83,114.47Z"/><path class="cls-4" d="M143.62,108.26c8.24,3.41,8.29,8.93.1,12.34s-21.51,3.4-29.75,0-8.29-8.92-.1-12.33S135.38,104.86,143.62,108.26Zm-5.9,11c7.07-2.29,7.51-6.53,1.35-9.08-.44-.18-.92-.35-1.43-.52a32.23,32.23,0,0,0-17.77,0c-7.06,2.28-7.5,6.53-1.34,9.08.44.18.91.35,1.42.52a32.33,32.33,0,0,0,17.77,0"/><path class="cls-5" d="M284.27,43.27c0,15.61-17.92,28.26-40,28.26-18.92,0-34.78-9.28-38.94-21.75-.7-2.09-11.23-4-11.23-6.19,0-1.71,10.38-3.7,10.79-5.33C208.21,25,224.58,15,244.25,15,266.35,15,284.27,27.66,284.27,43.27Z"/><g class="cls-6"><path class="cls-7" d="M228,51.89h4.85a2,2,0,0,0,2-2V35.41a2,2,0,0,0-2-2H228a2,2,0,0,0-2,2V49.87a2,2,0,0,0,2,2Z"/><g class="cls-6"><path class="cls-8" d="M228,51.89h4.85a2,2,0,0,0,2-2V35.41a2,2,0,0,0-2-2H228a2,2,0,0,0-2,2V49.87a2,2,0,0,0,2,2Z"/><g class="cls-6"><polygon class="cls-7" points="248.43 60.67 248.43 24.61 236.94 32.79 236.94 52.49 248.43 60.67 248.43 60.67 248.43 60.67"/><g class="cls-6"><polygon class="cls-9" points="248.43 60.67 248.43 24.61 236.94 32.79 236.94 52.49 248.43 60.67 248.43 60.67 248.43 60.67"/><g class="cls-6"><line class="cls-10" x1="252.7" y1="42.3" x2="263.6" y2="42.3"/><g class="cls-6"><line class="cls-11" x1="252.76" y1="49.27" x2="259.48" y2="56"/><g class="cls-6"><line class="cls-11" x1="253.13" y1="35.33" x2="259.71" y2="28.76"/></g></g></g></g></g></g></g><path class="cls-4" d="M219.55,78.75c50.46,19.85,50.77,52.05.63,71.9S88.47,170.49,38,150.64s-50.73-52-.59-71.89S169.12,58.91,219.55,78.75Zm-36.1,63.91c43.25-13.31,46-38,8.28-52.88-2.72-1.06-5.64-2.08-8.78-3-31.74-9.71-77.19-9.7-108.8,0-43.24,13.3-45.93,38.05-8.22,52.89q4,1.59,8.71,3c31.78,9.7,77.19,9.7,108.81,0"/><path class="cls-12" d="M160.68,102.42a7.06,7.06,0,0,1-3.5-1L127.83,84.51c-3.41-2-6.07-6.22-6.07-9.71V35.11c0-2.89,1.86-4.91,4.54-4.91a7.08,7.08,0,0,1,3.49,1L159.15,48.1c3.4,2,6.07,6.22,6.07,9.71v39.7C165.22,100.4,163.35,102.42,160.68,102.42ZM126.3,34.15c-.25,0-.59,0-.59,1V74.8c0,2.1,1.91,5,4.09,6.29L159.15,98a3.1,3.1,0,0,0,1.53.51c.25,0,.59,0,.59-.95V57.81c0-2.1-1.91-5-4.09-6.28L127.83,34.66A3.25,3.25,0,0,0,126.3,34.15Z"/><path class="cls-13" d="M132.57,118.22a7,7,0,0,1-3.5-1L99.72,100.32c-3.41-2-6.07-6.22-6.07-9.71V50.91C93.65,48,95.51,46,98.18,46a7,7,0,0,1,3.5,1L131,63.91c3.4,2,6.07,6.22,6.07,9.71v39.69C137.11,116.2,135.24,118.22,132.57,118.22ZM98.18,50c-.24,0-.58,0-.58,1v39.7c0,2.1,1.91,5,4.08,6.28L131,113.76a3.22,3.22,0,0,0,1.53.51c.25,0,.59,0,.59-1V73.62c0-2.1-1.91-5-4.09-6.29L99.72,50.47A3.21,3.21,0,0,0,98.18,50Z"/><polygon class="cls-14" points="157.63 85.77 157.59 98.69 129.51 115.01 129.55 102.09 157.63 85.77"/><polygon class="cls-15" points="129.55 102.09 129.51 115.01 101.22 98.68 101.26 85.75 129.55 102.09"/><polygon class="cls-16" points="157.63 85.77 129.55 102.09 101.26 85.75 129.34 69.44 157.63 85.77"/><polygon class="cls-13" points="133.77 99.81 133.77 112.72 137.72 110.42 137.72 97.52 133.77 99.81"/><path class="cls-13" d="M133.77,73.44V99.82l3.95-2.3V73.75l-4.56-2.64A5.86,5.86,0,0,1,133.77,73.44Z"/><polyline class="cls-17" points="146.28 100.4 141.4 103.21 141.4 99.73 146.28 96.92"/><polygon class="cls-18" points="144.91 98.44 141.96 100.14 141.96 99.95 144.91 98.25 144.91 98.44"/><polygon class="cls-18" points="145.63 99.14 142.68 100.84 142.68 100.66 145.63 98.95 145.63 99.14"/><polygon class="cls-19" points="143.79 99.62 141.96 100.68 141.96 100.49 143.79 99.43 143.79 99.62"/><polygon class="cls-20" points="144.89 98.98 144.14 99.42 144.14 99.23 144.89 98.8 144.89 98.98"/><polygon class="cls-21" points="144.89 98.98 144.14 99.42 144.14 99.23 144.89 98.8 144.89 98.98"/><polygon class="cls-21" points="143.79 100.79 141.96 101.85 141.96 101.66 143.79 100.6 143.79 100.79"/><polygon class="cls-21" points="144.89 100.15 144.14 100.59 144.14 100.4 144.89 99.96 144.89 100.15"/><polygon class="cls-21" points="145.54 98.61 145.2 98.81 145.2 98.62 145.54 98.42 145.54 98.61"/><polygon class="cls-18" points="142.7 101.95 141.95 102.38 141.95 102.19 142.7 101.76 142.7 101.95"/><polygon class="cls-21" points="143.35 101.57 143.01 101.77 143.01 101.58 143.35 101.39 143.35 101.57"/><polygon class="cls-21" points="142.31 101.06 141.97 101.25 141.97 101.06 142.31 100.87 142.31 101.06"/><polygon class="cls-22" points="109.96 100.86 101.86 96.18 101.86 98.36 109.96 103.04 109.96 100.86"/><polygon class="cls-23" points="102.44 96.82 102.27 96.72 102.27 98.29 102.44 98.38 102.44 96.82"/><polygon class="cls-23" points="103.11 97.2 102.72 96.98 102.72 98.54 103.11 98.77 103.11 97.2"/><polygon class="cls-23" points="103.48 97.42 103.33 97.33 103.33 98.9 103.48 98.98 103.48 97.42"/><polygon class="cls-23" points="103.88 97.65 103.72 97.56 103.72 99.12 103.88 99.21 103.88 97.65"/><polygon class="cls-23" points="104.53 98.03 104.03 97.74 104.03 99.3 104.53 99.59 104.53 98.03"/><polygon class="cls-24" points="104.93 98.26 104.82 98.2 104.82 99.76 104.93 99.83 104.93 98.26"/><polygon class="cls-23" points="105.96 98.85 105.29 98.47 105.29 100.03 105.96 100.42 105.96 98.85"/><polygon class="cls-23" points="106.33 99.07 106.17 98.97 106.17 100.54 106.33 100.63 106.33 99.07"/><polygon class="cls-23" points="107.04 99.48 106.7 99.28 106.7 100.85 107.04 101.04 107.04 99.48"/><polygon class="cls-23" points="107.4 99.69 107.57 99.78 107.57 101.35 107.4 101.25 107.4 99.69"/><polygon class="cls-23" points="108.26 100.18 107.67 99.84 107.67 101.41 108.26 101.75 108.26 100.18"/><polygon class="cls-23" points="108.51 100.32 108.41 100.27 108.41 101.83 108.51 101.89 108.51 100.32"/><polygon class="cls-23" points="109.17 100.71 108.8 100.49 108.8 102.06 109.17 102.27 109.17 100.71"/><polygon class="cls-23" points="109.56 100.93 109.43 100.86 109.43 102.42 109.56 102.5 109.56 100.93"/><path class="cls-25" d="M166.36,84.93l-29.42-7.6a25.44,25.44,0,0,0-13-.26L92.55,85c-5.71,1.45-11.91.91-16.46-1.77s-6.52-7.08-3-9.7L92.84,58.79c2.68-2,1.8-5.25-.46-7.69L74,31.17c-3-3.19-2.36-7.1,1.89-9.61a20,20,0,0,1,16.28-1.13l29.24,11a19.07,19.07,0,0,0,13,.25l31.43-11.55c5.28-1.94,11.91-.91,16.46,1.77s5.81,6.76,3,9.7l-19.84,21c-2.13,2.25-2.46,5.5.45,7.69l18.61,14c3.8,2.86,2.35,7.1-1.89,9.61S172.25,86.45,166.36,84.93Z"/><path class="cls-26" d="M166.36,83.36l-29.42-11.3a19.24,19.24,0,0,0-13-.25L92.55,83.46c-5.15,1.91-11.91.91-16.46-1.77s-6-6.88-3-9.7L92.84,53.52c2.3-2.15,2.21-5.35-.46-7.69L74,29.69c-3.48-3.05-2.36-7.1,1.89-9.6s10.6-3,16.28-1.13l29.24,9.75a20.66,20.66,0,0,0,13,.26l31.43-10.35a21,21,0,0,1,16.46,1.76c4.54,2.68,6.25,6.91,3,9.7L165.47,47.25c-2.47,2.14-2,5.36.45,7.69l18.61,17.68c3.21,3.06,2.35,7.1-1.89,9.61A20,20,0,0,1,166.36,83.36Z"/><path class="cls-27" d="M165.32,76.71,132.51,60.34a7.74,7.74,0,0,0-5.72-.11L93.41,76.63c-2,1-5.21.4-7.21-.77s-2.64-3-1.32-4.25l27.56-21.69c1.17-.92,1.71-.05.54-1.08l-28.47-19c-1.81-1.21-1-3.11.83-4.21a9,9,0,0,1,7.14-.49l33.2,16.2a7.88,7.88,0,0,0,5.72.11l34.15-16.34c2.12-1,5.22-.4,7.21.77s2.74,3,1.33,4.25L145,49.47c-1.28.84,20.15,14.81,28.27,22.53,1.41,1.34,1,3.11-.83,4.21A8.75,8.75,0,0,1,165.32,76.71Z"/><path class="cls-28" d="M178,26.29c2.37,0,4.3-1.2,4.3-2.67S180.41,21,178,21s-4.3,1.2-4.3,2.67S175.67,26.29,178,26.29Z"/><path class="cls-29" d="M178,16a3.74,3.74,0,0,0-3.36,1.54h-.14c0,.71,0,5.56,0,5.89-.07,1.18,1.57,2.18,3.51,2.18s3.51-1,3.51-2.18V17.56h-.16A3.71,3.71,0,0,0,178,16Z"/><path class="cls-30" d="M178,14c-1.94,0-3.57.79-4.11,1.89h-.18v.58a1.34,1.34,0,0,0,0,.2c0,1.48,1.92,2.68,4.3,2.68s4.3-1.2,4.3-2.68v-.78h-.19C181.61,14.83,180,14,178,14Z"/><path class="cls-31" d="M178,18.39c2.37,0,4.3-1.2,4.3-2.67s-1.93-2.67-4.3-2.67-4.3,1.2-4.3,2.67S175.67,18.39,178,18.39Z"/><path class="cls-32" d="M178,17c1.55,0,2.8-.78,2.8-1.74s-1.25-1.74-2.8-1.74-2.79.78-2.79,1.74S176.5,17,178,17Z"/><path class="cls-29" d="M155.7.9c7,4.24,14.27,10.32,22.1,14.15l5.27,2.58c16.05,2,18.6,5.18,19.59,10.35.21,1.07-1.77,1.81-2.7,1.28L171.37,12.79C153.85,10.31,152.53,6.7,153,2.18A1.85,1.85,0,0,1,155.7.9Z"/><path class="cls-33" d="M155.88.25,178,14.4l5,2.87c16,2,18.85,4.88,19.85,10.06.2,1.06-1.78,1.81-2.7,1.27L171.55,12.13C154,9.66,152.71,6.05,153.18,1.53A1.84,1.84,0,0,1,155.88.25Z"/><path class="cls-30" d="M178.09,12c2.56,0,4.64,1.29,4.64,2.88s-2.08,2.89-4.64,2.89-4.64-1.3-4.64-2.89S175.53,12,178.09,12Z"/><path class="cls-34" d="M178.09,9.28c-2.56,0-4.64,3.44-4.64,5s2.08,2.89,4.64,2.89,4.64-1.3,4.64-2.89S180.65,9.28,178.09,9.28Z"/><path class="cls-28" d="M81.23,26.29c2.37,0,4.3-1.2,4.3-2.67S83.6,21,81.23,21s-4.31,1.2-4.31,2.67S78.86,26.29,81.23,26.29Z"/><path class="cls-29" d="M81.23,16a3.72,3.72,0,0,1,3.35,1.54h.14c0,.71,0,5.56,0,5.89.06,1.18-1.58,2.18-3.51,2.18s-3.51-1-3.51-2.18V17.56h.15A3.74,3.74,0,0,1,81.23,16Z"/><path class="cls-30" d="M81.23,14c1.93,0,3.57.79,4.11,1.89h.18v.58a1.34,1.34,0,0,1,0,.2c0,1.48-1.93,2.68-4.3,2.68s-4.31-1.2-4.31-2.68v-.78h.19C77.66,14.83,79.29,14,81.23,14Z"/><path class="cls-31" d="M81.23,18.39c2.37,0,4.3-1.2,4.3-2.67s-1.93-2.67-4.3-2.67-4.31,1.2-4.31,2.67S78.86,18.39,81.23,18.39Z"/><path class="cls-32" d="M81.22,17c1.54,0,2.8-.78,2.8-1.74s-1.26-1.74-2.8-1.74-2.8.78-2.8,1.74S79.68,17,81.22,17Z"/><path class="cls-29" d="M103.56.9c-7,4.24-14.27,10.32-22.1,14.15l-5.27,2.58c-16,2-18.59,5.18-19.59,10.35-.21,1.07,1.78,1.81,2.7,1.28L87.89,12.79c17.53-2.48,18.84-6.09,18.37-10.61A1.85,1.85,0,0,0,103.56.9Z"/><path class="cls-33" d="M103.39.25,81.29,14.4l-5,2.87c-16.05,2-18.86,4.88-19.85,10.06-.21,1.06,1.77,1.81,2.7,1.27L87.72,12.13c17.52-2.47,18.84-6.08,18.37-10.6A1.84,1.84,0,0,0,103.39.25Z"/><path class="cls-30" d="M81.17,12c-2.56,0-4.64,1.29-4.64,2.88s2.08,2.89,4.64,2.89,4.65-1.3,4.65-2.89S83.74,12,81.17,12Z"/><path class="cls-35" d="M81.17,9.28c-2.56,0-4.64,3.44-4.64,5s2.08,2.89,4.64,2.89,4.65-1.3,4.65-2.89S83.74,9.28,81.17,9.28Z"/><path class="cls-36" d="M84.31,73.8a2.27,2.27,0,0,1,.57-.81l27.56-19.47c1.26-.89,1-2.35-.2-3.37l-.06,0,.26-.18c1.23-.84,1.71-.05.54-1.08l-28.47-19a2.41,2.41,0,0,1-.87-.95A3.68,3.68,0,0,1,85.34,27a9,9,0,0,1,7.14-.5l33.2,18.42c1.6.89,3.88.71,5.71.11l34.16-18.56c2-1.09,5.22-.4,7.21.78a4.2,4.2,0,0,1,1.92,2.06,2.08,2.08,0,0,1-.59.8L145,49.47c-.27.18.49,1,2,2.15l-2,1.44c-1.2.89,20.15,12.6,28.27,20.32a3,3,0,0,1,.74,1.1,3.37,3.37,0,0,1-1.57,1.73,8.75,8.75,0,0,1-7.13.5L132.51,60.34a7.74,7.74,0,0,0-5.72-.11L93.41,76.63c-2,1-5.21.4-7.21-.77A4.17,4.17,0,0,1,84.31,73.8Z"/><path class="cls-28" d="M177.6,81.68c2.37,0,4.3-1.2,4.3-2.67s-1.93-2.67-4.3-2.67-4.3,1.2-4.3,2.67S175.23,81.68,177.6,81.68Z"/><path class="cls-29" d="M177.6,71.42A3.71,3.71,0,0,1,181,73h.15c0,.71,0,5.57,0,5.89C181.17,80,179.54,81,177.6,81s-3.51-1-3.51-2.18V73h.16A3.71,3.71,0,0,1,177.6,71.42Z"/><path class="cls-30" d="M177.6,69.43c1.93,0,3.57.8,4.11,1.89h.18v.58a1.48,1.48,0,0,1,0,.21c0,1.47-1.92,2.67-4.3,2.67s-4.3-1.2-4.3-2.67v-.79h.19C174,70.23,175.66,69.43,177.6,69.43Z"/><path class="cls-31" d="M177.6,73.79c2.37,0,4.3-1.21,4.3-2.68s-1.93-2.67-4.3-2.67-4.3,1.2-4.3,2.67S175.23,73.79,177.6,73.79Z"/><path class="cls-32" d="M177.59,72.43c1.54,0,2.8-.78,2.8-1.74S179.13,69,177.59,69s-2.8.78-2.8,1.73S176.05,72.43,177.59,72.43Z"/><path class="cls-29" d="M199.93,56.3c-7,4.23-14.26,10.31-22.1,14.14L172.56,73C156.51,75,154,78.2,153,83.37c-.2,1.07,1.78,1.81,2.7,1.28l28.6-16.47c17.52-2.48,18.84-6.08,18.37-10.61A1.85,1.85,0,0,0,199.93,56.3Z"/><path class="cls-33" d="M199.76,55.64l-22.1,14.15-5,2.87c-16.05,2-18.86,4.89-19.85,10.06-.21,1.07,1.77,1.81,2.7,1.27l28.59-16.46c17.52-2.48,18.84-6.09,18.37-10.61A1.84,1.84,0,0,0,199.76,55.64Z"/><path class="cls-30" d="M177.55,67.4c-2.57,0-4.64,1.3-4.64,2.89s2.07,2.88,4.64,2.88,4.64-1.29,4.64-2.88S180.11,67.4,177.55,67.4Z"/><path class="cls-37" d="M177.55,64.67c-2.57,0-4.64,3.45-4.64,5s2.07,2.88,4.64,2.88,4.64-1.29,4.64-2.88S180.11,64.67,177.55,64.67Z"/><path class="cls-28" d="M81.38,81.68c2.37,0,4.3-1.2,4.3-2.67s-1.93-2.67-4.3-2.67-4.31,1.2-4.31,2.67S79,81.68,81.38,81.68Z"/><path class="cls-29" d="M81.38,71.42A3.74,3.74,0,0,0,78,73h-.14c0,.71,0,5.57,0,5.89C77.8,80,79.44,81,81.38,81s3.5-1,3.5-2.18V73h-.15A3.72,3.72,0,0,0,81.38,71.42Z"/><path class="cls-30" d="M81.38,69.43c-1.94,0-3.57.8-4.12,1.89h-.17v.58a1.49,1.49,0,0,0,0,.21c0,1.47,1.93,2.67,4.31,2.67s4.3-1.2,4.3-2.67v-.79h-.19C85,70.23,83.31,69.43,81.38,69.43Z"/><path class="cls-31" d="M81.38,73.79c2.37,0,4.3-1.21,4.3-2.68s-1.93-2.67-4.3-2.67-4.31,1.2-4.31,2.67S79,73.79,81.38,73.79Z"/><path class="cls-32" d="M81.38,72.43c1.55,0,2.8-.78,2.8-1.74S82.93,69,81.38,69s-2.8.78-2.8,1.73S79.84,72.43,81.38,72.43Z"/><path class="cls-29" d="M59,56.3c7,4.23,14.27,10.31,22.1,14.14L86.41,73c16,2,18.6,5.18,19.59,10.35.21,1.07-1.77,1.81-2.7,1.28L74.71,68.18C57.19,65.7,55.87,62.1,56.34,57.57A1.85,1.85,0,0,1,59,56.3Z"/><path class="cls-33" d="M59.22,55.64l22.1,14.15,5,2.87c16,2,18.85,4.89,19.85,10.06.2,1.07-1.78,1.81-2.7,1.27L74.88,67.53c-17.52-2.48-18.83-6.09-18.36-10.61A1.84,1.84,0,0,1,59.22,55.64Z"/><path class="cls-30" d="M81.43,67.4c2.56,0,4.64,1.3,4.64,2.89S84,73.17,81.43,73.17s-4.64-1.29-4.64-2.88S78.87,67.4,81.43,67.4Z"/><path class="cls-38" d="M81.43,64.67c-2.56,0-4.64,3.45-4.64,5s2.08,2.88,4.64,2.88,4.64-1.29,4.64-2.88S84,64.67,81.43,64.67Z"/><path class="cls-29" d="M111.67,34.5a29.06,29.06,0,0,0-10.27,6.61L113,48.84c1.17,1,1.51,2.67.2,3.37l-12,6.43v2.77a33.46,33.46,0,0,0,10,6.48l15.58-7.66a7.74,7.74,0,0,1,5.72.11l14.76,7.36a28.3,28.3,0,0,0,9.47-6.33V59C150,54.05,144.33,49.92,145,49.47l12-8a28.93,28.93,0,0,0-10.88-7.09l-14.73,7.05a7.86,7.86,0,0,1-5.71-.11Z"/><path class="cls-33" d="M129,29C111.28,29,96.9,37.88,96.9,48.89s14.38,20,32.12,20,32.12-8.93,32.12-20S146.76,29,129,29Z"/><path class="cls-29" d="M129,31.71c-11.85,0-21.47,6-21.47,13.34S117.17,58.38,129,58.38s21.48-6,21.48-13.33S140.88,31.71,129,31.71Z"/><path class="cls-31" d="M129,33.47c-11.38,0-20.69,5.5-21.42,12.46.73,7,10,12.45,21.42,12.45s20.7-5.5,21.42-12.45C149.72,39,140.4,33.47,129,33.47Z"/><path class="cls-29" d="M129,34.21c-9.82,0-17.79,4.95-17.79,11s8,11.05,17.79,11.05,17.8-5,17.8-11.05S138.85,34.21,129,34.21Z"/><path class="cls-39" d="M129,33c-9.82,0-17.79,5-17.79,11.05s8,11,17.79,11,17.8-4.94,17.8-11S138.85,33,129,33Z"/></g></g></svg>