<svg xmlns="http://www.w3.org/2000/svg" xmlns:xlink="http://www.w3.org/1999/xlink" viewBox="0 0 369.67 353.83"><defs><style>.cls-1{fill:#fafdfe;}.cls-2{fill:#0b3140;}.cls-3{fill:#0d394a;}.cls-4{fill:#fdb813;}.cls-5{fill:#867f7e;}.cls-6{fill:#9b9492;}.cls-7{fill:#e4dad8;}.cls-8{fill:#d7ccc8;}.cls-9{fill:#376e8d;}.cls-10{fill:#fff;}.cls-11{fill:#646464;}.cls-12{fill:#5d93ab;}.cls-13,.cls-31{fill:#363634;}.cls-14,.cls-30{fill:#666;}.cls-15{fill:#deb068;}.cls-16{fill:#f1c989;}.cls-17{fill:#ebbe73;}.cls-18{fill:#998376;}.cls-19{fill:#8a766a;}.cls-20{fill:#6d5041;}.cls-21{fill:#7f6d62;}.cls-22{fill:#f7e8d5;}.cls-23{fill:#474646;}.cls-24{fill:#292623;}.cls-25{fill:#7f7f7f;}.cls-25,.cls-26,.cls-27,.cls-28,.cls-29,.cls-30,.cls-31,.cls-32,.cls-33,.cls-34,.cls-35,.cls-36,.cls-37,.cls-38,.cls-39{fill-rule:evenodd;}.cls-26{fill:#f1ece6;}.cls-27{fill:#bcb5ad;}.cls-28{fill:#a39a8f;}.cls-29{fill:#e39400;}.cls-32{fill:#575756;}.cls-33{fill:#fc0;}.cls-34{fill:url(#GradientFill_1);}.cls-35{fill:url(#GradientFill_1-2);}.cls-36{fill:#4c4c4c;}.cls-37{fill:url(#GradientFill_1-3);}.cls-38{fill:url(#GradientFill_1-4);}.cls-39{fill:url(#GradientFill_1-5);}</style><linearGradient id="GradientFill_1" x1="1028.63" y1="-84.18" x2="1030.24" y2="-81.61" gradientTransform="translate(-826.78 102.8)" gradientUnits="userSpaceOnUse"><stop offset="0" stop-color="#fbc800"/><stop offset="1" stop-color="#fff"/></linearGradient><linearGradient id="GradientFill_1-2" x1="992.87" y1="-84.18" x2="994.47" y2="-81.61" xlink:href="#GradientFill_1"/><linearGradient id="GradientFill_1-3" x1="1028.43" y1="-63.74" x2="1030.04" y2="-61.17" xlink:href="#GradientFill_1"/><linearGradient id="GradientFill_1-4" x1="992.96" y1="-63.74" x2="994.57" y2="-61.17" xlink:href="#GradientFill_1"/><linearGradient id="GradientFill_1-5" x1="1008.12" y1="-76.97" x2="1014.7" y2="-66.43" xlink:href="#GradientFill_1"/></defs><title>资源 2</title><g id="图层_2" data-name="图层 2"><g id="图层_1-2" data-name="图层 1"><polygon class="cls-1" points="239.01 353.55 239.73 353.55 239.01 352.82 239.01 353.55"/><polygon class="cls-1" points="239.01 353.55 239.73 353.55 239.01 352.82 239.01 353.55"/><polygon class="cls-1" points="209.17 307.28 208.49 307.28 209.17 307.95 209.17 307.28"/><polygon class="cls-1" points="137.6 307.28 137.6 307.52 137.84 307.28 137.6 307.28"/><polygon class="cls-2" points="206.22 324.07 206.22 315.14 217.04 316.55 217.03 325.49 206.22 324.07"/><polygon class="cls-3" points="203.45 325.53 203.46 316.6 206.22 315.14 206.22 324.07 203.45 325.53"/><polygon class="cls-4" points="214.28 318.01 203.46 316.6 206.22 315.14 217.04 316.55 214.28 318.01"/><polygon class="cls-5" points="203.45 325.53 203.46 316.6 214.28 318.01 214.27 326.95 203.45 325.53"/><polygon class="cls-6" points="214.27 326.95 214.28 318.01 217.04 316.55 217.03 325.49 214.27 326.95"/><polygon class="cls-2" points="140.4 329.83 140.41 320.89 145.98 321.62 145.97 330.56 140.4 329.83"/><polygon class="cls-3" points="135.04 332.66 135.05 323.72 140.41 320.89 140.4 329.83 135.04 332.66"/><polygon class="cls-6" points="140.62 333.39 140.63 324.45 145.98 321.62 145.97 330.56 140.62 333.39"/><polygon class="cls-5" points="135.04 332.66 135.05 323.72 140.63 324.45 140.62 333.39 135.04 332.66"/><polygon class="cls-2" points="233.7 342.05 233.71 333.11 239.28 333.84 239.27 342.78 233.7 342.05"/><polygon class="cls-3" points="228.34 344.88 228.35 335.94 233.71 333.11 233.7 342.05 228.34 344.88"/><polygon class="cls-5" points="228.34 344.88 228.35 335.94 233.93 336.67 233.92 345.61 228.34 344.88"/><polygon class="cls-6" points="233.92 345.61 233.93 336.67 239.28 333.84 239.27 342.78 233.92 345.61"/><polygon class="cls-2" points="160.02 348.5 160.03 339.57 170.87 340.98 170.86 349.92 160.02 348.5"/><polygon class="cls-3" points="157.26 349.96 157.27 341.02 160.03 339.57 160.02 348.5 157.26 349.96"/><polygon class="cls-5" points="157.26 349.96 157.27 341.02 168.11 342.44 168.1 351.38 157.26 349.96"/><polygon class="cls-6" points="168.1 351.38 168.11 342.44 170.87 340.98 170.86 349.92 168.1 351.38"/><polygon class="cls-4" points="140.63 324.45 135.05 323.72 140.41 320.89 145.98 321.62 140.63 324.45"/><polygon class="cls-4" points="233.93 336.67 228.35 335.94 233.71 333.11 239.28 333.84 233.93 336.67"/><polygon class="cls-4" points="168.11 342.44 157.27 341.02 160.03 339.57 170.87 340.98 168.11 342.44"/><path class="cls-1" d="M156.66,344.89l-31.13-24.2,92.17-8.06,31.14,24.2Zm11.45-2.45,2.76-1.46L160,339.57,157.27,341l10.84,1.42m-27.7-21.55-5.36,2.83,5.58.73,5.35-2.83-5.57-.73m93.3,12.22-5.36,2.83,5.58.73,5.35-2.83-5.57-.73m-27.49-18-2.76,1.45L214.28,318l2.76-1.46-10.82-1.41"/><polygon class="cls-7" points="156.65 353.83 156.66 344.89 248.84 336.83 248.83 345.76 156.65 353.83"/><polygon class="cls-8" points="125.52 329.63 125.53 320.69 156.66 344.89 156.65 353.83 125.52 329.63"/><path class="cls-9" d="M196.7,335.57c-14.82,1.3-30.89-.81-35.89-4.7s2.95-8.09,17.77-9.39,30.88.81,35.89,4.7S211.52,334.27,196.7,335.57Zm-1.42-12.72-7.37.64,4.61,3.58-12.15,1.07-4.61-3.58-7.37.64,11,8.56,7.37-.65-4.24-3.29,12.15-1.06,4.24,3.29,7.36-.65-11-8.55"/><polygon class="cls-10" points="206.28 331.4 198.92 332.05 194.68 328.76 182.53 329.82 186.77 333.11 179.4 333.75 168.39 325.2 175.76 324.56 180.37 328.13 192.52 327.07 187.91 323.49 195.28 322.85 206.28 331.4"/><polygon class="cls-1" points="209.17 307.28 208.49 307.28 209.17 307.95 209.17 307.28"/><polygon class="cls-1" points="137.6 307.28 137.6 307.52 137.84 307.28 137.6 307.28"/><polygon class="cls-2" points="206.22 324.07 206.22 315.14 217.04 316.55 217.03 325.49 206.22 324.07"/><polygon class="cls-3" points="203.45 325.53 203.46 316.6 206.22 315.14 206.22 324.07 203.45 325.53"/><polygon class="cls-11" points="214.28 318.01 203.46 316.6 206.22 315.14 217.04 316.55 214.28 318.01"/><polygon class="cls-5" points="203.45 325.53 203.46 316.6 214.28 318.01 214.27 326.95 203.45 325.53"/><polygon class="cls-6" points="214.27 326.95 214.28 318.01 217.04 316.55 217.03 325.49 214.27 326.95"/><polygon class="cls-2" points="140.4 329.83 140.41 320.89 145.98 321.62 145.97 330.56 140.4 329.83"/><polygon class="cls-3" points="135.04 332.66 135.05 323.72 140.41 320.89 140.4 329.83 135.04 332.66"/><polygon class="cls-6" points="140.62 333.39 140.63 324.45 145.98 321.62 145.97 330.56 140.62 333.39"/><polygon class="cls-5" points="135.04 332.66 135.05 323.72 140.63 324.45 140.62 333.39 135.04 332.66"/><polygon class="cls-2" points="233.7 342.05 233.71 333.11 239.28 333.84 239.27 342.78 233.7 342.05"/><polygon class="cls-3" points="228.34 344.88 228.35 335.94 233.71 333.11 233.7 342.05 228.34 344.88"/><polygon class="cls-5" points="228.34 344.88 228.35 335.94 233.93 336.67 233.92 345.61 228.34 344.88"/><polygon class="cls-6" points="233.92 345.61 233.93 336.67 239.28 333.84 239.27 342.78 233.92 345.61"/><polygon class="cls-2" points="160.02 348.5 160.03 339.57 170.87 340.98 170.86 349.92 160.02 348.5"/><polygon class="cls-3" points="157.26 349.96 157.27 341.02 160.03 339.57 160.02 348.5 157.26 349.96"/><polygon class="cls-5" points="157.26 349.96 157.27 341.02 168.11 342.44 168.1 351.38 157.26 349.96"/><polygon class="cls-6" points="168.1 351.38 168.11 342.44 170.87 340.98 170.86 349.92 168.1 351.38"/><polygon class="cls-11" points="140.63 324.45 135.05 323.72 140.41 320.89 145.98 321.62 140.63 324.45"/><polygon class="cls-11" points="233.93 336.67 228.35 335.94 233.71 333.11 239.28 333.84 233.93 336.67"/><polygon class="cls-11" points="168.11 342.44 157.27 341.02 160.03 339.57 170.87 340.98 168.11 342.44"/><path class="cls-10" d="M156.66,344.89l-31.13-24.2,92.17-8.06,31.14,24.2Zm11.45-2.45,2.76-1.46L160,339.57,157.27,341l10.84,1.42m-27.7-21.55-5.36,2.83,5.58.73,5.35-2.83-5.57-.73m93.3,12.22-5.36,2.83,5.58.73,5.35-2.83-5.57-.73m-27.49-18-2.76,1.45L214.28,318l2.76-1.46-10.82-1.41"/><polygon class="cls-7" points="156.65 353.83 156.66 344.89 248.84 336.83 248.83 345.76 156.65 353.83"/><polygon class="cls-8" points="125.52 329.63 125.53 320.69 156.66 344.89 156.65 353.83 125.52 329.63"/><path class="cls-11" d="M196.7,335.57c-14.82,1.3-30.89-.81-35.89-4.7s2.95-8.09,17.77-9.39,30.88.81,35.89,4.7S211.52,334.27,196.7,335.57Zm-1.42-12.72-7.37.64,4.61,3.58-12.15,1.07-4.61-3.58-7.37.64,11,8.56,7.37-.65-4.24-3.29,12.15-1.06,4.24,3.29,7.36-.65-11-8.55"/><polygon class="cls-10" points="206.28 331.4 198.92 332.05 194.68 328.76 182.53 329.82 186.77 333.11 179.4 333.75 168.39 325.2 175.76 324.56 180.37 328.13 192.52 327.07 187.91 323.49 195.28 322.85 206.28 331.4"/><path class="cls-12" d="M183.93,94.68c-87.1,0-160.11-15.6-179.67-36.6L163,304.35c0-3.23,9.38-5.84,20.95-5.84s21,2.61,21,5.84L363.67,58C344.23,79,271.14,94.68,183.93,94.68Z"/><ellipse class="cls-9" cx="184.83" cy="47.87" rx="184.83" ry="47.87"/><ellipse class="cls-9" cx="183.97" cy="304.35" rx="20.96" ry="5.85"/><path class="cls-13" d="M196.32,52.64a2.61,2.61,0,0,1-1.29-.38L184.19,46A4.62,4.62,0,0,1,182,42.45V27.8A1.67,1.67,0,0,1,183.63,26a2.64,2.64,0,0,1,1.29.38l10.83,6.23A4.59,4.59,0,0,1,198,36.18V50.83A1.67,1.67,0,0,1,196.32,52.64ZM183.63,27.45c-.09,0-.22,0-.22.35V42.45a3.19,3.19,0,0,0,1.51,2.32L195.75,51a1.14,1.14,0,0,0,.57.19c.09,0,.22,0,.22-.35V36.18A3.19,3.19,0,0,0,195,33.86l-10.84-6.22A1.09,1.09,0,0,0,183.63,27.45Z"/><path class="cls-14" d="M185.94,58.47a2.54,2.54,0,0,1-1.29-.38l-10.83-6.22a4.61,4.61,0,0,1-2.24-3.59V33.63a1.67,1.67,0,0,1,1.67-1.81,2.68,2.68,0,0,1,1.3.38l10.83,6.23A4.62,4.62,0,0,1,187.62,42V56.66A1.67,1.67,0,0,1,185.94,58.47ZM173.25,33.28c-.09,0-.21,0-.21.35V48.28a3.15,3.15,0,0,0,1.51,2.32l10.83,6.23a1.23,1.23,0,0,0,.56.19c.1,0,.22,0,.22-.36V42a3.16,3.16,0,0,0-1.51-2.32l-10.83-6.22A1.14,1.14,0,0,0,173.25,33.28Z"/><polygon class="cls-15" points="195.19 46.5 195.18 51.27 184.81 57.29 184.83 52.52 195.19 46.5"/><polygon class="cls-16" points="184.83 52.52 184.81 57.29 174.38 51.26 174.39 46.49 184.83 52.52"/><polygon class="cls-17" points="195.19 46.5 184.83 52.52 174.39 46.49 184.75 40.47 195.19 46.5"/><polygon class="cls-14" points="186.39 51.68 186.39 56.44 187.84 55.6 187.84 50.83 186.39 51.68"/><path class="cls-14" d="M186.39,42v9.73l1.45-.85V42.06l-1.68-1A2.09,2.09,0,0,1,186.39,42Z"/><polyline class="cls-10" points="191 51.9 189.2 52.94 189.2 51.65 191 50.61"/><polygon class="cls-18" points="190.5 51.17 189.41 51.8 189.41 51.73 190.5 51.1 190.5 51.17"/><polygon class="cls-18" points="190.76 51.43 189.68 52.06 189.68 51.99 190.76 51.36 190.76 51.43"/><polygon class="cls-19" points="190.08 51.61 189.41 52 189.41 51.93 190.08 51.54 190.08 51.61"/><polygon class="cls-20" points="190.49 51.38 190.22 51.53 190.22 51.46 190.49 51.3 190.49 51.38"/><polygon class="cls-21" points="190.49 51.38 190.22 51.53 190.22 51.46 190.49 51.3 190.49 51.38"/><polygon class="cls-21" points="190.08 52.04 189.41 52.43 189.41 52.36 190.08 51.97 190.08 52.04"/><polygon class="cls-21" points="190.49 51.81 190.22 51.97 190.22 51.9 190.49 51.74 190.49 51.81"/><polygon class="cls-21" points="190.73 51.24 190.6 51.31 190.6 51.24 190.73 51.17 190.73 51.24"/><polygon class="cls-18" points="189.68 52.47 189.41 52.63 189.41 52.56 189.68 52.4 189.68 52.47"/><polygon class="cls-21" points="189.92 52.33 189.8 52.4 189.8 52.33 189.92 52.26 189.92 52.33"/><polygon class="cls-21" points="189.54 52.14 189.41 52.21 189.41 52.14 189.54 52.07 189.54 52.14"/><polygon class="cls-22" points="177.6 52.07 174.61 50.34 174.61 51.15 177.6 52.87 177.6 52.07"/><polygon class="cls-23" points="174.82 50.58 174.76 50.54 174.76 51.12 174.82 51.15 174.82 50.58"/><polygon class="cls-23" points="175.07 50.72 174.93 50.63 174.93 51.21 175.07 51.3 175.07 50.72"/><polygon class="cls-23" points="175.21 50.8 175.15 50.77 175.15 51.34 175.21 51.37 175.21 50.8"/><polygon class="cls-23" points="175.35 50.88 175.3 50.85 175.3 51.43 175.35 51.46 175.35 50.88"/><polygon class="cls-23" points="175.59 51.02 175.41 50.91 175.41 51.49 175.59 51.6 175.59 51.02"/><polygon class="cls-24" points="175.75 51.11 175.7 51.08 175.7 51.66 175.75 51.69 175.75 51.11"/><polygon class="cls-23" points="176.12 51.33 175.88 51.19 175.88 51.76 176.12 51.9 176.12 51.33"/><polygon class="cls-23" points="176.26 51.41 176.2 51.37 176.2 51.95 176.26 51.98 176.26 51.41"/><polygon class="cls-23" points="176.52 51.56 176.4 51.48 176.4 52.06 176.52 52.13 176.52 51.56"/><polygon class="cls-23" points="176.66 51.63 176.72 51.67 176.72 52.25 176.66 52.21 176.66 51.63"/><polygon class="cls-23" points="176.97 51.82 176.76 51.69 176.76 52.27 176.97 52.39 176.97 51.82"/><polygon class="cls-23" points="177.06 51.87 177.03 51.85 177.03 52.43 177.06 52.45 177.06 51.87"/><polygon class="cls-23" points="177.31 52.01 177.17 51.93 177.17 52.51 177.31 52.59 177.31 52.01"/><polygon class="cls-23" points="177.45 52.09 177.41 52.07 177.41 52.64 177.45 52.67 177.45 52.09"/><path class="cls-25" d="M198.41,46.19l-10.85-2.81a9.39,9.39,0,0,0-4.82-.09l-11.57,2.93a8.22,8.22,0,0,1-6.07-.65c-1.68-1-2.41-2.61-1.12-3.58l7.3-5.45c1-.74.67-1.94-.17-2.84l-6.8-7.35c-1.09-1.18-.87-2.62.7-3.55a7.37,7.37,0,0,1,6-.42l10.8,4.05a7,7,0,0,0,4.81.09l11.6-4.26a7.51,7.51,0,0,1,6.07.65c1.68,1,2.15,2.5,1.12,3.58l-7.32,7.74a1.79,1.79,0,0,0,.16,2.83l6.87,5.16c1.4,1.06.87,2.62-.7,3.55A8.22,8.22,0,0,1,198.41,46.19Z"/><path class="cls-26" d="M198.41,45.61l-10.85-4.17a7.13,7.13,0,0,0-4.82-.09l-11.57,4.3A7.61,7.61,0,0,1,165.1,45c-1.68-1-2.23-2.54-1.12-3.58l7.3-6.81a1.81,1.81,0,0,0-.17-2.84l-6.8-6c-1.29-1.12-.87-2.62.7-3.54a7.55,7.55,0,0,1,6-.42l10.8,3.6a7.55,7.55,0,0,0,4.81.09l11.6-3.82a7.72,7.72,0,0,1,6.07.66c1.68,1,2.31,2.55,1.12,3.58l-7.32,6.33a1.82,1.82,0,0,0,.16,2.84l6.87,6.53c1.19,1.12.87,2.62-.7,3.54A7.4,7.4,0,0,1,198.41,45.61Z"/><path class="cls-27" d="M198,43.15l-12.11-6a2.9,2.9,0,0,0-2.11,0l-12.32,6.06a3.14,3.14,0,0,1-2.66-.29c-.73-.43-1-1.11-.49-1.57l10.18-8c.43-.34.63,0,.19-.4l-10.5-7c-.67-.45-.38-1.15.3-1.56a3.35,3.35,0,0,1,2.64-.18l12.25,6a2.9,2.9,0,0,0,2.11,0l12.61-6a3.1,3.1,0,0,1,2.66.29c.73.43,1,1.11.49,1.56L190.54,33.1c-.48.31,7.43,5.47,10.43,8.32.52.49.38,1.14-.31,1.55A3.22,3.22,0,0,1,198,43.15Z"/><path class="cls-28" d="M202.73,24.55c.87,0,1.58-.45,1.58-1s-.71-1-1.58-1-1.59.45-1.59,1S201.85,24.55,202.73,24.55Z"/><path class="cls-29" d="M202.73,20.76a1.38,1.38,0,0,0-1.24.56h-.06c0,.26,0,2.06,0,2.18,0,.43.58.8,1.3.8s1.29-.36,1.29-.8V21.32H204A1.37,1.37,0,0,0,202.73,20.76Z"/><path class="cls-30" d="M202.73,20a1.69,1.69,0,0,0-1.52.69h-.07V21c0,.55.71,1,1.59,1s1.58-.44,1.58-1v-.29h-.07A1.68,1.68,0,0,0,202.73,20Z"/><path class="cls-31" d="M202.73,21.63c.87,0,1.58-.44,1.58-1s-.71-1-1.58-1-1.59.44-1.59,1S201.85,21.63,202.73,21.63Z"/><path class="cls-32" d="M202.73,21.13c.57,0,1-.29,1-.64s-.46-.64-1-.64-1,.29-1,.64S202.16,21.13,202.73,21.13Z"/><path class="cls-29" d="M194.48,15.18c2.59,1.56,5.27,3.8,8.16,5.22l1.94,1c5.93.74,6.87,1.91,7.23,3.82.08.39-.65.67-1,.47l-10.56-6.08c-6.46-.91-6.95-2.24-6.78-3.91A.69.69,0,0,1,194.48,15.18Z"/><path class="cls-33" d="M194.55,14.94l8.15,5.22,1.85,1.06c5.92.74,7,1.8,7.33,3.71.07.39-.66.67-1,.47l-10.55-6.08c-6.47-.91-7-2.24-6.78-3.91A.68.68,0,0,1,194.55,14.94Z"/><path class="cls-30" d="M202.74,19.28c.95,0,1.72.47,1.72,1.06s-.77,1.06-1.72,1.06S201,20.93,201,20.34,201.8,19.28,202.74,19.28Z"/><path class="cls-34" d="M202.74,18.27c-.94,0-1.71,1.27-1.71,1.86s.77,1.06,1.71,1.06,1.72-.48,1.72-1.06S203.69,18.27,202.74,18.27Z"/><path class="cls-28" d="M167,24.55c.87,0,1.58-.45,1.58-1s-.71-1-1.58-1-1.59.45-1.59,1S166.12,24.55,167,24.55Z"/><path class="cls-29" d="M167,20.76a1.37,1.37,0,0,1,1.23.56h.06c0,.26,0,2.06,0,2.18,0,.43-.58.8-1.29.8s-1.3-.36-1.3-.8V21.32h.06A1.38,1.38,0,0,1,167,20.76Z"/><path class="cls-30" d="M167,20a1.68,1.68,0,0,1,1.51.69h.07V21c0,.55-.71,1-1.58,1s-1.59-.44-1.59-1v-.29h.07A1.69,1.69,0,0,1,167,20Z"/><path class="cls-31" d="M167,21.63c.87,0,1.58-.44,1.58-1s-.71-1-1.58-1-1.59.44-1.59,1S166.12,21.63,167,21.63Z"/><path class="cls-32" d="M167,21.13c.57,0,1-.29,1-.64s-.47-.64-1-.64-1,.29-1,.64S166.42,21.13,167,21.13Z"/><path class="cls-29" d="M175.24,15.18c-2.59,1.56-5.27,3.8-8.16,5.22l-1.94,1c-5.93.74-6.87,1.91-7.23,3.82-.08.39.65.67,1,.47l10.56-6.08c6.46-.91,6.95-2.24,6.78-3.91A.69.69,0,0,0,175.24,15.18Z"/><path class="cls-33" d="M175.17,14.94,167,20.16l-1.85,1.06c-5.92.74-7,1.8-7.33,3.71-.07.39.66.67,1,.47l10.55-6.08c6.47-.91,7-2.24,6.78-3.91A.68.68,0,0,0,175.17,14.94Z"/><path class="cls-30" d="M167,19.28c-.95,0-1.72.47-1.72,1.06S166,21.4,167,21.4s1.71-.47,1.71-1.06S167.92,19.28,167,19.28Z"/><path class="cls-35" d="M167,18.27c-.95,0-1.72,1.27-1.72,1.86s.77,1.06,1.72,1.06,1.71-.48,1.71-1.06S167.92,18.27,167,18.27Z"/><path class="cls-36" d="M168.14,42.08a.72.72,0,0,1,.2-.3l10.18-7.18c.46-.33.35-.87-.08-1.25l0,0,.1-.06c.45-.31.63,0,.19-.4l-10.5-7a.94.94,0,0,1-.32-.35,1.37,1.37,0,0,1,.62-.7,3.35,3.35,0,0,1,2.64-.18l12.25,6.8a2.79,2.79,0,0,0,2.11,0l12.61-6.85a3,3,0,0,1,2.66.29,1.55,1.55,0,0,1,.71.76,1,1,0,0,1-.22.29L190.54,33.1c-.11.07.18.36.71.8l-.72.53c-.44.33,7.44,4.65,10.44,7.5a1,1,0,0,1,.27.4,1.25,1.25,0,0,1-.58.64,3.22,3.22,0,0,1-2.63.18l-12.11-6a2.9,2.9,0,0,0-2.11,0l-12.32,6.06a3.14,3.14,0,0,1-2.66-.29A1.46,1.46,0,0,1,168.14,42.08Z"/><path class="cls-28" d="M202.56,45c.88,0,1.59-.44,1.59-1s-.71-1-1.59-1-1.59.44-1.59,1S201.69,45,202.56,45Z"/><path class="cls-29" d="M202.56,41.2a1.36,1.36,0,0,1,1.24.57h0c0,.26,0,2,0,2.17,0,.44-.58.81-1.3.81s-1.29-.36-1.29-.81V41.77h.06A1.36,1.36,0,0,1,202.56,41.2Z"/><path class="cls-30" d="M202.56,40.47a1.69,1.69,0,0,1,1.52.69h.07v.3c0,.54-.71,1-1.59,1S201,42,201,41.46v-.3H201A1.7,1.7,0,0,1,202.56,40.47Z"/><path class="cls-31" d="M202.56,42.07c.88,0,1.59-.44,1.59-1s-.71-1-1.59-1-1.59.45-1.59,1S201.69,42.07,202.56,42.07Z"/><path class="cls-32" d="M202.56,41.58c.57,0,1-.29,1-.65s-.46-.64-1-.64-1,.29-1,.64S202,41.58,202.56,41.58Z"/><path class="cls-29" d="M210.81,35.62c-2.59,1.56-5.27,3.81-8.16,5.22l-2,.95c-5.92.74-6.86,1.91-7.23,3.82-.07.4.66.67,1,.47L205,40c6.47-.92,7-2.25,6.78-3.92A.68.68,0,0,0,210.81,35.62Z"/><path class="cls-33" d="M210.74,35.38l-8.16,5.22-1.84,1.06c-5.93.74-7,1.8-7.33,3.71-.08.4.66.67,1,.47L205,39.76c6.47-.91,6.95-2.24,6.78-3.91A.68.68,0,0,0,210.74,35.38Z"/><path class="cls-30" d="M202.54,39.72c-.94,0-1.71.48-1.71,1.06s.77,1.07,1.71,1.07,1.72-.48,1.72-1.07S203.49,39.72,202.54,39.72Z"/><path class="cls-37" d="M202.54,38.71c-.94,0-1.71,1.27-1.71,1.86s.77,1.06,1.71,1.06,1.72-.47,1.72-1.06S203.49,38.71,202.54,38.71Z"/><path class="cls-28" d="M167.05,45c.88,0,1.59-.44,1.59-1s-.71-1-1.59-1-1.59.44-1.59,1S166.18,45,167.05,45Z"/><path class="cls-29" d="M167.05,41.2a1.39,1.39,0,0,0-1.24.57h-.05v2.17c0,.44.58.81,1.29.81s1.3-.36,1.3-.81V41.77h-.06A1.38,1.38,0,0,0,167.05,41.2Z"/><path class="cls-30" d="M167.05,40.47a1.7,1.7,0,0,0-1.52.69h-.06v.22a.19.19,0,0,0,0,.08c0,.54.71,1,1.59,1s1.59-.44,1.59-1v-.3h-.07A1.69,1.69,0,0,0,167.05,40.47Z"/><path class="cls-31" d="M167.05,42.07c.88,0,1.59-.44,1.59-1s-.71-1-1.59-1-1.59.45-1.59,1S166.18,42.07,167.05,42.07Z"/><path class="cls-32" d="M167.05,41.58c.57,0,1-.29,1-.65s-.47-.64-1-.64-1,.29-1,.64S166.48,41.58,167.05,41.58Z"/><path class="cls-29" d="M158.81,35.62c2.58,1.56,5.26,3.81,8.15,5.22l1.95.95c5.92.74,6.86,1.91,7.23,3.82.08.4-.66.67-1,.47L164.59,40c-6.47-.92-7-2.25-6.78-3.92A.68.68,0,0,1,158.81,35.62Z"/><path class="cls-33" d="M158.87,35.38,167,40.6l1.85,1.06c5.92.74,7,1.8,7.32,3.71.08.4-.65.67-1,.47l-10.56-6.08c-6.46-.91-7-2.24-6.77-3.91A.67.67,0,0,1,158.87,35.38Z"/><path class="cls-30" d="M167.07,39.72c1,0,1.71.48,1.71,1.06s-.76,1.07-1.71,1.07-1.71-.48-1.71-1.07S166.12,39.72,167.07,39.72Z"/><path class="cls-38" d="M167.07,38.71c-.95,0-1.71,1.27-1.71,1.86s.76,1.06,1.71,1.06,1.71-.47,1.71-1.06S168,38.71,167.07,38.71Z"/><path class="cls-29" d="M178.23,27.58A10.65,10.65,0,0,0,174.44,30l4.27,2.85c.44.38.56,1,.08,1.24l-4.42,2.38v1a12.63,12.63,0,0,0,3.69,2.39l5.75-2.83a2.9,2.9,0,0,1,2.11,0l5.45,2.72a10.37,10.37,0,0,0,3.49-2.34v-.88c-2.47-1.82-4.57-3.34-4.32-3.51L195,30.16a10.6,10.6,0,0,0-4-2.62l-5.44,2.6a2.9,2.9,0,0,1-2.11,0Z"/><path class="cls-33" d="M184.64,25.53c-6.55,0-11.86,3.29-11.86,7.36s5.31,7.36,11.86,7.36,11.85-3.3,11.85-7.36S191.18,25.53,184.64,25.53Z"/><path class="cls-29" d="M184.64,26.55c-4.38,0-7.93,2.2-7.93,4.92s3.55,4.92,7.93,4.92,7.92-2.2,7.92-4.92S189,26.55,184.64,26.55Z"/><path class="cls-31" d="M184.64,27.2c-4.21,0-7.64,2-7.91,4.59.27,2.57,3.7,4.6,7.91,4.6s7.63-2,7.9-4.6C192.27,29.23,188.84,27.2,184.64,27.2Z"/><path class="cls-29" d="M184.64,27.47c-3.63,0-6.57,1.83-6.57,4.08s2.94,4.08,6.57,4.08,6.56-1.83,6.56-4.08S188.26,27.47,184.64,27.47Z"/><path class="cls-39" d="M184.64,27c-3.63,0-6.57,1.82-6.57,4.07s2.94,4.08,6.57,4.08,6.56-1.82,6.56-4.08S188.26,27,184.64,27Z"/></g></g></svg>